<svg width="40" height="40" viewBox="0 0 40 40" fill="none" xmlns="http://www.w3.org/2000/svg">
<rect width="40" height="40" fill="black"/>
<path fill-rule="evenodd" clip-rule="evenodd" d="M11.836 13.5078V27.7372H9.375V28.8281H15.7939V20.0392L21.5011 28.8281L24.2424 28.8281L29.7656 28.8281L30.6613 28.8281V27.7372H29.0117L28.7267 27.3249L28.2003 26.4341V11.0938H24.2424V19.9845L18.584 11.0938H15.5402H11.836H10.2344L11.2781 12.5189L11.836 13.5078ZM20.8791 17.2026C20.7533 17.1121 20.5199 16.9447 20.3604 16.8307C20.201 16.7167 19.926 16.5172 19.7495 16.3874C19.5729 16.2576 19.3834 16.1211 19.3283 16.0841C19.2732 16.0471 19.0845 15.9103 18.9088 15.78C18.7333 15.6496 18.5124 15.4892 18.4182 15.4233C18.324 15.3574 18.1351 15.2206 17.9986 15.1192C17.862 15.0179 17.6202 14.8414 17.461 14.7272C17.3019 14.613 17.0807 14.4527 16.9695 14.371C16.406 13.9569 15.9165 13.61 15.8335 13.5656C15.7825 13.5384 15.7308 13.4974 15.7186 13.4746C15.7065 13.4518 15.6753 13.4314 15.6492 13.4292C15.6231 13.427 15.5632 13.3918 15.516 13.3509L15.4301 13.2766L15.5054 13.3872C15.5468 13.448 15.6571 13.5792 15.7507 13.6785L16.0813 14.0299C16.1697 14.1237 16.2736 14.2379 16.3123 14.2836C16.3808 14.3645 16.5689 14.5745 16.8881 14.9264C16.9742 15.0215 17.1048 15.1689 17.1782 15.2542C17.2517 15.3393 17.3635 15.4629 17.4269 15.5286C17.4902 15.5944 17.5909 15.7103 17.6508 15.7861C17.7106 15.8621 17.8153 15.9826 17.8833 16.0542C17.9513 16.1256 18.0629 16.2494 18.1312 16.329C18.2506 16.4684 18.4738 16.7155 18.6927 16.9511C18.8751 17.1473 18.8509 17.1867 18.4639 17.3237C18.3246 17.3731 18.1319 17.4432 18.0353 17.4795C17.9388 17.5159 17.7528 17.5821 17.622 17.6265C17.4912 17.6711 17.2775 17.7444 17.147 17.7896C17.0165 17.8347 16.8691 17.8839 16.8192 17.899C16.7245 17.9276 16.8229 18.1215 16.9395 18.136C16.9634 18.139 16.9925 18.1592 17.0041 18.181C17.0157 18.2028 17.0812 18.2635 17.1497 18.316C17.2656 18.4047 17.4296 18.5352 17.5891 18.6657C17.7051 18.7607 17.9252 18.9335 18.0393 19.0194C18.0997 19.065 18.1625 19.1272 18.1787 19.1577C18.1949 19.1882 18.2282 19.2154 18.2527 19.2181C18.2772 19.2208 18.3391 19.2618 18.3904 19.3091C18.4416 19.3564 18.5419 19.4387 18.6132 19.4919C18.6845 19.5451 18.7714 19.6209 18.8063 19.6604C18.8412 19.6998 18.8904 19.736 18.9158 19.7409C18.9411 19.7458 19.0018 19.788 19.0506 19.8349C19.1753 19.9544 19.3263 20.081 19.3894 20.1185C19.4586 20.1596 19.6449 20.3186 19.7159 20.3968C19.7462 20.4303 19.7918 20.4618 19.817 20.4667C19.8422 20.4717 19.9023 20.5143 19.9506 20.5614C19.9989 20.6084 20.0965 20.6907 20.1675 20.7441C20.2385 20.7975 20.3334 20.8758 20.3785 20.9181C20.4236 20.9604 20.5186 21.0386 20.5896 21.092C20.6605 21.1454 20.7587 21.2283 20.8077 21.2761C20.8566 21.3239 20.9186 21.3648 20.9454 21.3671C20.9721 21.3693 21.0089 21.3994 21.0273 21.434C21.0457 21.4686 21.1025 21.5204 21.1536 21.5491C21.5152 21.7527 21.4126 21.9405 20.9014 22.0105C20.8598 22.0162 20.799 22.035 20.7663 22.0524C20.7092 22.0828 20.4642 22.1585 20.1363 22.247C19.8236 22.3315 19.8273 22.3856 20.1643 22.6738C20.4077 22.8817 20.5754 23.0382 20.6476 23.1247C20.686 23.1706 20.7371 23.2119 20.7612 23.2164C20.7852 23.2209 20.8518 23.2736 20.909 23.3336C20.9662 23.3936 21.0762 23.497 21.1534 23.5637C21.2307 23.6303 21.3296 23.7201 21.3732 23.7631C21.4723 23.9132 22.3237 24.6537 22.881 25.1385C23.1551 25.377 23.3581 25.5535 23.3656 25.5677C23.3884 25.6105 23.4269 25.6433 23.4512 25.6406C23.4755 25.6379 23.5074 25.6582 23.522 25.6857C23.5366 25.7131 23.6061 25.7872 23.6763 25.8504C23.7466 25.9135 23.8732 26.0301 23.9576 26.1094C24.042 26.1888 24.2065 26.3386 24.3231 26.4423C24.4398 26.5459 24.5559 26.6536 24.5813 26.6816C24.6066 26.7095 24.653 26.6238 24.6061 26.5328C24.5592 26.4417 24.5088 26.3601 24.4941 26.3514C24.4794 26.3426 24.3887 26.2282 24.2925 26.097C24.1964 25.9659 24.0261 25.7446 23.9142 25.6053C23.8022 25.4661 23.6425 25.2664 23.5593 25.1618C23.3837 24.9409 22.3051 23.6767 22.3051 23.6767C22.2993 23.6698 22.2912 23.6591 22.2775 23.6409C22.2289 23.5766 22.1099 23.419 21.7726 23.0085C21.5194 22.7004 21.5251 22.5548 21.7902 22.5562C21.8147 22.5564 21.9347 22.5265 22.0569 22.49C22.179 22.4535 22.5058 22.3571 22.783 22.2758C23.0602 22.1945 23.3002 22.121 23.3163 22.1124C23.3634 22.0874 23.3117 22.0204 23.1255 21.8647C22.9016 21.6776 21.226 20.2235 20.9103 19.9425C20.8449 19.8842 20.0367 19.1916 19.6954 18.9014C19.5275 18.7587 19.3538 18.6071 19.3093 18.5645C19.2648 18.5219 19.155 18.4249 19.0655 18.3489C18.976 18.273 18.9034 18.1943 18.9045 18.174C18.9045 18.173 18.9046 18.1721 18.9046 18.1711C18.9047 18.1668 18.9049 18.1628 18.9065 18.1589C18.9197 18.1268 19.0316 18.0923 20.055 17.7763L20.1368 17.751C20.6523 17.5919 21.0862 17.4473 21.1011 17.4298L21.1026 17.4281C21.1089 17.4207 21.114 17.4147 21.1166 17.4087C21.1285 17.3819 21.0915 17.3553 20.8901 17.2105L20.8791 17.2026Z" fill="white"/>
</svg>
