<svg width="34" height="34" viewBox="0 0 34 34" fill="none" xmlns="http://www.w3.org/2000/svg">
<path fill-rule="evenodd" clip-rule="evenodd" d="M17 34C26.3888 34 34 26.3888 34 17C34 7.61116 26.3888 0 17 0C7.61116 0 0 7.61116 0 17C0 26.3888 7.61116 34 17 34Z" fill="#21728D"/>
<path fill-rule="evenodd" clip-rule="evenodd" d="M17.4119 13C16.9246 13 16.5296 13.395 16.5296 13.8824V16.5288H13.8824C13.395 16.5288 13 16.9239 13 17.4112C13 17.8985 13.395 18.2935 13.8824 18.2935H16.5296V20.9412C16.5296 21.4285 16.9246 21.8235 17.4119 21.8235C17.8992 21.8235 18.2943 21.4285 18.2943 20.9412V18.2935H20.9412C21.4285 18.2935 21.8235 17.8985 21.8235 17.4112C21.8235 16.9239 21.4285 16.5288 20.9412 16.5288H18.2943V13.8824C18.2943 13.395 17.8992 13 17.4119 13Z" fill="white"/>
</svg>
