<svg width="17" height="17" viewBox="0 0 17 17" fill="none" xmlns="http://www.w3.org/2000/svg">
<path d="M8.53906 -0.25C3.98304 -0.25 0.289062 3.44394 0.289062 8C0.289062 12.556 3.98304 16.25 8.53906 16.25C13.0951 16.25 16.7891 12.556 16.7891 8C16.7891 3.44394 13.0951 -0.25 8.53906 -0.25ZM14.0391 8C14.0391 8.75947 13.4241 9.375 12.6641 9.375H4.41406C3.65459 9.375 3.03906 8.75947 3.03906 8V5.25C3.03906 4.49053 3.65459 3.875 4.41406 3.875H12.6641C13.4241 3.875 14.0391 4.49053 14.0391 5.25V8ZM10.6016 5.25C10.2215 5.25 9.91406 5.55748 9.91406 5.9375V7.3125C9.91406 7.69247 10.2215 8 10.6016 8C10.9816 8 11.2891 7.69247 11.2891 7.3125V5.9375C11.2891 5.55748 10.9816 5.25 10.6016 5.25ZM6.47656 5.25C6.09655 5.25 5.78906 5.55748 5.78906 5.9375V7.3125C5.78906 7.69247 6.09655 8 6.47656 8C6.85658 8 7.16406 7.69247 7.16406 7.3125V5.9375C7.16406 5.55748 6.85658 5.25 6.47656 5.25Z" fill="#21728D"/>
</svg>
