<svg width="93" height="77" viewBox="0 0 93 77" fill="none" xmlns="http://www.w3.org/2000/svg">
<path fill-rule="evenodd" clip-rule="evenodd" d="M10.6853 10.482V72.2632H0V77H27.8698V38.8406L52.6492 77L64.5522 77L88.5326 77L92.422 77V72.2632H85.2591L84.022 70.4731L81.7368 66.6061V0H64.5522V38.6028L39.9839 0H26.7682H10.6853H3.73087L8.2625 6.18774L10.6853 10.482ZM49.9486 26.5224C49.4023 26.1294 48.389 25.4028 47.6964 24.9077C47.0043 24.4125 45.8106 23.5463 45.044 22.9827C44.2774 22.4191 43.4543 21.8267 43.2155 21.666C42.9762 21.5055 42.1567 20.9112 41.394 20.3455C40.6318 19.7796 39.673 19.0828 39.2638 18.7968C38.8546 18.5108 38.0347 17.9167 37.442 17.4765C36.8488 17.0366 35.7988 16.2706 35.1079 15.7747C34.4169 15.2788 33.4565 14.5829 32.9737 14.2281C30.527 12.4301 28.402 10.9238 28.0415 10.7312C27.82 10.6129 27.5954 10.4351 27.5427 10.3359C27.4901 10.237 27.3545 10.1482 27.2413 10.1388C27.128 10.1293 26.8678 9.97633 26.6628 9.79893L26.29 9.47624L26.6169 9.95639C26.7965 10.2206 27.2755 10.7899 27.6817 11.2214C28.0876 11.653 28.7336 12.3396 29.1174 12.747C29.5012 13.1544 29.9523 13.6503 30.1203 13.8487C30.4177 14.1997 31.2344 15.1117 32.6203 16.6395C32.9942 17.0522 33.5613 17.6925 33.88 18.0625C34.1991 18.4324 34.6845 18.9689 34.9597 19.2542C35.2345 19.5397 35.6717 20.043 35.9317 20.3723C36.1913 20.7019 36.6459 21.2254 36.9412 21.536C37.2368 21.8464 37.721 22.3835 38.0177 22.7293C38.5361 23.3346 39.505 24.4076 40.4557 25.4302C41.2476 26.2821 41.1424 26.4532 39.4621 27.0484C38.8576 27.2626 38.0206 27.567 37.6015 27.7248C37.1824 27.8825 36.3749 28.1699 35.8069 28.3631C35.2391 28.5564 34.3109 28.8747 33.7445 29.0709C33.178 29.2668 32.5377 29.4807 32.3211 29.5462C31.91 29.6703 32.3374 30.5123 32.8433 30.5752C32.9473 30.5882 33.0737 30.676 33.124 30.7706C33.1743 30.8651 33.4588 31.1288 33.7562 31.3566C34.2592 31.7418 34.9714 32.3081 35.6641 32.875C36.1678 33.2873 37.1231 34.0377 37.6187 34.4108C37.8809 34.6085 38.1535 34.8785 38.224 35.0111C38.2945 35.1437 38.439 35.2617 38.5454 35.2735C38.6517 35.2853 38.9206 35.4631 39.1431 35.6685C39.3656 35.8739 39.8009 36.231 40.1103 36.4622C40.4201 36.6932 40.7973 37.0223 40.9488 37.1936C41.1003 37.3648 41.3141 37.5222 41.4244 37.5433C41.5341 37.5644 41.7979 37.7479 42.0097 37.9515C42.5509 38.4704 43.2068 39.0199 43.4808 39.1826C43.7811 39.3613 44.5901 40.0515 44.8981 40.3909C45.03 40.5367 45.2276 40.6732 45.3371 40.6948C45.4465 40.7161 45.7074 40.9011 45.9173 41.1057C46.1271 41.31 46.5507 41.6672 46.8589 41.899C47.1671 42.1307 47.5795 42.4706 47.7752 42.6543C47.9709 42.838 48.3833 43.1779 48.6915 43.4097C48.9997 43.6415 49.4257 44.0013 49.6387 44.2088C49.8512 44.4163 50.12 44.5941 50.2364 44.6038C50.3523 44.6135 50.5123 44.7442 50.5921 44.8944C50.672 45.0445 50.9186 45.2695 51.1404 45.3942C52.7103 46.2781 52.2649 47.0934 50.0456 47.3974C49.8648 47.4223 49.6009 47.5041 49.4587 47.5797C49.2111 47.7113 48.1472 48.04 46.7237 48.4244C45.366 48.7912 45.3817 49.0261 46.8452 50.2773C47.902 51.1803 48.63 51.8595 48.9436 52.2353C49.1104 52.4343 49.3322 52.6136 49.4367 52.6333C49.5411 52.653 49.83 52.8819 50.0786 53.1422C50.3268 53.4026 50.8046 53.8519 51.1398 54.1413C51.4754 54.4304 51.9047 54.8202 52.0941 55.0072C52.5242 55.6587 56.2207 58.874 58.6408 60.979C59.8308 62.0142 60.7122 62.7808 60.7448 62.8422C60.8436 63.028 61.0109 63.1706 61.1165 63.1589C61.222 63.1473 61.3603 63.2353 61.4237 63.3546C61.4872 63.4739 61.7888 63.7955 62.0935 64.0697C62.3987 64.3436 62.9484 64.8499 63.315 65.1945C63.6813 65.5393 64.3958 66.1894 64.902 66.6396C65.4085 67.0897 65.9127 67.5573 66.0229 67.6786C66.1331 67.7998 66.3344 67.428 66.1308 67.0326C65.9272 66.6373 65.7083 66.2829 65.6444 66.2449C65.5805 66.2069 65.1867 65.71 64.7692 65.1407C64.352 64.5711 63.6126 63.6105 63.1265 63.0058C62.6403 62.401 61.9468 61.5344 61.5857 61.0799C60.8234 60.121 56.14 54.6318 56.14 54.6318C56.1148 54.6019 56.0797 54.5554 56.0202 54.4767C55.8094 54.1973 55.2927 53.513 53.8283 51.7308C52.7288 50.393 52.7534 49.7609 53.9044 49.767C54.0109 49.7676 54.5319 49.638 55.0624 49.4795C55.5928 49.3208 57.0114 48.9023 58.2149 48.5495C59.4188 48.1965 60.4608 47.8772 60.5305 47.8402C60.7349 47.7315 60.5107 47.4407 59.7021 46.7647C58.7299 45.9521 51.4548 39.6387 50.0839 38.4184C49.8001 38.1655 46.2909 35.1585 44.809 33.8985C44.0802 33.2788 43.3261 32.6203 43.1328 32.4354C42.9394 32.2504 42.4631 31.8294 42.0743 31.4996C41.6855 31.1697 41.3707 30.828 41.3752 30.7399C41.3754 30.7357 41.3755 30.7316 41.3756 30.7276C41.3763 30.7086 41.3769 30.6916 41.384 30.6745C41.4414 30.5351 41.927 30.3852 46.3705 29.0134L46.3706 29.0133L46.7259 28.9036C48.9639 28.2127 50.8479 27.585 50.9127 27.509L50.9191 27.5015C50.9463 27.4694 50.9685 27.4432 50.98 27.4171C51.0313 27.3009 50.8709 27.1855 49.9964 26.5567L49.9486 26.5224Z" fill="white"/>
</svg>
