<svg width="24" height="24" viewBox="0 0 24 24" fill="none" xmlns="http://www.w3.org/2000/svg">
<g clip-path="url(#clip0_13275_62918)">
<circle cx="12" cy="12" r="12" fill="#272A48"/>
<path d="M12.0304 4.20882V4.21657C12.0381 4.25536 12.0381 4.30189 12.0381 4.34843V9.94087C12.0304 9.9719 12.0071 9.97966 11.9839 9.99517C11.821 10.0727 11.6658 10.1425 11.5029 10.2124C11.278 10.3132 11.0453 10.4218 10.8204 10.5226L10.0059 10.8949C9.78101 10.9958 9.55607 11.0966 9.33889 11.1974C9.07516 11.3215 8.80369 11.4379 8.53997 11.562C8.31503 11.6628 8.09009 11.7714 7.85739 11.8722C7.67124 11.9576 7.48508 12.0351 7.30668 12.1205C7.29117 12.1282 7.27565 12.136 7.26014 12.136C7.25239 12.136 7.25239 12.136 7.24463 12.1282L7.45405 11.7792C7.85739 11.1121 8.25297 10.4528 8.65631 9.78574C9.08292 9.07214 9.51728 8.35855 9.94389 7.64495C10.3395 6.98565 10.7428 6.32634 11.1384 5.66704C11.4254 5.18614 11.7201 4.70523 12.0071 4.22433C12.0149 4.20882 12.0226 4.20106 12.0226 4.18555H12.0304C12.0226 4.1933 12.0304 4.20106 12.0304 4.20882Z" fill="#8A92B2"/>
<path d="M16.7927 12.1261L16.8004 12.1338L15.6602 12.8087L12.0767 14.9262C12.0612 14.9339 12.0457 14.9417 12.0379 14.9494C12.0146 14.9494 12.0146 14.9262 12.0146 14.9184V14.8486V10.0551C12.0146 10.0318 12.0146 10.0008 12.0224 9.97753C12.0302 9.9465 12.0534 9.95426 12.0767 9.96202C12.1775 10.0086 12.2861 10.0551 12.387 10.1016C12.6895 10.2412 12.992 10.3809 13.2945 10.5127C13.5582 10.6291 13.8142 10.7532 14.0779 10.8695C14.3416 10.9859 14.6053 11.11 14.869 11.2263C15.094 11.3272 15.3267 11.4358 15.5516 11.5366C15.7766 11.6374 16.0092 11.746 16.2342 11.8468C16.4126 11.9244 16.591 12.0097 16.7694 12.0873C16.7694 12.1106 16.7771 12.1183 16.7927 12.1261Z" fill="#454A75"/>
<path d="M12.0299 19.768C12.0299 19.7757 12.0221 19.7835 12.0221 19.7912H12.0144C12.0144 19.7757 11.9989 19.768 11.9911 19.7525C11.5102 19.0776 11.0293 18.3951 10.5484 17.7203C10.0598 17.0299 9.56334 16.3318 9.07468 15.6415C8.60153 14.9745 8.12063 14.2996 7.64748 13.6326C7.52337 13.4542 7.39927 13.2835 7.27517 13.1051C7.26741 13.0896 7.25965 13.0819 7.24414 13.0586C7.26741 13.0586 7.28292 13.0741 7.29068 13.0819C7.9655 13.4774 8.63255 13.873 9.30737 14.2686C10.083 14.7262 10.8509 15.1839 11.6266 15.6415L12.0221 15.8742C12.0377 15.8897 12.0377 15.9052 12.0377 15.9207V19.6594C12.0377 19.6982 12.0377 19.7369 12.0299 19.768Z" fill="#8A92B2"/>
<path d="M7.23633 12.1424V12.1347C7.48454 12.0261 7.72499 11.9097 7.9732 11.8011C8.29121 11.6538 8.60923 11.5141 8.92725 11.3668C9.1677 11.2582 9.4159 11.1418 9.65636 11.0332C10.0132 10.8703 10.3622 10.7152 10.719 10.5523C10.9594 10.4437 11.1999 10.3351 11.4481 10.2188C11.6188 10.1412 11.7972 10.0637 11.9678 9.9861C11.9833 9.97835 12.0066 9.97059 12.0143 9.95508C12.0221 9.95508 12.0221 9.96283 12.0143 9.97059V14.896C12.0143 14.9192 12.0066 14.9425 12.0221 14.958C12.0066 14.9813 11.9911 14.958 11.9833 14.9503C11.9135 14.9115 11.8437 14.8727 11.7739 14.8262C10.2769 13.9419 8.77212 13.0499 7.27511 12.1657C7.26735 12.1579 7.25184 12.1502 7.23633 12.1424Z" fill="#62688F"/>
<path d="M16.7772 13.0586H16.785C16.785 13.0741 16.7694 13.0896 16.7617 13.1051C15.3345 15.1141 13.9073 17.1308 12.4801 19.1397C12.3327 19.3491 12.1776 19.5585 12.0302 19.768C12.0225 19.7602 12.0225 19.7525 12.0225 19.7447V19.6982V15.9363V15.8664C12.3482 15.6725 12.6663 15.4864 12.992 15.2925C14.2486 14.5478 15.5051 13.811 16.7539 13.0664C16.7617 13.0741 16.7694 13.0664 16.7772 13.0586Z" fill="#62688F"/>
<path d="M12.0223 9.97212V9.95661V9.91007V4.27885C12.0223 4.25558 12.0146 4.24007 12.0301 4.2168C13.6047 6.83074 15.1792 9.43692 16.7461 12.0509C16.7616 12.0741 16.7848 12.1052 16.7926 12.1362C16.684 12.0974 16.5832 12.0431 16.4823 11.9966C16.3582 11.9423 16.2264 11.8802 16.1023 11.8259C16.0247 11.7871 15.9394 11.7561 15.8618 11.7173C15.73 11.6553 15.5981 11.601 15.4662 11.5389C15.3887 11.5079 15.3111 11.4691 15.2335 11.4303L14.7216 11.1977C14.6363 11.1589 14.551 11.1201 14.4579 11.0813L14.0856 10.9184C14.008 10.8874 13.9304 10.8486 13.8529 10.8098L13.341 10.5771C13.2556 10.5383 13.1703 10.4996 13.0772 10.4608L12.7049 10.2979C12.6196 10.2591 12.542 10.2203 12.4567 10.1815C12.3093 10.1117 12.162 10.0419 12.0068 9.97988C12.0301 9.97212 12.0223 9.97212 12.0223 9.97212Z" fill="#62688F"/>
</g>
<defs>
<clipPath id="clip0_13275_62918">
<rect width="24" height="24" fill="white"/>
</clipPath>
</defs>
</svg>
