<svg width="57" height="57" viewBox="0 0 57 57" fill="none" xmlns="http://www.w3.org/2000/svg">
<path d="M56.1043 35.4372C52.2979 50.7053 36.8339 59.9971 21.5641 56.1897C6.30067 52.3833 -2.99114 36.9183 0.816912 21.6516C4.62162 6.38191 20.0856 -2.91059 35.3507 0.895786C50.6194 4.70217 59.9107 20.1688 56.1039 35.4375L56.1042 35.4372H56.1043Z" fill="#F7931A"/>
<path d="M41.0672 24.4421C41.6344 20.6494 38.7469 18.6106 34.7985 17.2506L36.0794 12.113L32.952 11.3337L31.705 16.3361C30.8829 16.131 30.0385 15.9378 29.1994 15.7462L30.4553 10.7109L27.3299 9.93164L26.0483 15.0676C25.3679 14.9126 24.6996 14.7595 24.0513 14.5982L24.0549 14.5821L19.7422 13.5051L18.9103 16.8454C18.9103 16.8454 21.2305 17.3772 21.1816 17.41C22.4481 17.7261 22.6771 18.5644 22.639 19.2289L21.18 25.0818C21.2672 25.1039 21.3803 25.136 21.5051 25.1861C21.4008 25.1602 21.2897 25.1319 21.1745 25.1044L19.1294 33.3035C18.9746 33.6882 18.5818 34.2656 17.6963 34.0464C17.7277 34.0918 15.4233 33.4791 15.4233 33.4791L13.8706 37.059L17.9404 38.0736C18.6975 38.2634 19.4395 38.4621 20.1701 38.6489L18.876 43.8454L21.9998 44.6247L23.2814 39.4833C24.1348 39.715 24.9629 39.9287 25.7737 40.1301L24.4964 45.2472L27.6239 46.0265L28.918 40.8397C34.2508 41.849 38.2607 41.4421 39.9486 36.6185C41.3086 32.735 39.8809 30.4949 37.0753 29.0342C39.1187 28.5629 40.6579 27.2189 41.0683 24.4425L41.0673 24.4418L41.0672 24.4421ZM33.9218 34.4618C32.9553 38.3453 26.4166 36.246 24.2966 35.7196L26.014 28.8351C28.1338 29.3643 34.9319 30.4116 33.9219 34.4618H33.9218ZM34.889 24.3858C34.0073 27.9183 28.5651 26.1237 26.7997 25.6836L28.3567 19.4398C30.1221 19.8799 35.8074 20.7012 34.8893 24.3858H34.889Z" fill="black"/>
</svg>
