<svg width="23" height="17" viewBox="0 0 23 17" fill="none" xmlns="http://www.w3.org/2000/svg">
<path d="M21.0833 0H1.91667C0.860067 0 0 0.847141 0 1.88889V15.1111C0 16.1529 0.860067 17 1.91667 17H21.0833C22.1399 17 23 16.1529 23 15.1111V1.88889C23 0.847141 22.1399 0 21.0833 0Z" fill="#2F343A" fill-opacity="0.1566"/>
<path d="M22.0418 15.111C22.0418 15.6316 21.6123 16.0554 21.0835 16.0554H1.91683C1.38806 16.0554 0.958496 15.6316 0.958496 15.111V1.88878C0.958496 1.36814 1.38806 0.944336 1.91683 0.944336H21.0835C21.6123 0.944336 22.0418 1.36814 22.0418 1.88878V15.111Z" fill="#F17D15"/>
<path d="M11.4756 6.99756L11.2139 8.03204C11.5107 8.10496 12.4258 8.40241 12.574 7.81703C12.7283 7.20652 11.7724 7.07048 11.4756 6.99756Z" fill="white"/>
<path d="M12.6587 3.91936C10.0919 3.28874 7.49179 4.82836 6.85206 7.35819C6.21163 9.8878 7.77401 12.4499 10.3405 13.0807C12.908 13.7114 15.5082 12.172 16.1483 9.64241C16.7883 7.11251 15.2261 4.55011 12.6587 3.91936ZM13.6129 7.82655C13.5439 8.28655 13.2851 8.50918 12.9416 8.58729C13.4133 8.82933 13.6535 9.20056 13.4248 9.84399C13.1409 10.6432 12.4667 10.7106 11.5702 10.5433L11.3525 11.4027L10.8268 11.2736L11.0415 10.4257C10.9052 10.3924 10.766 10.357 10.6226 10.3187L10.407 11.1704L9.88177 11.0413L10.0994 10.1803C9.97671 10.1493 9.85182 10.1164 9.7246 10.0849L9.04042 9.91691L9.30141 9.32381C9.30141 9.32381 9.68875 9.4252 9.68348 9.41771C9.83235 9.45403 9.89844 9.35834 9.92447 9.2947L10.2684 7.93619C10.2877 7.94069 10.3064 7.94542 10.324 7.94974C10.3029 7.94138 10.2839 7.93619 10.2693 7.93245L10.5145 6.96264C10.5209 6.85254 10.4825 6.71367 10.2696 6.66133C10.2778 6.65585 9.88762 6.56783 9.88762 6.56783L10.0276 6.01433L10.7527 6.19274L10.7521 6.19545C10.861 6.22214 10.9734 6.2475 11.0878 6.27315L11.3034 5.42221L11.8287 5.55133L11.6176 6.38568C11.7587 6.41738 11.9007 6.44937 12.0388 6.48338L12.2485 5.65452L12.7744 5.78358L12.559 6.63499C13.2228 6.8602 13.7084 7.19811 13.6129 7.82655Z" fill="white"/>
<path d="M11.0823 8.55444L10.7935 9.69499C11.15 9.78233 12.2493 10.1302 12.4117 9.48661C12.5816 8.81557 11.4386 8.64206 11.0823 8.55444Z" fill="white"/>
<path opacity="0.1" d="M21.0835 0.944336H20.6043V13.6943C20.6043 14.215 20.1743 14.6388 19.646 14.6388H0.958496V15.111C0.958496 15.6316 1.38853 16.0554 1.91683 16.0554H21.0835C21.6118 16.0554 22.0418 15.6316 22.0418 15.111V1.88878C22.0418 1.36814 21.6118 0.944336 21.0835 0.944336Z" fill="#010101"/>
</svg>
