<svg width="38" height="38" viewBox="0 0 38 38" fill="none" xmlns="http://www.w3.org/2000/svg">
<g clip-path="url(#clip0_12102_61018)">
<path d="M38 19C38 22.7578 36.8857 26.4313 34.7979 29.5558C32.7102 32.6804 29.7428 35.1157 26.271 36.5537C22.7992 37.9918 18.9789 38.368 15.2933 37.6349C11.6077 36.9018 8.22218 35.0922 5.56498 32.435C2.90778 29.7778 1.09821 26.3924 0.365088 22.7067C-0.368031 19.0211 0.00823233 15.2008 1.4463 11.729C2.88436 8.25722 5.31964 5.28982 8.44418 3.20208C11.5687 1.11433 15.2422 0 19 0C24.0391 0 28.8718 2.00178 32.435 5.56497C35.9982 9.12816 38 13.9609 38 19V19Z" fill="#F7931A"/>
<path fill-rule="evenodd" clip-rule="evenodd" d="M13.5039 8.6753L17.8704 9.84467L18.8463 6.20703L21.0296 6.79949L20.0917 10.2869L21.8725 10.7653L22.8122 7.23994L25.0334 7.83412L24.0765 11.3785C24.0765 11.3785 27.7038 12.1817 28.5571 15.1319C29.4103 18.082 26.6813 19.6314 25.8383 19.6901C25.8383 19.6901 29.0165 21.4329 27.9249 24.8616C26.8333 28.2902 23.4823 28.9034 19.957 28.1175L19.0001 31.7931L16.7788 31.1989L17.7547 27.5803L15.9929 27.1001L15.017 30.7447L12.813 30.1522L13.7906 26.5249L9.30835 25.3159L10.438 22.8079C10.438 22.8079 11.7023 23.1533 12.1808 23.2673C12.6593 23.3813 12.9667 22.8839 13.1014 22.3864C13.2362 21.8889 15.2657 13.6447 15.4574 12.9659C15.6492 12.287 15.5714 11.7568 14.7665 11.5478C13.9616 11.3388 12.8665 11.0123 12.8665 11.0123L13.5039 8.6753ZM17.9084 19.5934L16.6993 24.4004C16.6993 24.4004 22.6947 26.5647 23.4616 23.5195C24.2285 20.4743 17.9084 19.5934 17.9084 19.5934ZM18.4646 17.3134L19.6513 12.9088C19.6513 12.9088 24.7847 13.8278 24.1525 16.2788C23.5203 18.7298 20.4942 17.7901 18.4646 17.3134Z" fill="white"/>
</g>
<defs>
<clipPath id="clip0_12102_61018">
<rect width="38" height="38" fill="white"/>
</clipPath>
</defs>
</svg>
