<svg width="9" height="16" viewBox="0 0 9 16" fill="none" xmlns="http://www.w3.org/2000/svg">
<path d="M2.94231 0V2.21563H0V13.8437H2.94231V16H4.76923V13.8369C6.11534 13.8182 7.15888 13.5373 7.88187 12.9812C8.62736 12.4064 9 11.5541 9 10.4256C9 10.144 8.96593 9.86708 8.89561 9.59954C8.82387 9.33084 8.71101 9.0801 8.55769 8.85111C8.40437 8.62213 8.20092 8.42279 7.95055 8.24872C7.70018 8.07698 7.39574 7.94609 7.03846 7.86081C7.34651 7.74866 7.61024 7.60702 7.82967 7.43411C8.05191 7.26238 8.23558 7.06833 8.38187 6.85454C8.52534 6.64074 8.63169 6.41305 8.6978 6.16771C8.76673 5.92237 8.79945 5.66851 8.79945 5.40331C8.79945 4.86006 8.6984 4.38814 8.49725 3.98859C8.2933 3.58904 7.99938 3.25893 7.61538 2.99373C7.23138 2.73086 6.76299 2.53464 6.20879 2.4073C5.77697 2.308 5.28686 2.25836 4.76923 2.23617V0H2.94231ZM2.82692 4.17114H4.32692C4.90363 4.17114 5.31952 4.2867 5.57692 4.51569C5.83433 4.74467 5.96154 5.12285 5.96154 5.64974C5.96154 6.11823 5.82367 6.47351 5.5522 6.71535C5.27932 6.95835 4.86215 7.08043 4.2967 7.08043H2.82692V4.17114ZM2.82692 8.7895H4.73077C5.25684 8.7895 5.63222 8.93337 5.85165 9.22077C6.07389 9.50816 6.18407 9.89826 6.18407 10.3936C6.18266 10.6109 6.15382 10.8104 6.09615 10.9914C6.03848 11.1725 5.94796 11.3317 5.82418 11.4683C5.69758 11.6027 5.53892 11.7085 5.34341 11.7832C5.14648 11.8568 4.91031 11.895 4.63462 11.895H2.82692V8.7895Z" fill="#88A1AC"/>
</svg>
