<svg width="112" height="14" viewBox="0 0 112 14" fill="none" xmlns="http://www.w3.org/2000/svg">
<path d="M1.94278 13.1388V0H4.86695L11.7368 9.01288V0H14.8612V13.1388H16.804V14H11.7368L5.06724 5.22747V14H0V13.1388H1.94278Z" fill="black"/>
<path d="M23.8761 13.1388V14H17.3067V13.1388H19.0291V0H22.1536V13.1388H23.8761Z" fill="black"/>
<path d="M26.3163 13.1388V0H29.2405L36.1103 9.01288V0H39.2348V13.1388H41.1776V14H36.1103L29.4408 5.22747V14H24.3735V13.1388H26.3163Z" fill="black"/>
<path d="M52.8161 13.1388V14H41.6802V13.1388H44.0636C43.4094 12.845 42.7885 12.391 42.201 11.7768L43.8233 9.47353C44.6645 10.3815 45.5457 10.8355 46.4671 10.8355C46.9077 10.8355 47.2815 10.6619 47.5887 10.3147C47.9091 9.96757 48.0693 9.46018 48.0693 8.79256V2.68383H43.9234V0H51.2138V8.73247C51.2138 10.8555 50.4928 12.3243 49.0507 13.1388H52.8161Z" fill="black"/>
<path d="M70.4889 13.1388V14H65.2214L63.9196 10.9757H58.0512L56.7493 14H51.4818V13.1388H53.7851L59.4732 0H62.4975L68.1656 13.1388H70.4889ZM60.9954 4.16595L59.2329 8.23176H62.7379L60.9954 4.16595Z" fill="black"/>
<path d="M82.723 13.1388V14H68.9434V13.1388H70.8861V0H75.8332C77.9829 0 79.5452 0.420601 80.5199 1.2618C81.508 2.08965 82.002 3.37148 82.002 5.1073C82.002 6.82976 81.4946 8.09156 80.4798 8.8927C79.4784 9.69385 77.9429 10.0944 75.8733 10.0944H74.0106V13.1388H82.723ZM76.1136 7.39056C77.1551 7.39056 77.8628 7.1836 78.2366 6.76967C78.6105 6.34239 78.7974 5.72818 78.7974 4.92704C78.7974 4.11254 78.5504 3.53839 78.0564 3.20458C77.5757 2.85742 76.8213 2.68383 75.7931 2.68383H74.0106V7.39056H76.1136Z" fill="black"/>
<path d="M100.398 13.1388V14H95.1302L93.8283 10.9757H87.96L86.6581 14H81.3906V13.1388H83.6939L89.382 0H92.4063L98.0744 13.1388H100.398ZM90.9042 4.16595L89.1417 8.23176H92.6467L90.9042 4.16595Z" fill="black"/>
<path d="M111.45 13.1388V14H99.0725V13.1388H103.699V8.4721L98.8522 0H102.237L105.261 5.20744L108.286 0H111.67L106.824 8.4721V13.1388H111.45Z" fill="black"/>
</svg>
