<svg width="37" height="37" viewBox="0 0 37 37" fill="none" xmlns="http://www.w3.org/2000/svg">
<path fill-rule="evenodd" clip-rule="evenodd" d="M18.5 37C28.7173 37 37 28.7173 37 18.5C37 8.28273 28.7173 0 18.5 0C8.28273 0 0 8.28273 0 18.5C0 28.7173 8.28273 37 18.5 37Z" fill="#21728D"/>
<path d="M23.1411 20.3579C23.3473 20.3579 23.5241 20.2842 23.6714 20.1369C23.8187 19.9896 23.8924 19.8128 23.8924 19.6066C23.8924 19.4004 23.8187 19.2236 23.6714 19.0763C23.5241 18.929 23.3473 18.8553 23.1411 18.8553C22.9348 18.8553 22.7581 18.929 22.6107 19.0763C22.4634 19.2236 22.3898 19.4004 22.3898 19.6066C22.3898 19.8128 22.4634 19.9896 22.6107 20.1369C22.7581 20.2842 22.9348 20.3579 23.1411 20.3579ZM26.4998 19.7834C25.5828 20.7004 24.6492 21.3541 23.699 21.7445C22.7562 22.1349 21.6274 22.3319 20.3127 22.3356C19.7197 22.3319 19.0365 22.2969 18.2631 22.2306L16.059 24.2138C15.9927 24.2654 15.9153 24.2838 15.8269 24.2691L12.4682 23.3852C12.4277 23.3742 12.3908 23.3521 12.3577 23.3189C12.3135 23.2747 12.2877 23.2158 12.2804 23.1421L12.2804 22.435C12.284 22.3356 12.3282 22.2619 12.4129 22.2141L14.4072 21.1589L14.4072 18.0543L12.4129 16.9991C12.3982 16.9918 12.3798 16.977 12.3577 16.955C12.3061 16.9034 12.2804 16.8445 12.2804 16.7782L12.2804 16.0711C12.2877 15.9385 12.3503 15.8575 12.4682 15.828L15.8269 14.9441C15.9153 14.9294 15.9927 14.9478 16.059 14.9994L18.2631 16.9826C19.0365 16.9163 19.7197 16.8813 20.3127 16.8776C21.6937 16.8813 22.828 17.0654 23.7156 17.43C24.6032 17.7946 25.5276 18.4576 26.4888 19.4188C26.5403 19.4703 26.5661 19.5329 26.5661 19.6066C26.5698 19.6766 26.5477 19.7355 26.4998 19.7834Z" fill="white"/>
</svg>
