<svg width="18" height="19" viewBox="0 0 18 19" fill="none" xmlns="http://www.w3.org/2000/svg">
<path d="M0 9.5C0 4.527 4.027 0.5 9 0.5C13.971 0.5 17.998 4.527 18 9.5C17.998 14.471 13.971 18.498 9 18.5C4.027 18.498 0 14.471 0 9.5ZM2.116 9.5C2.124 13.299 5.199 16.374 9 16.383C12.799 16.374 15.874 13.299 15.883 9.5C15.874 5.699 12.799 2.624 9 2.615C5.199 2.624 2.124 5.699 2.116 9.5Z" fill="#88A1AC"/>
<path d="M8 13.5H5V10.5L8 13.5Z" fill="#88A1AC"/>
<path d="M9.00058 12.4994L14.0005 7.49951L11.0003 4.49929L6.00036 9.49919L9.00058 12.4994Z" fill="#88A1AC"/>
</svg>
