<svg width="48" height="44" viewBox="0 0 48 44" fill="none" xmlns="http://www.w3.org/2000/svg">
<path d="M0 4C0 1.79086 1.79086 0 4 0H44C46.2091 0 48 1.79086 48 4V40C48 42.2091 46.2091 44 44 44H4C1.79086 44 0 42.2091 0 40V4Z" fill="#899BAB" fill-opacity="0.2"/>
<path d="M0.5 4C0.5 2.067 2.067 0.5 4 0.5H44C45.933 0.5 47.5 2.067 47.5 4V40C47.5 41.933 45.933 43.5 44 43.5H4C2.067 43.5 0.5 41.933 0.5 40V4Z" stroke="black" stroke-opacity="0.1"/>
<path d="M23 14H16C15.4696 14 14.9609 14.2107 14.5858 14.5858C14.2107 14.9609 14 15.4696 14 16V30C14 30.5304 14.2107 31.0391 14.5858 31.4142C14.9609 31.7893 15.4696 32 16 32H30C30.5304 32 31.0391 31.7893 31.4142 31.4142C31.7893 31.0391 32 30.5304 32 30V23" stroke="#88A1AC" stroke-width="2" stroke-linecap="round" stroke-linejoin="round"/>
<path d="M30.5 12.5002C30.8978 12.1024 31.4374 11.8789 32 11.8789C32.5626 11.8789 33.1022 12.1024 33.5 12.5002C33.8978 12.8981 34.1213 13.4376 34.1213 14.0002C34.1213 14.5628 33.8978 15.1024 33.5 15.5002L24 25.0002L20 26.0002L21 22.0002L30.5 12.5002Z" stroke="#88A1AC" stroke-width="2" stroke-linecap="round" stroke-linejoin="round"/>
</svg>
