<svg width="27" height="28" viewBox="0 0 27 28" fill="none" xmlns="http://www.w3.org/2000/svg">
<g clip-path="url(#clip0_13920_66044)">
<path d="M27 14C27 6.54416 20.9558 0.5 13.5 0.5C6.04416 0.5 0 6.54416 0 14C0 21.4558 6.04416 27.5 13.5 27.5C20.9558 27.5 27 21.4558 27 14Z" fill="black"/>
<path d="M8.41683 21.3346V19.2721H6.5835V8.73047H8.41683V6.66797H9.79183V8.73047H11.6252V19.2721H9.79183V21.3346H8.41683ZM7.9585 17.8971H10.2502V10.1055H7.9585V17.8971ZM16.2085 21.3346V16.5221H14.3752V10.5638H16.2085V6.66797H17.5835V10.5638H19.4168V16.5221H17.5835V21.3346H16.2085ZM15.7502 15.1471H18.0418V11.9388H15.7502V15.1471Z" fill="white"/>
<path d="M7.9585 17.8971H10.2502V10.1055H7.9585V17.8971Z" fill="white"/>
<path d="M15.7502 15.1471H18.0418V11.9388H15.7502V15.1471Z" fill="white"/>
</g>
<defs>
<clipPath id="clip0_13920_66044">
<rect width="27" height="27" fill="white" transform="translate(0 0.5)"/>
</clipPath>
</defs>
</svg>
