<svg width="112" height="23" viewBox="0 0 112 23" fill="none" xmlns="http://www.w3.org/2000/svg">
<path fill-rule="evenodd" clip-rule="evenodd" d="M1.94278 0V13.1388H0V14H5.06724V5.22747L11.7368 14H16.804V13.1388H14.8612V0H11.7368V9.01288L4.86695 0H1.94278ZM23.8761 14V13.1388H22.1536V0H19.0291V13.1388H17.3067V14H23.8761ZM26.3163 13.1388V0H29.2405L36.1103 9.01288V0H39.2348V13.1388H41.1776V14H36.1103L29.4408 5.22747V14H24.3735V13.1388H26.3163ZM51.4818 13.1388H49.0507C50.4928 12.3243 51.2138 10.8555 51.2138 8.73247V0H43.9234V2.68383H48.0693V8.79256C48.0693 9.46018 47.9091 9.96757 47.5887 10.3147C47.2815 10.6619 46.9077 10.8355 46.4671 10.8355C45.5457 10.8355 44.6645 10.3815 43.8233 9.47353L42.201 11.7768C42.7885 12.391 43.4094 12.845 44.0636 13.1388H41.6802V14H51.4818H52.8161H56.7493L58.0512 10.9757H63.9196L65.2214 14H68.9434H70.4889H81.3906H82.723H86.6581L87.96 10.9757H93.8283L95.1302 14H99.0725H100.398H111.45V13.1388H106.824V8.4721L111.67 0H108.286L105.261 5.20744L102.237 0H98.8522L103.699 8.4721V13.1388H100.398H99.0725H98.0744L92.4063 0H89.382L83.6939 13.1388H82.723H81.3906H74.0106V10.0944H75.8733C77.9429 10.0944 79.4784 9.69385 80.4798 8.8927C81.4946 8.09156 82.002 6.82976 82.002 5.1073C82.002 3.37148 81.508 2.08965 80.5199 1.2618C79.5452 0.420601 77.9829 0 75.8332 0H70.8861V13.1388H70.4889H68.9434H68.1656L62.4975 0H59.4732L53.7851 13.1388H52.8161H51.4818ZM60.9954 4.16595L59.2329 8.23176H62.7379L60.9954 4.16595ZM78.2366 6.76967C77.8628 7.1836 77.1551 7.39056 76.1136 7.39056H74.0106V2.68383H75.7931C76.8213 2.68383 77.5757 2.85742 78.0564 3.20458C78.5504 3.53839 78.7974 4.11254 78.7974 4.92704C78.7974 5.72818 78.6105 6.34239 78.2366 6.76967ZM90.9042 4.16595L89.1417 8.23176H92.6467L90.9042 4.16595ZM97.6601 23.0009V22.7429H96.8921C97.2161 22.5069 97.3781 22.1729 97.3781 21.7409C97.3781 21.3929 97.2681 21.1209 97.0481 20.9249C96.8281 20.7289 96.5181 20.5829 96.1181 20.4869C95.7221 20.3869 95.4681 20.3009 95.3561 20.2289C95.2481 20.1569 95.1941 20.0609 95.1941 19.9409C95.1941 19.8169 95.2381 19.7189 95.3261 19.6469C95.4181 19.5709 95.5421 19.5329 95.6981 19.5329C96.0861 19.5329 96.4621 19.6709 96.8261 19.9469L97.3001 19.2629C97.0921 19.0869 96.8481 18.9509 96.5681 18.8549C96.2881 18.7589 96.0081 18.7109 95.7281 18.7109C95.3001 18.7109 94.9421 18.8189 94.6541 19.0349C94.3701 19.2509 94.2281 19.5589 94.2281 19.9589C94.2281 20.3549 94.3401 20.6469 94.5641 20.8349C94.7921 21.0189 95.1501 21.1689 95.6381 21.2849C95.9461 21.3609 96.1521 21.4369 96.2561 21.5129C96.3601 21.5849 96.4121 21.6849 96.4121 21.8129C96.4121 21.9369 96.3621 22.0369 96.2621 22.1129C96.1661 22.1849 96.0321 22.2209 95.8601 22.2209C95.4761 22.2209 95.0581 22.0229 94.6061 21.6269L94.0481 22.3109C94.2281 22.4869 94.4281 22.6309 94.6481 22.7429H93.8321V23.0009H97.6601ZM19.4039 23.0009V22.7429H16.7939V21.8309H17.3519C17.9719 21.8309 18.4319 21.7109 18.7319 21.4709C19.0359 21.2309 19.1879 20.8529 19.1879 20.3369C19.1879 19.8169 19.0399 19.4329 18.7439 19.1849C18.4519 18.9329 17.9839 18.8069 17.3399 18.8069H15.8579V22.7429H15.2759V23.0009H19.4039ZM18.0599 20.8349C17.9479 20.9589 17.7359 21.0209 17.4239 21.0209H16.7939V19.6109H17.3279C17.6359 19.6109 17.8619 19.6629 18.0059 19.7669C18.1539 19.8669 18.2279 20.0389 18.2279 20.2829C18.2279 20.5229 18.1719 20.7069 18.0599 20.8349ZM20.9184 18.8069V22.7429H20.3364V23.0009H24.5904V22.7429H24.0084V22.1729H21.8544V21.3029H23.7324V20.5049H21.8544V19.6409H23.9424V18.8069H20.9184ZM25.8442 22.7429V18.8069H27.4342C28.0862 18.8069 28.5502 18.9169 28.8262 19.1369C29.1062 19.3569 29.2462 19.7109 29.2462 20.1989C29.2462 20.8709 28.9802 21.3049 28.4482 21.5009L29.3242 22.7429H29.8882V23.0009H28.3582L27.4282 21.6629H26.7802V23.0009H25.2622V22.7429H25.8442ZM27.4642 20.8529C27.7842 20.8529 28.0022 20.8009 28.1182 20.6969C28.2342 20.5929 28.2922 20.4289 28.2922 20.2049C28.2922 19.9769 28.2322 19.8209 28.1122 19.7369C27.9922 19.6529 27.7822 19.6109 27.4822 19.6109H26.7802V20.8529H27.4642ZM34.7496 23.0009V22.7429H32.1396V21.8309H32.6976C33.3176 21.8309 33.7776 21.7109 34.0776 21.4709C34.3816 21.2309 34.5336 20.8529 34.5336 20.3369C34.5336 19.8169 34.3856 19.4329 34.0896 19.1849C33.7976 18.9329 33.3296 18.8069 32.6856 18.8069H31.2036V22.7429H30.6216V23.0009H34.7496ZM33.4056 20.8349C33.2936 20.9589 33.0816 21.0209 32.7696 21.0209H32.1396V19.6109H32.6736C32.9816 19.6109 33.2076 19.6629 33.3516 19.7669C33.4996 19.8669 33.5736 20.0389 33.5736 20.2829C33.5736 20.5229 33.5176 20.7069 33.4056 20.8349ZM36.2641 22.7429V18.8069H39.2881V19.6409H37.2001V20.5049H39.0781V21.3029H37.2001V22.1729H39.3541V22.7429H39.9361V23.0009H35.6821V22.7429H36.2641ZM44.3219 23.0009V22.7429H42.9659V19.6169H44.1539V18.8069H40.8419V19.6169H42.0299V22.7429H40.6739V23.0009H44.3219ZM49.8303 22.7429V23.0009H45.3243V22.7429H46.5183C46.0263 22.4149 45.7803 21.8849 45.7803 21.1529V18.8069H46.7163V21.1229C46.7163 21.4589 46.7943 21.7249 46.9503 21.9209C47.1063 22.1129 47.3163 22.2089 47.5803 22.2089C47.8443 22.2089 48.0523 22.1129 48.2043 21.9209C48.3603 21.7249 48.4383 21.4589 48.4383 21.1229V18.8069H49.3743V21.1529C49.3743 21.8849 49.1303 22.4149 48.6423 22.7429H49.8303ZM55.9122 23.0009V22.7429H55.2162L53.5182 18.8069H52.6122L50.9082 22.7429H50.2182V23.0009H51.7962L52.1862 22.0949H53.9442L54.3342 23.0009H55.9122ZM52.5402 21.2729L53.0682 20.0549L53.5902 21.2729H52.5402ZM60.1229 22.7429V23.0009H56.2349V22.7429H56.8169V18.8069H57.7529V22.1669H59.5409V22.7429H60.1229ZM66.883 23.0009V22.7429H64.663V21.3569H66.511V20.5349H64.663V19.6289H66.607V18.8069H63.727V22.7429H63.211V23.0009H66.883ZM72.3908 22.7429V23.0009H67.8848V22.7429H69.0788C68.5868 22.4149 68.3409 21.8849 68.3409 21.1529V18.8069H69.2768V21.1229C69.2768 21.4589 69.3549 21.7249 69.5108 21.9209C69.6668 22.1129 69.8768 22.2089 70.1408 22.2089C70.4048 22.2089 70.6128 22.1129 70.7648 21.9209C70.9208 21.7249 70.9988 21.4589 70.9988 21.1229V18.8069H71.9348V21.1529C71.9348 21.8849 71.6908 22.4149 71.2029 22.7429H72.3908ZM77.0387 23.0009V22.7429H75.6827V19.6169H76.8707V18.8069H73.5587V19.6169H74.7467V22.7429H73.3907V23.0009H77.0387ZM82.5471 22.7429V23.0009H78.0411V22.7429H79.2351C78.7431 22.4149 78.4971 21.8849 78.4971 21.1529V18.8069H79.4331V21.1229C79.4331 21.4589 79.5111 21.7249 79.6671 21.9209C79.8231 22.1129 80.0331 22.2089 80.2971 22.2089C80.5611 22.2089 80.7691 22.1129 80.9211 21.9209C81.0771 21.7249 81.1551 21.4589 81.1551 21.1229V18.8069H82.0911V21.1529C82.0911 21.8849 81.8471 22.4149 81.3591 22.7429H82.5471ZM84.063 18.8069V22.7429H83.481V23.0009H84.999V21.6629H85.647L86.577 23.0009H88.107V22.7429H87.543L86.667 21.5009C87.199 21.3049 87.465 20.8709 87.465 20.1989C87.465 19.7109 87.325 19.3569 87.045 19.1369C86.769 18.9169 86.305 18.8069 85.653 18.8069H84.063ZM86.337 20.6969C86.221 20.8009 86.003 20.8529 85.683 20.8529H84.999V19.6109H85.701C86.001 19.6109 86.211 19.6529 86.331 19.7369C86.451 19.8209 86.511 19.9769 86.511 20.2049C86.511 20.4289 86.453 20.5929 86.337 20.6969ZM89.4223 22.7429V18.8069H92.4463V19.6409H90.3583V20.5049H92.2363V21.3029H90.3583V22.1729H92.5123V22.7429H93.0943V23.0009H88.8403V22.7429H89.4223Z" fill="white"/>
</svg>
