<svg width="34" height="34" viewBox="0 0 34 34" fill="none" xmlns="http://www.w3.org/2000/svg">
<g opacity="0.7" clip-path="url(#clip0_285_42442)">
<path d="M25.6425 17.2067C25.6425 16.5949 25.5929 15.9798 25.4871 15.3779H16.998V18.8437H21.8593C21.6576 19.9614 21.0094 20.9502 20.0603 21.5786V23.8273H22.9605C24.6636 22.2598 25.6425 19.9449 25.6425 17.2067Z" fill="#4285F4"/>
<path d="M16.9982 26C19.4255 26 21.4726 25.203 22.964 23.8273L20.0638 21.5786C19.2569 22.1275 18.2152 22.4384 17.0015 22.4384C14.6535 22.4384 12.6627 20.8543 11.9484 18.7246H8.95557V21.0428C10.4834 24.0819 13.5953 26 16.9982 26Z" fill="#34A853"/>
<path d="M11.945 18.7245C11.568 17.6068 11.568 16.3964 11.945 15.2787V12.9604H8.95542C7.67892 15.5035 7.67892 18.4997 8.95542 21.0428L11.945 18.7245Z" fill="#FBBC04"/>
<path d="M16.9982 11.5618C18.2813 11.5419 19.5214 12.0247 20.4507 12.911L23.0202 10.3415C21.3932 8.81364 19.2337 7.97366 16.9982 8.00012C13.5953 8.00012 10.4834 9.91818 8.95557 12.9606L11.9451 15.2788C12.6561 13.1458 14.6502 11.5618 16.9982 11.5618Z" fill="#EA4335"/>
</g>
<defs>
<clipPath id="clip0_285_42442">
<rect width="17.6428" height="18" fill="white" transform="translate(8 8)"/>
</clipPath>
</defs>
</svg>
