<svg width="24" height="24" viewBox="0 0 24 24" fill="none" xmlns="http://www.w3.org/2000/svg">
<path d="M21 18.5C21 19.881 19.881 21 18.5 21H5.5C4.1195 21 3 19.881 3 18.5V5.5C3 4.119 4.1195 3 5.5 3H18.5C19.881 3 21 4.119 21 5.5V18.5Z" fill="#CFD8DC"/>
<path d="M18.5011 3H13.2326L6.57812 21H18.5011C19.8821 21 21.0011 19.881 21.0011 18.5V5.5C21.0011 4.119 19.8821 3 18.5011 3Z" fill="#536DFE"/>
<path d="M12.1702 11.9337V13.6162H11.6367V9.46121H13.0522C13.3937 9.45421 13.7237 9.58371 13.9687 9.82071C14.2167 10.0442 14.3567 10.3637 14.3517 10.6977C14.3587 11.0332 14.2192 11.3557 13.9687 11.5797C13.7212 11.8157 13.4157 11.9337 13.0522 11.9332L12.1702 11.9337ZM12.1702 9.97271V11.4232H13.0652C13.2637 11.4292 13.4552 11.3512 13.5932 11.2082C13.8737 10.9357 13.8797 10.4872 13.6072 10.2067C13.6027 10.2017 13.5977 10.1972 13.5932 10.1927C13.4567 10.0467 13.2647 9.96671 13.0652 9.97221L12.1702 9.97271Z" fill="#FAFAFA"/>
<path d="M15.582 10.6816C15.9765 10.6816 16.288 10.7871 16.516 10.9981C16.744 11.2091 16.8585 11.4981 16.858 11.8651V13.6171H16.3475V13.2226H16.3245C16.1035 13.5476 15.8095 13.7101 15.4425 13.7101C15.1295 13.7101 14.8675 13.6171 14.6565 13.4316C14.4515 13.2591 14.3355 13.0031 14.34 12.7356C14.34 12.4416 14.451 12.2076 14.6735 12.0336C14.896 11.8601 15.1925 11.7726 15.564 11.7726C15.881 11.7726 16.142 11.8306 16.347 11.9466V11.8246C16.348 11.6421 16.2675 11.4686 16.1265 11.3521C15.9855 11.2246 15.8015 11.1551 15.6115 11.1576C15.3135 11.1576 15.0775 11.2836 14.9035 11.5351L14.4335 11.2391C14.6925 10.8676 15.075 10.6816 15.582 10.6816ZM14.8915 12.7471C14.891 12.8851 14.9565 13.0146 15.0685 13.0951C15.1865 13.1881 15.333 13.2371 15.483 13.2341C15.708 13.2336 15.924 13.1441 16.0835 12.9846C16.2605 12.8181 16.3485 12.6231 16.3485 12.3986C16.182 12.2661 15.95 12.1996 15.6525 12.1996C15.4355 12.1996 15.255 12.2521 15.11 12.3566C14.964 12.4631 14.8915 12.5921 14.8915 12.7471Z" fill="#FAFAFA"/>
<path d="M19.7888 10.7734L18.0068 14.8694H17.4558L18.1173 13.4364L16.9453 10.7739H17.5253L18.3723 12.8159H18.3838L19.2078 10.7739H19.7888V10.7734Z" fill="#FAFAFA"/>
<path d="M8.63184 11.5714C8.63184 11.4089 8.61834 11.2464 8.59084 11.0859H6.33984V12.0054H7.62884C7.57534 12.3019 7.40334 12.5639 7.15234 12.7309V13.3274H7.92184C8.37234 12.9119 8.63184 12.2979 8.63184 11.5714Z" fill="#4285F4"/>
<path d="M6.33953 13.9041C6.98353 13.9041 7.52603 13.6926 7.92153 13.3281L7.15203 12.7316C6.93803 12.8766 6.66203 12.9596 6.33953 12.9596C5.71703 12.9596 5.18853 12.5401 4.99953 11.9746H4.20703V12.5896C4.61203 13.3951 5.43753 13.9041 6.33953 13.9041Z" fill="#34A853"/>
<path d="M4.99988 11.9738C4.89988 11.6773 4.89988 11.3563 4.99988 11.0603V10.4453H4.20737C3.86838 11.1198 3.86838 11.9143 4.20737 12.5888L4.99988 11.9738Z" fill="#FBBC04"/>
<path d="M6.34003 10.0755C6.68053 10.07 7.00953 10.1985 7.25553 10.4335L7.93653 9.75252C7.50453 9.34702 6.93203 9.12402 6.33953 9.13102C5.43703 9.13102 4.61203 9.64002 4.20703 10.446L4.99953 11.061C5.18903 10.4955 5.71753 10.0755 6.34003 10.0755Z" fill="#EA4335"/>
</svg>
