<svg width="15" height="18" viewBox="0 0 15 18" fill="none" xmlns="http://www.w3.org/2000/svg">
<path d="M7.23681 3.98504C8.01644 3.98504 8.99373 3.45796 9.57571 2.75519C10.1028 2.11831 10.4871 1.22887 10.4871 0.339427C10.4871 0.218639 10.4761 0.0978502 10.4542 -0.000976562C9.58669 0.0319657 8.54352 0.581004 7.91761 1.31671C7.42348 1.87673 6.97327 2.75519 6.97327 3.65561C6.97327 3.78738 6.99523 3.91915 7.00621 3.96308C7.06111 3.97406 7.14896 3.98504 7.23681 3.98504ZM4.49162 17.2717C5.55675 17.2717 6.02892 16.558 7.35759 16.558C8.70823 16.558 9.00471 17.2498 10.1906 17.2498C11.3546 17.2498 12.1342 16.1737 12.8699 15.1195C13.6935 13.9116 14.0339 12.7257 14.0559 12.6708C13.979 12.6489 11.7499 11.7374 11.7499 9.17893C11.7499 6.96082 13.5068 5.96157 13.6056 5.88471C12.4417 4.21563 10.6738 4.17171 10.1906 4.17171C8.88392 4.17171 7.81879 4.96232 7.14896 4.96232C6.42423 4.96232 5.4689 4.21563 4.33789 4.21563C2.18566 4.21563 0.000488281 5.99451 0.000488281 9.35462C0.000488281 11.441 0.813064 13.6481 1.81231 15.0756C2.66881 16.2835 3.4155 17.2717 4.49162 17.2717Z" fill="black"/>
</svg>
