<svg width="17" height="17" viewBox="0 0 17 17" fill="none" xmlns="http://www.w3.org/2000/svg">
<path d="M1 14.75H4.75C5.08152 14.75 5.39946 14.6183 5.63388 14.3839C5.8683 14.1495 6 13.8315 6 13.5C6 13.1685 5.8683 12.8505 5.63388 12.6161C5.39946 12.3817 5.08152 12.25 4.75 12.25H2.25C1.91848 12.25 1.60054 12.1183 1.36612 11.8839C1.1317 11.6495 1 11.3315 1 11C1 10.6685 1.1317 10.3505 1.36612 10.1161C1.60054 9.8817 1.91848 9.75 2.25 9.75H6M3.5 16V8.5M3.5 6C3.5 5.66848 3.6317 5.35054 3.86612 5.11612C4.10054 4.8817 4.41848 4.75 4.75 4.75H8.5M8.5 4.75L7.25 3.5M8.5 4.75L7.25 6M13.5 11C13.5 11.3315 13.3683 11.6495 13.1339 11.8839C12.8995 12.1183 12.5815 12.25 12.25 12.25H8.5M8.5 12.25L9.75 13.5M8.5 12.25L9.75 11M11 2.25H14.75C15.0815 2.25 15.3995 2.3817 15.6339 2.61612C15.8683 2.85054 16 3.16848 16 3.5C16 3.83152 15.8683 4.14946 15.6339 4.38388C15.3995 4.6183 15.0815 4.75 14.75 4.75M14.75 4.75H13.5M14.75 4.75C15.0815 4.75 15.3995 4.8817 15.6339 5.11612C15.8683 5.35054 16 5.66848 16 6C16 6.33152 15.8683 6.64946 15.6339 6.88388C15.3995 7.1183 15.0815 7.25 14.75 7.25H11M14.75 4.75H12.25M13.5 1V8.5" stroke="#88A1AC" stroke-width="1.4" stroke-linecap="round" stroke-linejoin="round"/>
</svg>
