<svg width="20" height="21" viewBox="0 0 20 21" fill="none" xmlns="http://www.w3.org/2000/svg">
<path d="M18.535 13.6C18.8325 13.2124 18.9957 12.7386 19 12.25C18.9987 11.7858 18.8538 11.3334 18.5853 10.9547C18.3168 10.5761 17.9377 10.2897 17.5 10.135V8.5H16V10H15.25V8.5H13.75V10H12.25V11.5H13V17.5H12.25V19H13.75V20.5H15.25V19H16V20.5H17.5V18.895C18.0438 18.7505 18.5359 18.4559 18.9202 18.045C19.3046 17.6341 19.5656 17.1234 19.6736 16.5712C19.7815 16.019 19.732 15.4476 19.5306 14.9222C19.3293 14.3968 18.9843 13.9387 18.535 13.6ZM16.75 11.5C16.9489 11.5 17.1397 11.579 17.2803 11.7197C17.421 11.8603 17.5 12.0511 17.5 12.25C17.5 12.4489 17.421 12.6397 17.2803 12.7803C17.1397 12.921 16.9489 13 16.75 13H14.5V11.5H16.75ZM16.75 17.5H14.5V14.5H16.75C17.1478 14.5 17.5294 14.658 17.8107 14.9393C18.092 15.2206 18.25 15.6022 18.25 16C18.25 16.3978 18.092 16.7794 17.8107 17.0607C17.5294 17.342 17.1478 17.5 16.75 17.5ZM1 7H6.25C6.44891 7 6.63968 6.92098 6.78033 6.78033C6.92098 6.63968 7 6.44891 7 6.25V1C7 0.801088 6.92098 0.610322 6.78033 0.46967C6.63968 0.329018 6.44891 0.25 6.25 0.25H1C0.801088 0.25 0.610322 0.329018 0.46967 0.46967C0.329018 0.610322 0.25 0.801088 0.25 1V6.25C0.25 6.44891 0.329018 6.63968 0.46967 6.78033C0.610322 6.92098 0.801088 7 1 7ZM1.75 1.75H5.5V5.5H1.75V1.75ZM4.75 3.25V4C4.75 4.19891 4.67098 4.38968 4.53033 4.53033C4.38968 4.67098 4.19891 4.75 4 4.75H3.25C3.05109 4.75 2.86032 4.67098 2.71967 4.53033C2.57902 4.38968 2.5 4.19891 2.5 4V3.25C2.5 3.05109 2.57902 2.86032 2.71967 2.71967C2.86032 2.57902 3.05109 2.5 3.25 2.5H4C4.19891 2.5 4.38968 2.57902 4.53033 2.71967C4.67098 2.86032 4.75 3.05109 4.75 3.25ZM0.25 10V9.25C0.25 9.05109 0.329018 8.86032 0.46967 8.71967C0.610322 8.57902 0.801088 8.5 1 8.5H1.75C1.94891 8.5 2.13968 8.57902 2.28033 8.71967C2.42098 8.86032 2.5 9.05109 2.5 9.25V10H3.25C3.44891 10 3.63968 10.079 3.78033 10.2197C3.92098 10.3603 4 10.5511 4 10.75V11.5C4 11.6989 3.92098 11.8897 3.78033 12.0303C3.63968 12.171 3.44891 12.25 3.25 12.25H2.5C2.30109 12.25 2.11032 12.171 1.96967 12.0303C1.82902 11.8897 1.75 11.6989 1.75 11.5V10.75H1C0.801088 10.75 0.610322 10.671 0.46967 10.5303C0.329018 10.3897 0.25 10.1989 0.25 10ZM8.5 1.75V1C8.5 0.801088 8.57902 0.610322 8.71967 0.46967C8.86032 0.329018 9.05109 0.25 9.25 0.25H10C10.1989 0.25 10.3897 0.329018 10.5303 0.46967C10.671 0.610322 10.75 0.801088 10.75 1V1.75C10.75 1.94891 10.671 2.13968 10.5303 2.28033C10.3897 2.42098 10.1989 2.5 10 2.5H9.25C9.05109 2.5 8.86032 2.42098 8.71967 2.28033C8.57902 2.13968 8.5 1.94891 8.5 1.75ZM8.5 6.25V5.5C8.5 5.30109 8.57902 5.11032 8.71967 4.96967C8.86032 4.82902 9.05109 4.75 9.25 4.75H10C10.1989 4.75 10.3897 4.82902 10.5303 4.96967C10.671 5.11032 10.75 5.30109 10.75 5.5V6.25H11.5C11.6989 6.25 11.8897 6.32902 12.0303 6.46967C12.171 6.61032 12.25 6.80109 12.25 7V7.75C12.25 7.94891 12.171 8.13968 12.0303 8.28033C11.8897 8.42098 11.6989 8.5 11.5 8.5H10.75C10.5511 8.5 10.3603 8.42098 10.2197 8.28033C10.079 8.13968 10 7.94891 10 7.75V7H9.25C9.05109 7 8.86032 6.92098 8.71967 6.78033C8.57902 6.63968 8.5 6.44891 8.5 6.25ZM12.25 13C12.25 13.1989 12.171 13.3897 12.0303 13.5303C11.8897 13.671 11.6989 13.75 11.5 13.75H10.75V14.5C10.75 14.6989 10.671 14.8897 10.5303 15.0303C10.3897 15.171 10.1989 15.25 10 15.25H9.25C9.05109 15.25 8.86032 15.171 8.71967 15.0303C8.57902 14.8897 8.5 14.6989 8.5 14.5V13.75C8.5 13.5511 8.57902 13.3603 8.71967 13.2197C8.86032 13.079 9.05109 13 9.25 13H10V12.25C10 12.0511 10.079 11.8603 10.2197 11.7197C10.3603 11.579 10.5511 11.5 10.75 11.5H11.5C11.6989 11.5 11.8897 11.579 12.0303 11.7197C12.171 11.8603 12.25 12.0511 12.25 12.25V13ZM8.5 10.75C8.5 10.9489 8.42098 11.1397 8.28033 11.2803C8.13968 11.421 7.94891 11.5 7.75 11.5H5.5C5.30109 11.5 5.11032 11.421 4.96967 11.2803C4.82902 11.1397 4.75 10.9489 4.75 10.75V8.5C4.75 8.30109 4.82902 8.11032 4.96967 7.96967C5.11032 7.82902 5.30109 7.75 5.5 7.75H6.25C6.44891 7.75 6.63968 7.82902 6.78033 7.96967C6.92098 8.11032 7 8.30109 7 8.5V9.25H7.75C7.94891 9.25 8.13968 9.32902 8.28033 9.46967C8.42098 9.61032 8.5 9.80109 8.5 10V10.75ZM8.5 10V9.25C8.5 9.05109 8.57902 8.86032 8.71967 8.71967C8.86032 8.57902 9.05109 8.5 9.25 8.5H10C10.1989 8.5 10.3897 8.57902 10.5303 8.71967C10.671 8.86032 10.75 9.05109 10.75 9.25V10C10.75 10.1989 10.671 10.3897 10.5303 10.5303C10.3897 10.671 10.1989 10.75 10 10.75H9.25C9.05109 10.75 8.86032 10.671 8.71967 10.5303C8.57902 10.3897 8.5 10.1989 8.5 10ZM10.75 18.25V19C10.75 19.1989 10.671 19.3897 10.5303 19.5303C10.3897 19.671 10.1989 19.75 10 19.75H9.25C9.05109 19.75 8.86032 19.671 8.71967 19.5303C8.57902 19.3897 8.5 19.1989 8.5 19V18.25C8.5 18.0511 8.57902 17.8603 8.71967 17.7197C8.86032 17.579 9.05109 17.5 9.25 17.5H10C10.1989 17.5 10.3897 17.579 10.5303 17.7197C10.671 17.8603 10.75 18.0511 10.75 18.25ZM6.25 13H1C0.801088 13 0.610322 13.079 0.46967 13.2197C0.329018 13.3603 0.25 13.5511 0.25 13.75V19C0.25 19.1989 0.329018 19.3897 0.46967 19.5303C0.610322 19.671 0.801088 19.75 1 19.75H6.25C6.44891 19.75 6.63968 19.671 6.78033 19.5303C6.92098 19.3897 7 19.1989 7 19V13.75C7 13.5511 6.92098 13.3603 6.78033 13.2197C6.63968 13.079 6.44891 13 6.25 13ZM5.5 18.25H1.75V14.5H5.5V18.25ZM2.5 16.75V16C2.5 15.8011 2.57902 15.6103 2.71967 15.4697C2.86032 15.329 3.05109 15.25 3.25 15.25H4C4.19891 15.25 4.38968 15.329 4.53033 15.4697C4.67098 15.6103 4.75 15.8011 4.75 16V16.75C4.75 16.9489 4.67098 17.1397 4.53033 17.2803C4.38968 17.421 4.19891 17.5 4 17.5H3.25C3.05109 17.5 2.86032 17.421 2.71967 17.2803C2.57902 17.1397 2.5 16.9489 2.5 16.75ZM19 0.25H13.75C13.5511 0.25 13.3603 0.329018 13.2197 0.46967C13.079 0.610322 13 0.801088 13 1V6.25C13 6.44891 13.079 6.63968 13.2197 6.78033C13.3603 6.92098 13.5511 7 13.75 7H19C19.1989 7 19.3897 6.92098 19.5303 6.78033C19.671 6.63968 19.75 6.44891 19.75 6.25V1C19.75 0.801088 19.671 0.610322 19.5303 0.46967C19.3897 0.329018 19.1989 0.25 19 0.25ZM18.25 5.5H14.5V1.75H18.25V5.5ZM15.25 4V3.25C15.25 3.05109 15.329 2.86032 15.4697 2.71967C15.6103 2.57902 15.8011 2.5 16 2.5H16.75C16.9489 2.5 17.1397 2.57902 17.2803 2.71967C17.421 2.86032 17.5 3.05109 17.5 3.25V4C17.5 4.19891 17.421 4.38968 17.2803 4.53033C17.1397 4.67098 16.9489 4.75 16.75 4.75H16C15.8011 4.75 15.6103 4.67098 15.4697 4.53033C15.329 4.38968 15.25 4.19891 15.25 4Z" fill="#88A1AC"/>
</svg>
