<svg width="17" height="17" viewBox="0 0 17 17" fill="none" xmlns="http://www.w3.org/2000/svg">
<path d="M13.8713 3.99635L8.42922 7.15408L3.0596 4.03837L8.53502 0.900016L13.8713 3.99635Z" fill="#6D818A" stroke="#6D818A"/>
<path d="M7.22819 9.27714C7.22823 9.27714 7.2276 9.27786 7.22619 9.27929C7.22744 9.27785 7.22814 9.27714 7.22819 9.27714ZM7.07919 9.67912V15.9535L1.77502 12.8757V6.60139L7.07919 9.67912ZM1.53969 6.46484L1.53985 6.46493C1.53954 6.46484 1.53939 6.46478 1.53939 6.46477C1.53939 6.46476 1.53949 6.46478 1.53969 6.46484ZM1.6528 6.25701L1.77086 6.0209L1.77502 6.37099C1.77599 6.36946 1.77692 6.36803 1.77779 6.36676C1.77912 6.36481 1.77982 6.3639 1.77983 6.36391C1.77984 6.36393 1.77832 6.36592 1.77502 6.36949V6.30423C1.77502 6.33516 1.77137 6.35784 1.76921 6.36905C1.76897 6.37031 1.76872 6.37152 1.76848 6.37269C1.76816 6.37427 1.76783 6.37575 1.76752 6.37715C1.68248 6.46045 1.59284 6.46777 1.56721 6.46777C1.55893 6.46777 1.55256 6.46721 1.54802 6.46657L1.62919 6.30423L1.6528 6.25701Z" fill="#6D818A" stroke="#6D818A"/>
<path d="M15.1542 12.8757L9.85004 15.9535V9.72022L15.1542 6.64249V12.8757ZM15.4602 6.46493L15.4604 6.46484C15.4606 6.46478 15.4607 6.46476 15.4607 6.46477C15.4607 6.46478 15.4605 6.46484 15.4602 6.46493ZM15.452 6.46657C15.4475 6.46721 15.4411 6.46777 15.4328 6.46777C15.4069 6.46777 15.3157 6.46029 15.2298 6.37445C15.2169 6.36153 15.2072 6.3495 15.1976 6.32068C15.1963 6.31678 15.1945 6.31125 15.1927 6.30423C15.187 6.28177 15.1806 6.24396 15.185 6.19477C15.1894 6.14716 15.2043 6.09033 15.2362 6.03481L15.3473 6.25701L15.3709 6.30423L15.452 6.46657Z" fill="#6D818A" stroke="#6D818A"/>
</svg>
