<svg width="16" height="14" viewBox="0 0 16 14" fill="none" xmlns="http://www.w3.org/2000/svg">
<path fill-rule="evenodd" clip-rule="evenodd" d="M9 1.75C6.10051 1.75 3.75 4.10051 3.75 7C3.75 7.72829 3.89786 8.42011 4.1645 9.04858C4.26006 9.27382 4.23974 9.53151 4.11006 9.739L2.93675 11.6163L5.7778 11.358C5.93982 11.3433 6.10223 11.3816 6.24054 11.4673C7.04184 11.9634 7.98631 12.25 9 12.25C11.8995 12.25 14.25 9.8995 14.25 7C14.25 4.10051 11.8995 1.75 9 1.75ZM2.25 7C2.25 3.27208 5.27208 0.25 9 0.25C12.7279 0.25 15.75 3.27208 15.75 7C15.75 10.7279 12.7279 13.75 9 13.75C7.79118 13.75 6.65475 13.4316 5.6721 12.8738L1.5679 13.2469C1.28421 13.2727 1.01041 13.1356 0.861167 12.8929C0.711929 12.6503 0.713027 12.3441 0.864001 12.1025L2.63883 9.26277C2.38692 8.55462 2.25 7.7926 2.25 7Z" fill="white"/>
</svg>
