<svg width="11" height="10" viewBox="0 0 11 10" fill="none" xmlns="http://www.w3.org/2000/svg">
<path d="M5.62679 2.13304e-06C3.28764 0.00255379 1.36331 1.84268 1.25617 4.17938L0.106791 5.90313C0.00604425 6.05255 -0.0253015 6.23819 0.0207974 6.4124C0.0668962 6.58662 0.185952 6.73246 0.347416 6.8125L1.25179 7.26125V8.4375C1.25179 9.30045 1.95135 10 2.81429 10H4.37679C5.41232 10 6.25179 9.16053 6.25179 8.125V5.45188C5.76183 5.169 5.52295 4.5923 5.66938 4.04582C5.81581 3.49934 6.31103 3.11934 6.87679 3.11934C7.44255 3.11934 7.93777 3.49934 8.0842 4.04582C8.23063 4.5923 7.99175 5.169 7.50179 5.45188V8.125C7.49949 8.80342 7.27417 9.46226 6.86054 10H8.12679C8.47197 10 8.75179 9.72018 8.75179 9.375V7.43063C9.98453 6.17344 10.3425 4.29931 9.65993 2.67627C8.97735 1.05323 7.38752 -0.00173134 5.62679 2.13304e-06Z" fill="#4FBF67"/>
</svg>
