<svg width="20" height="20" viewBox="0 0 20 20" fill="none" xmlns="http://www.w3.org/2000/svg">
<path d="M13.3333 3.33203H14.9999C15.4419 3.33203 15.8659 3.50763 16.1784 3.82019C16.491 4.13275 16.6666 4.55667 16.6666 4.9987V16.6654C16.6666 17.1074 16.491 17.5313 16.1784 17.8439C15.8659 18.1564 15.4419 18.332 14.9999 18.332H4.99992C4.55789 18.332 4.13397 18.1564 3.82141 17.8439C3.50885 17.5313 3.33325 17.1074 3.33325 16.6654V4.9987C3.33325 4.55667 3.50885 4.13275 3.82141 3.82019C4.13397 3.50763 4.55789 3.33203 4.99992 3.33203H6.66659" stroke="white" stroke-width="2" stroke-linecap="round" stroke-linejoin="round"/>
<path d="M12.5001 1.66797H7.50008C7.03984 1.66797 6.66675 2.04106 6.66675 2.5013V4.16797C6.66675 4.62821 7.03984 5.0013 7.50008 5.0013H12.5001C12.9603 5.0013 13.3334 4.62821 13.3334 4.16797V2.5013C13.3334 2.04106 12.9603 1.66797 12.5001 1.66797Z" stroke="white" stroke-width="2" stroke-linecap="round" stroke-linejoin="round"/>
</svg>
