<svg width="25" height="24" viewBox="0 0 25 24" fill="none" xmlns="http://www.w3.org/2000/svg">
<path d="M21.2134 16.2886V18.9606C21.2144 19.2086 21.1636 19.4541 21.0642 19.6814C20.9648 19.9087 20.8191 20.1127 20.6363 20.2804C20.4535 20.4481 20.2377 20.5757 20.0028 20.6552C19.7678 20.7347 19.5188 20.7642 19.2718 20.7419C16.5311 20.4441 13.8985 19.5075 11.5854 18.0076C9.43347 16.6401 7.60898 14.8156 6.24153 12.6637C4.73631 10.3401 3.79958 7.6947 3.50723 4.94171C3.48497 4.69541 3.51424 4.44718 3.59318 4.21282C3.67211 3.97846 3.79898 3.7631 3.96571 3.58045C4.13243 3.39781 4.33536 3.25188 4.56157 3.15196C4.78779 3.05204 5.03233 3.00032 5.27963 3.00009H7.95158C8.38382 2.99583 8.80286 3.1489 9.13059 3.43075C9.45832 3.7126 9.67239 4.104 9.73288 4.53201C9.84566 5.38709 10.0548 6.22667 10.3563 7.03474C10.4762 7.35352 10.5021 7.69998 10.4311 8.03305C10.36 8.36612 10.195 8.67185 9.95554 8.91401L8.82442 10.0451C10.0923 12.2749 11.9385 14.1212 14.1683 15.389L15.2995 14.2579C15.5416 14.0185 15.8473 13.8534 16.1804 13.7824C16.5135 13.7114 16.8599 13.7373 17.1787 13.8571C17.9868 14.1587 18.8264 14.3678 19.6815 14.4806C20.1141 14.5416 20.5092 14.7595 20.7917 15.0929C21.0741 15.4263 21.2242 15.8518 21.2134 16.2886Z" stroke="#88A1AC" stroke-width="2" stroke-linecap="round" stroke-linejoin="round"/>
</svg>
