<svg width="42" height="42" viewBox="0 0 42 42" fill="none" xmlns="http://www.w3.org/2000/svg">
<g clip-path="url(#clip0_9501_25173)">
<path d="M12.7314 19.6219H25.1346C26.9621 19.6219 28.7147 20.3479 30.007 21.6401C31.2992 22.9323 32.0252 24.685 32.0252 26.5125C32.0252 28.34 31.2992 30.0927 30.007 31.3849C28.7147 32.6772 26.9621 33.4031 25.1346 33.4031H12.7314V7.21875H23.0674C24.7121 7.21875 26.2895 7.87213 27.4525 9.03515C28.6156 10.1982 29.2689 11.7756 29.2689 13.4203C29.2689 15.0651 28.6156 16.6425 27.4525 17.8055C26.2895 18.9685 24.7121 19.6219 23.0674 19.6219" stroke="#88A1AC" stroke-width="2" stroke-linecap="round" stroke-linejoin="round"/>
<path d="M9.9751 7.21875H12.7313" stroke="#88A1AC" stroke-width="2" stroke-linecap="round" stroke-linejoin="round"/>
<path d="M9.9751 33.4023H12.7313" stroke="#88A1AC" stroke-width="2" stroke-linecap="round" stroke-linejoin="round"/>
<path d="M16.8657 7.21836V3.08398" stroke="#88A1AC" stroke-width="2" stroke-linecap="round" stroke-linejoin="round"/>
<path d="M22.3779 7.21836V3.08398" stroke="#88A1AC" stroke-width="2" stroke-linecap="round" stroke-linejoin="round"/>
<path d="M16.8657 37.5367V33.4023" stroke="#88A1AC" stroke-width="2" stroke-linecap="round" stroke-linejoin="round"/>
<path d="M22.3779 37.5367V33.4023" stroke="#88A1AC" stroke-width="2" stroke-linecap="round" stroke-linejoin="round"/>
</g>
<defs>
<clipPath id="clip0_9501_25173">
<rect width="42" height="42" fill="white"/>
</clipPath>
</defs>
</svg>
