<svg width="20" height="18" viewBox="0 0 20 18" fill="none" xmlns="http://www.w3.org/2000/svg">
<path d="M5.26584 7.3125H15.6196C15.9886 7.31053 16.3419 7.17162 16.6028 6.9259C16.8637 6.68019 17.0112 6.34749 17.0133 6V1.5C17.0112 1.15251 16.8637 0.819814 16.6028 0.574098C16.3419 0.328382 15.9886 0.189469 15.6196 0.1875H5.26584C4.89683 0.189469 4.54354 0.328382 4.28261 0.574098C4.02168 0.819814 3.87416 1.15251 3.87207 1.5V6C3.87416 6.34749 4.02168 6.68019 4.28261 6.9259C4.54354 7.17162 4.89683 7.31053 5.26584 7.3125ZM5.06673 1.5C5.06673 1.45027 5.08771 1.40258 5.12505 1.36742C5.16239 1.33225 5.21303 1.3125 5.26584 1.3125H15.6196C15.6724 1.3125 15.723 1.33225 15.7603 1.36742C15.7977 1.40258 15.8187 1.45027 15.8187 1.5V6C15.8187 6.04973 15.7977 6.09742 15.7603 6.13258C15.723 6.16775 15.6724 6.1875 15.6196 6.1875H5.26584C5.21303 6.1875 5.16239 6.16775 5.12505 6.13258C5.08771 6.09742 5.06673 6.04973 5.06673 6V1.5Z" fill="#88A1AC"/>
<path d="M8.84961 3.75C8.84961 4.14782 9.01743 4.52936 9.31615 4.81066C9.61488 5.09196 10.02 5.25 10.4425 5.25C10.8649 5.25 11.2701 5.09196 11.5688 4.81066C11.8675 4.52936 12.0354 4.14782 12.0354 3.75C12.0354 3.35218 11.8675 2.97064 11.5688 2.68934C11.2701 2.40804 10.8649 2.25 10.4425 2.25C10.02 2.25 9.61488 2.40804 9.31615 2.68934C9.01743 2.97064 8.84961 3.35218 8.84961 3.75Z" fill="#88A1AC"/>
<path d="M15.4203 10.125C15.4182 9.77751 15.2707 9.44481 15.0098 9.1991C14.7489 8.95338 14.3956 8.81447 14.0266 8.8125H12.4337C12.0647 8.81447 11.7114 8.95338 11.4505 9.1991C11.1895 9.44481 11.042 9.77751 11.0399 10.125V13.3125C11.0399 13.485 11.0399 14.28 10.4426 14.28C9.84526 14.28 9.84526 13.485 9.84526 13.3125V10.125C9.84317 9.77751 9.69566 9.44481 9.43473 9.1991C9.1738 8.95338 8.8205 8.81447 8.45149 8.8125H6.85861C6.48961 8.81447 6.13631 8.95338 5.87538 9.1991C5.61445 9.44481 5.46693 9.77751 5.46484 10.125V13.23C5.46484 15.975 7.46391 17.8125 10.4426 17.8125C13.4213 17.8125 15.4203 15.975 15.4203 13.23V10.125ZM8.6506 11.25C8.6506 11.2997 8.62962 11.3474 8.59228 11.3826C8.55494 11.4177 8.5043 11.4375 8.45149 11.4375H6.85861C6.80581 11.4375 6.75516 11.4177 6.71782 11.3826C6.68048 11.3474 6.6595 11.2997 6.6595 11.25V10.125C6.6595 10.0753 6.68048 10.0276 6.71782 9.99242C6.75516 9.95725 6.80581 9.9375 6.85861 9.9375H8.45149C8.5043 9.9375 8.55494 9.95725 8.59228 9.99242C8.62962 10.0276 8.6506 10.0753 8.6506 10.125V11.25ZM12.2346 10.125C12.2346 10.0753 12.2556 10.0276 12.2929 9.99242C12.3302 9.95725 12.3809 9.9375 12.4337 9.9375H14.0266C14.0794 9.9375 14.13 9.95725 14.1674 9.99242C14.2047 10.0276 14.2257 10.0753 14.2257 10.125V11.25C14.2257 11.2997 14.2047 11.3474 14.1674 11.3826C14.13 11.4177 14.0794 11.4375 14.0266 11.4375H12.4337C12.3809 11.4375 12.3302 11.4177 12.2929 11.3826C12.2556 11.3474 12.2346 11.2997 12.2346 11.25V10.125Z" fill="#88A1AC"/>
</svg>
