<svg width="12" height="12" viewBox="0 0 12 12" fill="none" xmlns="http://www.w3.org/2000/svg">
<path d="M1.25308 10.6953C1.19198 10.6957 1.13141 10.6839 1.07484 10.6608C1.01827 10.6377 0.966819 10.6037 0.923436 10.5607C0.869087 10.5071 0.828791 10.4409 0.806116 10.368C0.78344 10.2951 0.779085 10.2178 0.793434 10.1428L1.37844 6.27524C1.39283 6.17689 1.4384 6.08576 1.50844 6.01524L7.16352 0.392662C7.42922 0.140548 7.78154 0 8.14782 0C8.5141 0 8.86641 0.140548 9.13212 0.392662L11.0914 2.35197C11.3523 2.61314 11.4988 2.96716 11.4988 3.33627C11.4988 3.70539 11.3523 4.05941 11.0914 4.32057L5.45028 9.97565C5.37976 10.0457 5.28863 10.0913 5.19028 10.1056L1.3413 10.6907L1.25308 10.6953ZM2.26988 6.58632L1.80559 9.6785L4.89778 9.21421L10.4693 3.67056C10.5123 3.62718 10.5464 3.57573 10.5695 3.51916C10.5926 3.46259 10.6043 3.40202 10.6039 3.34092C10.6034 3.21911 10.5551 3.10239 10.4693 3.01591L8.47282 1.03803C8.38583 0.951553 8.26816 0.903015 8.1455 0.903015C8.02284 0.903015 7.90516 0.951553 7.81817 1.03803L2.26988 6.58632Z" fill="#88A1AC"/>
<path d="M10.1198 5.11537C10.0587 5.11573 9.99815 5.10401 9.94158 5.08091C9.88502 5.0578 9.83357 5.02376 9.79018 4.98073L6.50764 1.69818C6.46435 1.65489 6.43001 1.6035 6.40658 1.54694C6.38315 1.49038 6.37109 1.42976 6.37109 1.36854C6.37109 1.30731 6.38315 1.24669 6.40658 1.19013C6.43001 1.13357 6.46435 1.08218 6.50764 1.03889C6.55093 0.995598 6.60232 0.961259 6.65888 0.937831C6.71544 0.914402 6.77606 0.902344 6.83729 0.902344C6.89851 0.902344 6.95913 0.914402 7.01569 0.937831C7.07225 0.961259 7.12364 0.995598 7.16693 1.03889L10.4495 4.32143C10.493 4.36459 10.5275 4.41595 10.5511 4.47252C10.5747 4.5291 10.5868 4.58979 10.5868 4.65108C10.5868 4.71237 10.5747 4.77306 10.5511 4.82964C10.5275 4.88621 10.493 4.93757 10.4495 4.98073C10.4061 5.02376 10.3546 5.0578 10.2981 5.08091C10.2415 5.10401 10.1809 5.11573 10.1198 5.11537Z" fill="#88A1AC"/>
<path d="M10.1642 11.9989H0.878354C0.755217 11.9989 0.637122 11.95 0.550051 11.8629C0.462979 11.7758 0.414062 11.6577 0.414062 11.5346C0.414062 11.4115 0.462979 11.2934 0.550051 11.2063C0.637122 11.1192 0.755217 11.0703 0.878354 11.0703H10.1642C10.2873 11.0703 10.4054 11.1192 10.4925 11.2063C10.5796 11.2934 10.6285 11.4115 10.6285 11.5346C10.6285 11.6577 10.5796 11.7758 10.4925 11.8629C10.4054 11.95 10.2873 11.9989 10.1642 11.9989Z" fill="#88A1AC"/>
<path d="M3.87696 4.95703L1.51836 7.25063C0.970491 7.79386 1.17478 9.22388 1.718 9.7671C2.26122 10.3103 3.74696 10.445 4.29018 9.90174L7.07593 7.06956C7.07593 7.06956 4.41554 8.25815 3.79339 7.56171C3.17123 6.86527 3.87696 4.95703 3.87696 4.95703Z" fill="#88A1AC"/>
</svg>
