<svg width="18" height="18" viewBox="0 0 18 18" fill="none" xmlns="http://www.w3.org/2000/svg">
<path d="M0 9C0 4.027 4.027 0 9 0C13.971 0 17.998 4.027 18 9C17.998 13.971 13.971 17.998 9 18C4.027 17.998 0 13.971 0 9ZM2.116 9C2.124 12.799 5.199 15.874 9 15.883C12.799 15.874 15.874 12.799 15.883 9C15.874 5.199 12.799 2.124 9 2.115C5.199 2.124 2.124 5.199 2.116 9Z" fill="#88A1AC"/>
<path d="M8 13H5V10L8 13Z" fill="#88A1AC"/>
<path d="M9.00058 11.9994L14.0005 6.99951L11.0003 3.99929L6.00036 8.99919L9.00058 11.9994Z" fill="#88A1AC"/>
</svg>
