<svg width="25" height="24" viewBox="0 0 25 24" fill="none" xmlns="http://www.w3.org/2000/svg">
<path d="M12.5 16C14.7091 16 16.5 14.2091 16.5 12C16.5 9.79086 14.7091 8 12.5 8C10.2909 8 8.5 9.79086 8.5 12C8.5 14.2091 10.2909 16 12.5 16Z" stroke="#88A1AC" stroke-width="2" stroke-linecap="round" stroke-linejoin="round"/>
<path d="M16.5 7.99938V12.9994C16.5 13.795 16.8161 14.5581 17.3787 15.1207C17.9413 15.6833 18.7044 15.9994 19.5 15.9994C20.2957 15.9994 21.0587 15.6833 21.6213 15.1207C22.1839 14.5581 22.5 13.795 22.5 12.9994V11.9994C22.4999 9.74241 21.7362 7.55186 20.3333 5.78391C18.9303 4.01596 16.9706 2.7746 14.7726 2.26168C12.5747 1.74875 10.2679 1.99442 8.22736 2.95875C6.18677 3.92307 4.53241 5.54933 3.53327 7.5731C2.53413 9.59687 2.24898 11.8991 2.72418 14.1055C3.19938 16.3119 4.40699 18.2926 6.15064 19.7256C7.89429 21.1587 10.0714 21.9597 12.3281 21.9985C14.5847 22.0373 16.7881 21.3116 18.58 19.9394" stroke="#88A1AC" stroke-width="2" stroke-linecap="round" stroke-linejoin="round"/>
</svg>
