<svg width="21" height="15" viewBox="0 0 21 15" fill="none" xmlns="http://www.w3.org/2000/svg">
<mask id="mask0_7357_22422" style="mask-type:alpha" maskUnits="userSpaceOnUse" x="0" y="0" width="21" height="15">
<path d="M19 0H2C0.89543 0 0 0.89543 0 2V13C0 14.1046 0.89543 15 2 15H19C20.1046 15 21 14.1046 21 13V2C21 0.89543 20.1046 0 19 0Z" fill="white"/>
</mask>
<g mask="url(#mask0_7357_22422)">
<path d="M19 0H2C0.89543 0 0 0.89543 0 2V13C0 14.1046 0.89543 15 2 15H19C20.1046 15 21 14.1046 21 13V2C21 0.89543 20.1046 0 19 0Z" fill="white"/>
<path d="M9 0H0V7H9V0Z" fill="#435DB0"/>
<g filter="url(#filter0_i_7357_22422)">
<path d="M9 0H0V7H9V0Z" fill="black"/>
</g>
<path fill-rule="evenodd" clip-rule="evenodd" d="M1 1V2H2V1H1ZM3 1V2H4V1H3ZM5 1V2H6V1H5ZM7 1V2H8V1H7ZM6 2V3H7V2H6ZM4 2V3H5V2H4ZM2 2V3H3V2H2ZM1 3V4H2V3H1ZM3 3V4H4V3H3ZM5 3V4H6V3H5ZM7 3V4H8V3H7ZM1 5V6H2V5H1ZM3 5V6H4V5H3ZM5 5V6H6V5H5ZM7 5V6H8V5H7ZM6 4V5H7V4H6ZM4 4V5H5V4H4ZM2 4V5H3V4H2Z" fill="#A7B6E6"/>
<path fill-rule="evenodd" clip-rule="evenodd" d="M9 0V1H21V0H9ZM9 2V3H21V2H9ZM9 4V5H21V4H9ZM9 6V7H21V6H9ZM0 8V9H21V8H0ZM0 10V11H21V10H0ZM0 12V13H21V12H0ZM0 14V15H21V14H0Z" fill="#ED4C49"/>
</g>
<mask id="mask1_7357_22422" style="mask-type:alpha" maskUnits="userSpaceOnUse" x="0" y="0" width="21" height="15">
<path d="M19.5 0.5H1.5C0.947715 0.5 0.5 0.947715 0.5 1.5V13.5C0.5 14.0523 0.947715 14.5 1.5 14.5H19.5C20.0523 14.5 20.5 14.0523 20.5 13.5V1.5C20.5 0.947715 20.0523 0.5 19.5 0.5Z" fill="white"/>
</mask>
<g mask="url(#mask1_7357_22422)">
<path d="M19.5 0.5H1.5C0.947715 0.5 0.5 0.947715 0.5 1.5V13.5C0.5 14.0523 0.947715 14.5 1.5 14.5H19.5C20.0523 14.5 20.5 14.0523 20.5 13.5V1.5C20.5 0.947715 20.0523 0.5 19.5 0.5Z" stroke="#2F343A" stroke-opacity="0.156646"/>
</g>
<defs>
<filter id="filter0_i_7357_22422" x="0" y="0" width="9" height="7" filterUnits="userSpaceOnUse" color-interpolation-filters="sRGB">
<feFlood flood-opacity="0" result="BackgroundImageFix"/>
<feBlend mode="normal" in="SourceGraphic" in2="BackgroundImageFix" result="shape"/>
<feColorMatrix in="SourceAlpha" type="matrix" values="0 0 0 0 0 0 0 0 0 0 0 0 0 0 0 0 0 0 127 0" result="hardAlpha"/>
<feOffset/>
<feGaussianBlur stdDeviation="2"/>
<feComposite in2="hardAlpha" operator="arithmetic" k2="-1" k3="1"/>
<feColorMatrix type="matrix" values="0 0 0 0 0 0 0 0 0 0 0 0 0 0 0 0 0 0 0.2 0"/>
<feBlend mode="normal" in2="shape" result="effect1_innerShadow_7357_22422"/>
</filter>
</defs>
</svg>
