<svg width="21" height="15" viewBox="0 0 21 15" fill="none" xmlns="http://www.w3.org/2000/svg">
<mask id="mask0_7357_22394" style="mask-type:alpha" maskUnits="userSpaceOnUse" x="0" y="0" width="21" height="15">
<path d="M19 0H2C0.89543 0 0 0.89543 0 2V13C0 14.1046 0.89543 15 2 15H19C20.1046 15 21 14.1046 21 13V2C21 0.89543 20.1046 0 19 0Z" fill="white"/>
</mask>
<g mask="url(#mask0_7357_22394)">
<path d="M19 0H2C0.89543 0 0 0.89543 0 2V13C0 14.1046 0.89543 15 2 15H19C20.1046 15 21 14.1046 21 13V2C21 0.89543 20.1046 0 19 0Z" fill="white"/>
<g filter="url(#filter0_i_7357_22394)">
<path d="M19 0H2C0.89543 0 0 0.89543 0 2V13C0 14.1046 0.89543 15 2 15H19C20.1046 15 21 14.1046 21 13V2C21 0.89543 20.1046 0 19 0Z" fill="white"/>
</g>
<path d="M21 10H0V15H21V10Z" fill="#3F9A3C"/>
<path d="M21 0H0V5H21V0Z" fill="#EF680F"/>
<path d="M10.5 8.5C11.0523 8.5 11.5 8.05228 11.5 7.5C11.5 6.94772 11.0523 6.5 10.5 6.5C9.94772 6.5 9.5 6.94772 9.5 7.5C9.5 8.05228 9.94772 8.5 10.5 8.5Z" stroke="#626CFB"/>
</g>
<mask id="mask1_7357_22394" style="mask-type:alpha" maskUnits="userSpaceOnUse" x="0" y="0" width="21" height="15">
<path d="M19.5 0.5H1.5C0.947715 0.5 0.5 0.947715 0.5 1.5V13.5C0.5 14.0523 0.947715 14.5 1.5 14.5H19.5C20.0523 14.5 20.5 14.0523 20.5 13.5V1.5C20.5 0.947715 20.0523 0.5 19.5 0.5Z" fill="white"/>
</mask>
<g mask="url(#mask1_7357_22394)">
<path d="M19.5 0.5H1.5C0.947715 0.5 0.5 0.947715 0.5 1.5V13.5C0.5 14.0523 0.947715 14.5 1.5 14.5H19.5C20.0523 14.5 20.5 14.0523 20.5 13.5V1.5C20.5 0.947715 20.0523 0.5 19.5 0.5Z" stroke="#2F343A" stroke-opacity="0.156646"/>
</g>
<defs>
<filter id="filter0_i_7357_22394" x="0" y="0" width="21" height="15" filterUnits="userSpaceOnUse" color-interpolation-filters="sRGB">
<feFlood flood-opacity="0" result="BackgroundImageFix"/>
<feBlend mode="normal" in="SourceGraphic" in2="BackgroundImageFix" result="shape"/>
<feColorMatrix in="SourceAlpha" type="matrix" values="0 0 0 0 0 0 0 0 0 0 0 0 0 0 0 0 0 0 127 0" result="hardAlpha"/>
<feOffset/>
<feGaussianBlur stdDeviation="2"/>
<feComposite in2="hardAlpha" operator="arithmetic" k2="-1" k3="1"/>
<feColorMatrix type="matrix" values="0 0 0 0 0 0 0 0 0 0 0 0 0 0 0 0 0 0 0.12166 0"/>
<feBlend mode="normal" in2="shape" result="effect1_innerShadow_7357_22394"/>
</filter>
</defs>
</svg>
