<svg width="24" height="24" viewBox="0 0 24 24" fill="none" xmlns="http://www.w3.org/2000/svg">
<path fill-rule="evenodd" clip-rule="evenodd" d="M5.33355 13.8331C5.73242 13.8331 6.05577 13.5098 6.05577 13.1109C6.05577 12.712 5.73242 12.3887 5.33355 12.3887C4.93468 12.3887 4.61133 12.712 4.61133 13.1109C4.61133 13.5098 4.93468 13.8331 5.33355 13.8331ZM5.33355 15.3331C6.56085 15.3331 7.55577 14.3382 7.55577 13.1109C7.55577 11.8836 6.56085 10.8887 5.33355 10.8887C4.10625 10.8887 3.11133 11.8836 3.11133 13.1109C3.11133 14.3382 4.10625 15.3331 5.33355 15.3331Z" fill="#88A1AC"/>
<path d="M7.55523 6.0115C7.55523 6.62515 7.05777 7.12261 6.44412 7.12261C5.83047 7.12261 5.33301 6.62515 5.33301 6.0115C5.33301 5.39785 5.83047 4.90039 6.44412 4.90039C7.05777 4.90039 7.55523 5.39785 7.55523 6.0115Z" fill="#88A1AC"/>
<path d="M11.4449 6.0115C11.4449 6.62515 10.9474 7.12261 10.3338 7.12261C9.72012 7.12261 9.22266 6.62515 9.22266 6.0115C9.22266 5.39785 9.72012 4.90039 10.3338 4.90039C10.9474 4.90039 11.4449 5.39785 11.4449 6.0115Z" fill="#88A1AC"/>
<path d="M15.3336 6.0115C15.3336 6.62515 14.8361 7.12261 14.2224 7.12261C13.6088 7.12261 13.1113 6.62515 13.1113 6.0115C13.1113 5.39785 13.6088 4.90039 14.2224 4.90039C14.8361 4.90039 15.3336 5.39785 15.3336 6.0115Z" fill="#88A1AC"/>
<path d="M19.2222 6.0115C19.2222 6.62515 18.7248 7.12261 18.1111 7.12261C17.4975 7.12261 17 6.62515 17 6.0115C17 5.39785 17.4975 4.90039 18.1111 4.90039C18.7248 4.90039 19.2222 5.39785 19.2222 6.0115Z" fill="#88A1AC"/>
<path fill-rule="evenodd" clip-rule="evenodd" d="M5.33355 20.4991C5.73242 20.4991 6.05577 20.1758 6.05577 19.7769C6.05577 19.378 5.73242 19.0547 5.33355 19.0547C4.93468 19.0547 4.61133 19.378 4.61133 19.7769C4.61133 20.1758 4.93468 20.4991 5.33355 20.4991ZM5.33355 21.9991C6.56085 21.9991 7.55577 21.0042 7.55577 19.7769C7.55577 18.5496 6.56085 17.5547 5.33355 17.5547C4.10625 17.5547 3.11133 18.5496 3.11133 19.7769C3.11133 21.0042 4.10625 21.9991 5.33355 21.9991Z" fill="#88A1AC"/>
<path fill-rule="evenodd" clip-rule="evenodd" d="M11.9996 13.8331C12.3984 13.8331 12.7218 13.5098 12.7218 13.1109C12.7218 12.712 12.3984 12.3887 11.9996 12.3887C11.6007 12.3887 11.2773 12.712 11.2773 13.1109C11.2773 13.5098 11.6007 13.8331 11.9996 13.8331ZM11.9996 15.3331C13.2269 15.3331 14.2218 14.3382 14.2218 13.1109C14.2218 11.8836 13.2269 10.8887 11.9996 10.8887C10.7723 10.8887 9.77734 11.8836 9.77734 13.1109C9.77734 14.3382 10.7723 15.3331 11.9996 15.3331Z" fill="#88A1AC"/>
<path fill-rule="evenodd" clip-rule="evenodd" d="M11.9996 20.4991C12.3984 20.4991 12.7218 20.1758 12.7218 19.7769C12.7218 19.378 12.3984 19.0547 11.9996 19.0547C11.6007 19.0547 11.2773 19.378 11.2773 19.7769C11.2773 20.1758 11.6007 20.4991 11.9996 20.4991ZM11.9996 21.9991C13.2269 21.9991 14.2218 21.0042 14.2218 19.7769C14.2218 18.5496 13.2269 17.5547 11.9996 17.5547C10.7723 17.5547 9.77734 18.5496 9.77734 19.7769C9.77734 21.0042 10.7723 21.9991 11.9996 21.9991Z" fill="#88A1AC"/>
<path fill-rule="evenodd" clip-rule="evenodd" d="M18.6666 13.8331C19.0654 13.8331 19.3888 13.5098 19.3888 13.1109C19.3888 12.712 19.0654 12.3887 18.6666 12.3887C18.2677 12.3887 17.9443 12.712 17.9443 13.1109C17.9443 13.5098 18.2677 13.8331 18.6666 13.8331ZM18.6666 15.3331C19.8939 15.3331 20.8888 14.3382 20.8888 13.1109C20.8888 11.8836 19.8939 10.8887 18.6666 10.8887C17.4393 10.8887 16.4443 11.8836 16.4443 13.1109C16.4443 14.3382 17.4393 15.3331 18.6666 15.3331Z" fill="#88A1AC"/>
<path fill-rule="evenodd" clip-rule="evenodd" d="M18.6666 20.4991C19.0654 20.4991 19.3888 20.1758 19.3888 19.7769C19.3888 19.378 19.0654 19.0547 18.6666 19.0547C18.2677 19.0547 17.9443 19.378 17.9443 19.7769C17.9443 20.1758 18.2677 20.4991 18.6666 20.4991ZM18.6666 21.9991C19.8939 21.9991 20.8888 21.0042 20.8888 19.7769C20.8888 18.5496 19.8939 17.5547 18.6666 17.5547C17.4393 17.5547 16.4443 18.5496 16.4443 19.7769C16.4443 21.0042 17.4393 21.9991 18.6666 21.9991Z" fill="#88A1AC"/>
<path fill-rule="evenodd" clip-rule="evenodd" d="M19 4H5C3.89543 4 3 4.89543 3 6C3 7.10457 3.89543 8 5 8H19C20.1046 8 21 7.10457 21 6C21 4.89543 20.1046 4 19 4ZM5 3C3.34315 3 2 4.34315 2 6C2 7.65685 3.34315 9 5 9H19C20.6569 9 22 7.65685 22 6C22 4.34315 20.6569 3 19 3H5Z" fill="#88A1AC"/>
</svg>
