<svg width="19" height="18" viewBox="0 0 19 18" fill="none" xmlns="http://www.w3.org/2000/svg">
<path d="M15.5 9V16.5H3.5V9" stroke="#88A1AC" stroke-width="2" stroke-linecap="round" stroke-linejoin="round"/>
<path d="M17 5.25H2V9H17V5.25Z" stroke="#88A1AC" stroke-width="2" stroke-linecap="round" stroke-linejoin="round"/>
<path d="M9.5 16.5V5.25" stroke="#88A1AC" stroke-width="2" stroke-linecap="round" stroke-linejoin="round"/>
<path d="M9.5 5.25H6.125C5.62772 5.25 5.15081 5.05246 4.79917 4.70083C4.44754 4.34919 4.25 3.87228 4.25 3.375C4.25 2.87772 4.44754 2.40081 4.79917 2.04917C5.15081 1.69754 5.62772 1.5 6.125 1.5C8.75 1.5 9.5 5.25 9.5 5.25Z" stroke="#88A1AC" stroke-width="2" stroke-linecap="round" stroke-linejoin="round"/>
<path d="M9.5 5.25H12.875C13.3723 5.25 13.8492 5.05246 14.2008 4.70083C14.5525 4.34919 14.75 3.87228 14.75 3.375C14.75 2.87772 14.5525 2.40081 14.2008 2.04917C13.8492 1.69754 13.3723 1.5 12.875 1.5C10.25 1.5 9.5 5.25 9.5 5.25Z" stroke="#88A1AC" stroke-width="2" stroke-linecap="round" stroke-linejoin="round"/>
</svg>
