<svg width="24" height="24" viewBox="0 0 24 24" fill="none" xmlns="http://www.w3.org/2000/svg">
<g clip-path="url(#clip0_18113_40949)">
<g clip-path="url(#clip1_18113_40949)">
<path d="M21.009 5.5962C18.2687 5.5962 13.3548 1.91228 11.2403 0.0703125C10.7329 0.488941 9.51498 1.47691 8.70304 2.07973C7.8911 2.68256 2.95182 4.67523 0.583671 5.5962C0.541383 5.7218 0.685161 7.10328 1.59859 11.6245C2.51203 16.4471 8.4916 21.1692 11.3672 22.9275C13.1433 21.6716 17.1777 18.4314 19.106 15.5177C21.0344 12.6041 21.1782 7.68934 21.009 5.5962Z" fill="#88A1AC" stroke="black" stroke-width="0.3"/>
<path d="M19.8153 6.37535C17.4393 6.37535 13.1786 3.1772 11.3453 1.57812C10.9053 1.94155 9.84928 2.79923 9.14528 3.32256C8.44128 3.8459 4.1586 5.5758 2.10526 6.37535C2.0686 6.48438 2.19326 7.68369 2.98526 11.6087C3.77727 15.7953 8.96195 19.8948 11.4553 21.4211C12.9953 20.3309 16.4933 17.518 18.1653 14.9885C19.8373 12.4591 19.962 8.19249 19.8153 6.37535Z" stroke="black" stroke-dasharray="2 2"/>
<path d="M18.1652 14.9871C19.8372 12.4577 19.8293 8.32125 19.6827 6.50411C17.353 6.50411 13.299 3.64678 11.4102 2.01953C11.8041 6.11417 19.63 11.9465 18.1652 14.9871Z" fill="#485459" fill-opacity="0.7"/>
<path d="M11.2336 16.1471C14.1764 16.1471 16.562 13.7855 16.562 10.8724C16.562 7.95923 14.1764 5.59766 11.2336 5.59766C8.29086 5.59766 5.90527 7.95923 5.90527 10.8724C5.90527 13.7855 8.29086 16.1471 11.2336 16.1471Z" fill="white"/>
<path fill-rule="evenodd" clip-rule="evenodd" d="M10.6498 13.1361L14.8172 9.25469L13.7384 8.10938L10.0816 11.4393L8.47444 10.0353L7.42773 11.2094L10.2047 13.6353L10.6498 13.1361Z" fill="#02B469"/>
</g>
</g>
<defs>
<clipPath id="clip0_18113_40949">
<rect width="24" height="24" fill="white"/>
</clipPath>
<clipPath id="clip1_18113_40949">
<rect width="21.3578" height="24" fill="white" transform="translate(0 -0.5)"/>
</clipPath>
</defs>
</svg>
