<svg width="24" height="24" viewBox="0 0 24 24" fill="none" xmlns="http://www.w3.org/2000/svg">
<path d="M6.18753 18.7505C5.63139 18.7506 5.08219 18.627 4.57971 18.3887C4.07723 18.1504 3.63405 17.8033 3.28227 17.3725C2.9305 16.9418 2.67893 16.4382 2.5458 15.8982C2.41267 15.3582 2.40131 14.7954 2.51253 14.2505C2.70565 13.3885 3.19004 12.6195 3.88407 12.073C4.57809 11.5265 5.4393 11.236 6.32253 11.2505H7.50003V18.7505H6.18753Z" stroke="#21728D" stroke-width="2" stroke-linecap="round" stroke-linejoin="round"/>
<path d="M17.8125 18.7505C18.3686 18.7506 18.9178 18.627 19.4203 18.3887C19.9228 18.1504 20.366 17.8033 20.7178 17.3725C21.0695 16.9418 21.3211 16.4382 21.4542 15.8982C21.5874 15.3582 21.5987 14.7954 21.4875 14.2505C21.2944 13.3885 20.81 12.6195 20.116 12.073C19.4219 11.5265 18.5607 11.236 17.6775 11.2505H16.5V18.7505H17.8125Z" stroke="#21728D" stroke-width="2" stroke-linecap="round" stroke-linejoin="round"/>
<path d="M5.25007 11.2492V10.3642C5.22304 8.81879 5.72082 7.30986 6.66212 6.08386C7.60341 4.85787 8.93259 3.98726 10.4326 3.61423C11.4266 3.37688 12.4616 3.36837 13.4595 3.58933C14.4573 3.8103 15.392 4.25496 16.1929 4.8898C16.9939 5.52463 17.6402 6.33305 18.0832 7.25408C18.5261 8.17512 18.7542 9.18472 18.7501 10.2067V11.2492" stroke="#21728D" stroke-width="2" stroke-linecap="round" stroke-linejoin="round"/>
<path d="M7.5 18.75C7.5 19.3467 7.73705 19.919 8.15901 20.341C8.58097 20.7629 9.15326 21 9.75 21" stroke="#21728D" stroke-width="2" stroke-linecap="round" stroke-linejoin="round"/>
<path d="M12 21.75C12.4142 21.75 12.75 21.4142 12.75 21C12.75 20.5858 12.4142 20.25 12 20.25C11.5858 20.25 11.25 20.5858 11.25 21C11.25 21.4142 11.5858 21.75 12 21.75Z" fill="#21728D"/>
<path d="M5.625 11.625V18.375" stroke="#21728D" stroke-linecap="round" stroke-linejoin="round"/>
<path d="M18 11.25H16.5V18.75H18V11.25Z" fill="#21728D"/>
</svg>
