<svg width="24" height="24" viewBox="0 0 24 24" fill="none" xmlns="http://www.w3.org/2000/svg">
<path d="M12 22C17.5228 22 22 17.5228 22 12C22 6.47715 17.5228 2 12 2C6.47715 2 2 6.47715 2 12C2 17.5228 6.47715 22 12 22Z" stroke="#88A1AC" stroke-width="2" stroke-linecap="round" stroke-linejoin="round"/>
<path d="M7.66667 12.6654C8.03486 12.6654 8.33333 12.3669 8.33333 11.9987C8.33333 11.6305 8.03486 11.332 7.66667 11.332C7.29848 11.332 7 11.6305 7 11.9987C7 12.3669 7.29848 12.6654 7.66667 12.6654Z" fill="#88A1AC" stroke="#88A1AC" stroke-width="2" stroke-linecap="round" stroke-linejoin="round"/>
<path d="M11.9987 12.6654C12.3669 12.6654 12.6654 12.3669 12.6654 11.9987C12.6654 11.6305 12.3669 11.332 11.9987 11.332C11.6305 11.332 11.332 11.6305 11.332 11.9987C11.332 12.3669 11.6305 12.6654 11.9987 12.6654Z" fill="#88A1AC" stroke="#88A1AC" stroke-width="2" stroke-linecap="round" stroke-linejoin="round"/>
<path d="M16.3346 12.6654C16.7028 12.6654 17.0013 12.3669 17.0013 11.9987C17.0013 11.6305 16.7028 11.332 16.3346 11.332C15.9664 11.332 15.668 11.6305 15.668 11.9987C15.668 12.3669 15.9664 12.6654 16.3346 12.6654Z" fill="#88A1AC" stroke="#88A1AC" stroke-width="2" stroke-linecap="round" stroke-linejoin="round"/>
</svg>
