<svg width="20" height="20" viewBox="0 0 20 20" fill="none" xmlns="http://www.w3.org/2000/svg">
<path d="M7 11.1113C7.35788 11.5897 7.81446 11.9856 8.33879 12.2721C8.86312 12.5585 9.44292 12.7289 10.0389 12.7716C10.6348 12.8143 11.233 12.7283 11.7928 12.5194C12.3526 12.3106 12.8609 11.9839 13.2833 11.5613L15.7833 9.0613C16.5423 8.27546 16.9623 7.22295 16.9528 6.13046C16.9433 5.03797 16.5051 3.99292 15.7326 3.22039C14.96 2.44785 13.915 2.00965 12.8225 2.00016C11.73 1.99066 10.6775 2.41064 9.89167 3.16963L8.45833 4.59463" stroke="#88A1AC" stroke-width="2" stroke-linecap="round" stroke-linejoin="round"/>
<path d="M11.6667 9.16702C11.3088 8.68858 10.8522 8.2927 10.3279 8.00623C9.80354 7.71977 9.22374 7.54942 8.62779 7.50674C8.03184 7.46406 7.43368 7.55004 6.87388 7.75887C6.31408 7.96769 5.80574 8.29446 5.38333 8.71702L2.88333 11.217C2.12434 12.0029 1.70436 13.0554 1.71386 14.1479C1.72335 15.2403 2.16155 16.2854 2.93409 17.0579C3.70662 17.8305 4.75167 18.2687 5.84416 18.2782C6.93665 18.2877 7.98916 17.8677 8.775 17.1087L10.2 15.6837" stroke="#88A1AC" stroke-width="2" stroke-linecap="round" stroke-linejoin="round"/>
</svg>
