<svg width="18" height="18" viewBox="0 0 18 18" fill="none" xmlns="http://www.w3.org/2000/svg">
<path d="M12.8889 9H5.11111C4.49746 9 4 9.56982 4 10.2727V14.7273C4 15.4302 4.49746 16 5.11111 16H12.8889C13.5025 16 14 15.4302 14 14.7273V10.2727C14 9.56982 13.5025 9 12.8889 9Z" stroke="#88A1AC" stroke-width="2" stroke-linecap="round" stroke-linejoin="round"/>
<path d="M6 9V6.77778C6 6.04107 6.31607 5.33453 6.87868 4.81359C7.44129 4.29266 8.20435 4 9 4C9.79565 4 10.5587 4.29266 11.1213 4.81359C11.6839 5.33453 12 6.04107 12 6.77778V9" stroke="#88A1AC" stroke-width="2" stroke-linecap="round" stroke-linejoin="round"/>
</svg>
