<svg width="10" height="13" viewBox="0 0 10 13" fill="none" xmlns="http://www.w3.org/2000/svg">
<path d="M4.83087 9.18446L5.31531 6.9677L3.84452 6.65384C4.92977 5.66133 5.53823 5.10487 6.62348 4.11236L6.13902 6.32912L7.60981 6.64298L4.83087 9.18446ZM9.38744 5.42216C9.56262 4.26639 8.67198 3.64502 7.45408 3.23043L7.84923 1.66483L6.88485 1.42732L6.50015 2.95168C6.24664 2.88928 5.98617 2.83044 5.72784 2.77209L6.11492 1.23751L5.15109 1L4.75594 2.5652C4.54587 2.51789 4.33985 2.47122 4.14 2.4222L4.14108 2.41728L2.81103 2.08911L2.5543 3.10703C2.5543 3.10703 3.27004 3.269 3.25473 3.27908C3.6456 3.37544 3.71614 3.63084 3.70436 3.83338L3.25421 5.61701C3.28129 5.62391 3.31618 5.63398 3.35453 5.64882C3.32233 5.64101 3.288 5.63224 3.25259 5.62391L2.62191 8.1226C2.57417 8.23977 2.45292 8.41552 2.18008 8.34898C2.18947 8.36276 1.47885 8.17587 1.47885 8.17587L1 9.26725L2.25521 9.57659C2.48859 9.63439 2.71741 9.69481 2.94276 9.75182L2.54358 11.3354L3.5069 11.573L3.90206 10.0058C4.16523 10.0765 4.42061 10.1415 4.67061 10.2033L4.2768 11.7625L5.24122 12L5.64038 10.4196C7.28482 10.7271 8.52178 10.603 9.04219 9.13336C9.46175 7.95002 9.02127 7.26716 8.15613 6.82183C8.78629 6.67788 9.26082 6.26832 9.38744 5.42216Z" fill="#F58B1B" stroke="#F17D15" stroke-width="0.2"/>
</svg>
