<svg width="21" height="8" viewBox="0 0 21 8" fill="none" xmlns="http://www.w3.org/2000/svg">
<path d="M6.45594 2.6L4.56594 6.42H3.63594L1.75594 2.6V7H0.195938V0.00999939H2.30594L4.10594 3.85L5.91594 0.00999939H8.01594V7H6.45594V2.6ZM14.157 7H12.747V6.35C12.3603 6.83667 11.8803 7.08 11.307 7.08C10.7403 7.08 10.2636 6.91667 9.87695 6.59C9.49029 6.25667 9.29695 5.81667 9.29695 5.27C9.29695 4.71667 9.49695 4.30333 9.89695 4.03C10.297 3.75667 10.8436 3.62 11.537 3.62H12.657V3.59C12.657 3.01667 12.3536 2.73 11.747 2.73C11.487 2.73 11.2103 2.78333 10.917 2.89C10.6303 2.99 10.387 3.11667 10.187 3.27L9.51695 2.3C10.2236 1.78667 11.0303 1.53 11.937 1.53C12.5903 1.53 13.1236 1.69333 13.537 2.02C13.9503 2.34667 14.157 2.86333 14.157 3.57V7ZM12.647 4.95V4.69H11.707C11.107 4.69 10.807 4.87667 10.807 5.25C10.807 5.44333 10.877 5.59333 11.017 5.7C11.1636 5.8 11.3703 5.85 11.637 5.85C11.9036 5.85 12.137 5.77 12.337 5.61C12.5436 5.44333 12.647 5.22333 12.647 4.95ZM16.8345 1.62L17.7545 3.06L18.7045 1.62H20.4645L18.6145 4.25L20.5345 7H18.7445L17.6945 5.52L16.6745 7H14.9445L16.8245 4.26L15.0445 1.62H16.8345Z" fill="#88A1AC"/>
</svg>
