<svg width="25" height="24" viewBox="0 0 25 24" fill="none" xmlns="http://www.w3.org/2000/svg">
<path d="M14.4336 5.5H10.4336M20.4336 7V17C20.4336 21 19.4336 22 15.4336 22H9.43359C5.43359 22 4.43359 21 4.43359 17V7C4.43359 3 5.43359 2 9.43359 2H15.4336C19.4336 2 20.4336 3 20.4336 7Z" stroke="#88A1AC" stroke-width="1.5" stroke-linecap="round" stroke-linejoin="round"/>
<path d="M12.4328 19.1C12.8439 19.1 13.2381 18.9367 13.5288 18.646C13.8195 18.3553 13.9828 17.9611 13.9828 17.55C13.9828 17.1389 13.8195 16.7447 13.5288 16.454C13.2381 16.1633 12.8439 16 12.4328 16C12.0217 16 11.6275 16.1633 11.3368 16.454C11.0461 16.7447 10.8828 17.1389 10.8828 17.55C10.8828 17.9611 11.0461 18.3553 11.3368 18.646C11.6275 18.9367 12.0217 19.1 12.4328 19.1Z" stroke="#21728D" stroke-linecap="round" stroke-linejoin="round"/>
</svg>
