<svg width="16" height="16" viewBox="0 0 16 16" fill="none" xmlns="http://www.w3.org/2000/svg">
<g clip-path="url(#clip0_17219_41747)">
<path d="M8 0.667969C7.46957 0.667969 6.96086 0.878682 6.58579 1.25376C6.21071 1.62883 6 2.13754 6 2.66797V8.0013C6 8.53173 6.21071 9.04044 6.58579 9.41552C6.96086 9.79059 7.46957 10.0013 8 10.0013C8.53043 10.0013 9.03914 9.79059 9.41421 9.41552C9.78929 9.04044 10 8.53173 10 8.0013V2.66797C10 2.13754 9.78929 1.62883 9.41421 1.25376C9.03914 0.878682 8.53043 0.667969 8 0.667969Z" stroke="white" stroke-width="2" stroke-linecap="round" stroke-linejoin="round"/>
<path d="M12.6668 6.66797V8.0013C12.6668 9.23898 12.1752 10.426 11.3 11.3011C10.4248 12.1763 9.23784 12.668 8.00016 12.668C6.76249 12.668 5.5755 12.1763 4.70033 11.3011C3.82516 10.426 3.3335 9.23898 3.3335 8.0013V6.66797" stroke="white" stroke-width="2" stroke-linecap="round" stroke-linejoin="round"/>
<path d="M8 12.668V15.3346" stroke="white" stroke-width="2" stroke-linecap="round" stroke-linejoin="round"/>
<path d="M5.3335 15.332H10.6668" stroke="white" stroke-width="2" stroke-linecap="round" stroke-linejoin="round"/>
</g>
<defs>
<clipPath id="clip0_17219_41747">
<rect width="16" height="16" fill="white"/>
</clipPath>
</defs>
</svg>
