<svg width="29" height="28" viewBox="0 0 29 28" fill="none" xmlns="http://www.w3.org/2000/svg">
<path d="M14.5067 23.1453C11.6946 23.1453 8.88252 22.7281 6.21527 21.8938C5.20148 21.5669 4.42907 20.9017 4.09114 20.0335C3.74114 19.1654 3.86183 18.2071 4.417 17.3502L5.80493 15.1968C6.09458 14.7458 6.3601 13.8438 6.3601 13.3139V10.0556C6.3601 5.86149 10.017 2.44531 14.5067 2.44531C18.9963 2.44531 22.6532 5.86149 22.6532 10.0556V13.3139C22.6532 13.8326 22.9187 14.7458 23.2084 15.2081L24.5842 17.3502C25.1032 18.162 25.1998 19.1429 24.8498 20.0335C24.4998 20.9242 23.7394 21.6007 22.786 21.8938C20.1308 22.7281 17.3187 23.1453 14.5067 23.1453ZM14.5067 4.13649C11.0187 4.13649 8.17045 6.786 8.17045 10.0556V13.3139C8.17045 14.137 7.80838 15.3546 7.36183 16.0649L5.9739 18.2183C5.70838 18.6355 5.63596 19.0752 5.79286 19.4473C5.93769 19.8306 6.29976 20.1237 6.79459 20.2816C11.8394 21.86 17.186 21.86 22.2308 20.2816C22.6653 20.1463 23.0032 19.8419 23.1601 19.436C23.317 19.0301 23.2808 18.5904 23.0394 18.2183L21.6515 16.0649C21.1929 15.3321 20.8429 14.1257 20.8429 13.3027V10.0556C20.8429 6.786 18.0067 4.13649 14.5067 4.13649Z" fill="#97A3AB"/>
<path d="M16.7515 4.4438C16.667 4.4438 16.5825 4.43252 16.4981 4.40997C16.1481 4.31978 15.8101 4.25213 15.4843 4.20703C14.4584 4.08301 13.4687 4.15066 12.5394 4.40997C12.2015 4.51144 11.8394 4.40997 11.6101 4.17321C11.3808 3.93644 11.3084 3.59821 11.4412 3.2938C11.936 2.10997 13.1429 1.33203 14.5187 1.33203C15.8946 1.33203 17.1015 2.0987 17.5963 3.2938C17.717 3.59821 17.6567 3.93644 17.4274 4.17321C17.2463 4.3536 16.9929 4.4438 16.7515 4.4438Z" fill="#97A3AB"/>
<path d="M14.5068 25.7162C13.312 25.7162 12.1534 25.2652 11.3085 24.476C10.4637 23.6868 9.98096 22.6045 9.98096 21.4883H11.7913C11.7913 22.1535 12.081 22.8074 12.5879 23.2809C13.0947 23.7545 13.7947 24.025 14.5068 24.025C16.0034 24.025 17.2223 22.8863 17.2223 21.4883H19.0327C19.0327 23.8221 17.0051 25.7162 14.5068 25.7162Z" fill="#97A3AB"/>
</svg>
