<svg width="27" height="27" viewBox="0 0 27 27" fill="none" xmlns="http://www.w3.org/2000/svg">
<rect width="27" height="27" rx="13.5" fill="black"/>
<path fill-rule="evenodd" clip-rule="evenodd" d="M7.9893 9.11774V18.7226H6.32812V19.459H10.6609V13.5265L14.5132 19.459L16.3636 19.459L20.0918 19.459L20.6964 19.459V18.7226H19.5829L19.3906 18.4443L19.0352 17.843V7.48828H16.3636V13.4895L12.5442 7.48828H10.4896H7.9893H6.9082L7.61271 8.45025L7.9893 9.11774ZM14.0942 11.6118C14.0093 11.5507 13.8517 11.4377 13.7441 11.3607C13.6365 11.2837 13.4509 11.1491 13.3317 11.0615C13.2125 10.9739 13.0846 10.8818 13.0474 10.8568C13.0102 10.8318 12.8828 10.7394 12.7643 10.6515C12.6458 10.5635 12.4967 10.4552 12.4331 10.4107C12.3695 10.3662 12.242 10.2739 12.1499 10.2055C12.0577 10.1371 11.8944 10.018 11.787 9.94088C11.6796 9.86379 11.5303 9.75559 11.4552 9.70044C11.0749 9.42092 10.7445 9.18674 10.6884 9.1568C10.654 9.13841 10.6191 9.11076 10.6109 9.09535C10.6027 9.07997 10.5816 9.06617 10.564 9.0647C10.5464 9.06323 10.506 9.03945 10.4741 9.01187L10.4162 8.9617L10.467 9.03635C10.4949 9.07742 10.5694 9.16593 10.6325 9.23301L10.8557 9.47018C10.9154 9.53352 10.9855 9.61061 11.0116 9.64146C11.0579 9.69603 11.1848 9.83781 11.4003 10.0753C11.4584 10.1395 11.5466 10.239 11.5961 10.2966C11.6457 10.3541 11.7212 10.4375 11.764 10.4818C11.8067 10.5262 11.8747 10.6044 11.9151 10.6556C11.9554 10.7069 12.0261 10.7883 12.072 10.8366C12.118 10.8848 12.1933 10.9683 12.2394 11.0221C12.32 11.1162 12.4706 11.283 12.6184 11.442C12.7415 11.5744 12.7252 11.601 12.4639 11.6935C12.37 11.7268 12.2398 11.7742 12.1747 11.7987C12.1095 11.8232 11.984 11.8679 11.8957 11.8979C11.8074 11.928 11.6631 11.9775 11.5751 12.008C11.487 12.0384 11.3875 12.0717 11.3538 12.0818C11.2899 12.1011 11.3563 12.232 11.435 12.2418C11.4511 12.2438 11.4708 12.2575 11.4786 12.2722C11.4864 12.2869 11.5306 12.3279 11.5769 12.3633C11.6551 12.4232 11.7658 12.5112 11.8735 12.5994C11.9518 12.6635 12.1003 12.7801 12.1774 12.8381C12.2181 12.8689 12.2605 12.9108 12.2715 12.9314C12.2824 12.9521 12.3049 12.9704 12.3214 12.9722C12.338 12.9741 12.3797 13.0017 12.4143 13.0336C12.4489 13.0656 12.5166 13.1211 12.5647 13.157C12.6129 13.1929 12.6715 13.2441 12.6951 13.2707C12.7186 13.2974 12.7519 13.3218 12.769 13.3251C12.7861 13.3284 12.8271 13.3569 12.86 13.3886C12.9441 13.4692 13.0461 13.5547 13.0887 13.58C13.1354 13.6078 13.2612 13.715 13.309 13.7678C13.3295 13.7905 13.3603 13.8117 13.3773 13.8151C13.3943 13.8184 13.4349 13.8471 13.4675 13.8789C13.5001 13.9107 13.566 13.9662 13.6139 14.0023C13.6618 14.0383 13.7259 14.0911 13.7563 14.1197C13.7868 14.1482 13.8509 14.2011 13.8988 14.2371C13.9467 14.2732 14.0129 14.3291 14.046 14.3614C14.0791 14.3936 14.1209 14.4213 14.139 14.4228C14.157 14.4243 14.1818 14.4446 14.1943 14.4679C14.2067 14.4913 14.245 14.5263 14.2795 14.5456C14.5236 14.6831 14.4543 14.8098 14.1093 14.8571C14.0812 14.8609 14.0402 14.8736 14.018 14.8854C13.9796 14.9059 13.8142 14.957 13.5929 15.0167C13.3818 15.0737 13.3842 15.1103 13.6117 15.3048C13.776 15.4452 13.8892 15.5508 13.938 15.6092C13.9639 15.6401 13.9984 15.668 14.0146 15.6711C14.0309 15.6741 14.0758 15.7097 14.1144 15.7502C14.153 15.7907 14.2273 15.8605 14.2794 15.9055C14.3316 15.9504 14.3983 16.011 14.4278 16.0401C14.4946 16.1414 15.0693 16.6413 15.4455 16.9685C15.6305 17.1294 15.7676 17.2486 15.7726 17.2582C15.788 17.2871 15.814 17.3092 15.8304 17.3074C15.8468 17.3056 15.8683 17.3193 15.8782 17.3378C15.888 17.3564 15.9349 17.4064 15.9823 17.449C16.0298 17.4916 16.1152 17.5703 16.1722 17.6239C16.2291 17.6775 16.3402 17.7785 16.4189 17.8485C16.4977 17.9185 16.576 17.9912 16.5932 18.0101C16.6103 18.0289 16.6416 17.9711 16.61 17.9096C16.5783 17.8482 16.5443 17.7931 16.5343 17.7872C16.5244 17.7813 16.4632 17.704 16.3983 17.6155C16.3334 17.527 16.2185 17.3776 16.1429 17.2836C16.0673 17.1896 15.9595 17.0549 15.9034 16.9842C15.7848 16.8351 15.0568 15.9818 15.0568 15.9818C15.0528 15.9771 15.0474 15.9699 15.0381 15.9576C15.0053 15.9142 14.925 15.8078 14.6974 15.5308C14.5264 15.3228 14.5303 15.2245 14.7092 15.2254C14.7257 15.2255 14.8067 15.2054 14.8892 15.1808C14.9717 15.1561 15.1922 15.091 15.3793 15.0362C15.5665 14.9813 15.7285 14.9317 15.7393 14.9259C15.7711 14.909 15.7362 14.8638 15.6105 14.7587C15.4594 14.6324 14.3284 13.6509 14.1152 13.4612C14.0711 13.4218 13.5256 12.9544 13.2952 12.7585C13.1819 12.6621 13.0647 12.5598 13.0346 12.531C13.0045 12.5023 12.9305 12.4368 12.87 12.3855C12.8096 12.3342 12.7606 12.2811 12.7613 12.2674C12.7614 12.2668 12.7614 12.2661 12.7614 12.2655C12.7615 12.2626 12.7616 12.2599 12.7627 12.2573C12.7716 12.2356 12.8471 12.2123 13.5379 11.999L13.5932 11.982C13.9411 11.8745 14.234 11.777 14.2441 11.7651L14.2451 11.764C14.2493 11.759 14.2528 11.7549 14.2546 11.7509C14.2625 11.7328 14.2376 11.7148 14.1016 11.6171L14.1016 11.6171L14.0942 11.6118Z" fill="white"/>
</svg>
