<svg width="24" height="24" viewBox="0 0 24 24" fill="none" xmlns="http://www.w3.org/2000/svg">
<path fill-rule="evenodd" clip-rule="evenodd" d="M6.41861 1L6.37023 1H6.3702C5.53442 0.999972 4.83749 0.999948 4.28421 1.08177C3.70021 1.16814 3.17296 1.35813 2.74926 1.82419C2.32557 2.29025 2.15286 2.87023 2.07434 3.51263C1.99995 4.12123 1.99997 4.88786 2 5.80722V5.80726L2 5.86047V12L2 12.0532V12.0532C1.99997 12.9726 1.99995 13.7392 2.07434 14.3478C2.15286 14.9902 2.32557 15.5702 2.74926 16.0363C3.17296 16.5023 3.70021 16.6923 4.28421 16.7787C4.83749 16.8605 5.53443 16.8605 6.37021 16.8605H6.37024L6.41861 16.8605H7.5814V18.1395L7.5814 18.1927C7.58137 19.1121 7.58135 19.8788 7.65573 20.4874C7.73425 21.1298 7.90697 21.7097 8.33066 22.1758C8.75435 22.6419 9.28161 22.8319 9.8656 22.9182C10.4189 23.0001 11.1158 23 11.9516 23H11.9516L12 23H17.5814L17.6298 23H17.6298C18.4656 23 19.1625 23.0001 19.7158 22.9182C20.2998 22.8319 20.827 22.6419 21.2507 22.1758C21.6744 21.7097 21.8471 21.1298 21.9257 20.4874C22 19.8788 22 19.1121 22 18.1928V18.1927L22 18.1395V12L22 11.9468V11.9468C22 11.0274 22 10.2608 21.9257 9.65216C21.8471 9.00977 21.6744 8.42979 21.2507 7.96372C20.827 7.49766 20.2998 7.30767 19.7158 7.22131C19.1625 7.13948 18.4656 7.1395 17.6298 7.13954L17.5814 7.13954H16.4186V5.86047L16.4186 5.80723V5.8072C16.4186 4.88785 16.4187 4.12123 16.3443 3.51263C16.2658 2.87023 16.093 2.29025 15.6693 1.82419C15.2456 1.35813 14.7184 1.16814 14.1344 1.08177C13.5811 0.999948 12.8842 0.999972 12.0484 1H12.0484L12 1H6.41861ZM15.0233 7.13954V5.86047C15.0233 4.87404 15.0218 4.21142 14.9614 3.71715C14.9036 3.24495 14.8039 3.04286 14.6827 2.90952C14.5615 2.77617 14.3777 2.66645 13.9485 2.60297C13.4991 2.53652 12.8968 2.53489 12 2.53489H6.41861C5.52185 2.53489 4.91947 2.53652 4.47013 2.60297C4.04087 2.66645 3.85715 2.77617 3.73592 2.90952C3.6147 3.04286 3.51496 3.24495 3.45724 3.71715C3.39683 4.21142 3.39535 4.87404 3.39535 5.86047V12C3.39535 12.9864 3.39683 13.649 3.45724 14.1433C3.51496 14.6155 3.6147 14.8176 3.73592 14.9509C3.85715 15.0843 4.04087 15.194 4.47013 15.2575C4.91947 15.324 5.52185 15.3256 6.41861 15.3256H7.5814V12L7.5814 11.9468C7.58137 11.0274 7.58135 10.2608 7.65573 9.65216C7.73425 9.00977 7.90697 8.42979 8.33066 7.96372C8.75435 7.49766 9.28161 7.30767 9.8656 7.22131C10.4189 7.13948 11.1158 7.1395 11.9516 7.13954L12 7.13954H15.0233ZM8.97674 16.093V18.1395C8.97674 19.126 8.97823 19.7886 9.03864 20.2829C9.09635 20.755 9.19609 20.9571 9.31732 21.0905C9.43854 21.2238 9.62226 21.3335 10.0515 21.397C10.5009 21.4635 11.1032 21.4651 12 21.4651H17.5814C18.4781 21.4651 19.0805 21.4635 19.5299 21.397C19.9591 21.3335 20.1428 21.2238 20.2641 21.0905C20.3853 20.9571 20.485 20.755 20.5428 20.2829C20.6032 19.7886 20.6046 19.126 20.6046 18.1395V12C20.6046 11.0136 20.6032 10.351 20.5428 9.85668C20.485 9.38449 20.3853 9.1824 20.2641 9.04905C20.1428 8.9157 19.9591 8.80599 19.5299 8.7425C19.0805 8.67605 18.4781 8.67442 17.5814 8.67442H15.7209H12C11.1032 8.67442 10.5009 8.67605 10.0515 8.7425C9.62226 8.80599 9.43854 8.9157 9.31732 9.04905C9.19609 9.1824 9.09635 9.38449 9.03864 9.85668C8.97823 10.351 8.97674 11.0136 8.97674 12V16.093Z" fill="white"/>
</svg>
