<svg width="100" height="100" viewBox="0 0 100 100" fill="none" xmlns="http://www.w3.org/2000/svg">
    <path
        d="M39.8776 87.8887C31.4057 85.6693 23.9307 80.6556 18.6629 73.6592C13.3951 66.6629 10.6427 58.0934 10.8514 49.338C11.06 40.5827 14.2175 32.1541 19.8127 25.4166C25.4078 18.6791 33.1131 14.0272 41.6811 12.2139C50.2492 10.4006 59.1784 11.5321 67.0234 15.4252C74.8683 19.3183 81.1697 25.7452 84.9074 33.6653C88.6452 41.5855 89.6005 50.5353 87.6187 59.0659C85.6369 67.5966 80.834 75.2087 73.9875 80.6699"
        stroke="#88A1AC" stroke-opacity="0.44" stroke-width="2" />
    <path
        d="M93.149 49.8682C93.149 59.2815 90.0988 68.4414 84.4555 75.9755C78.8121 83.5096 70.8794 89.0123 61.8459 91.6591C52.8124 94.3059 43.1645 93.9544 34.3475 90.6572C25.5306 87.36 18.0194 81.2946 12.9393 73.3698C7.85915 65.445 5.48366 56.0875 6.16869 46.6991C6.85371 37.3108 10.5624 28.3972 16.739 21.2937C22.9157 14.1902 31.2277 9.27942 40.4299 7.29699C49.6321 5.31455 59.2289 6.36724 67.7825 10.2973"
        stroke="#88A1AC" stroke-opacity="0.4" stroke-width="2" />
    <path
        d="M12.8799 17.9766C19.342 10.4722 27.9223 5.11017 37.4871 2.5985C47.0519 0.0868376 57.1515 0.543555 66.452 3.90838C75.7526 7.27321 83.8168 13.388 89.579 21.4454C95.3412 29.5029 98.5303 39.1238 98.7246 49.0372C98.9189 58.9507 96.1093 68.6898 90.6671 76.9681C85.225 85.2464 77.4066 91.6741 68.2451 95.4027C59.0835 99.1313 49.0096 99.9855 39.3538 97.8526C29.698 95.7196 20.9143 90.6998 14.1631 83.4557"
        stroke="#88A1AC" stroke-opacity="0.4" stroke-width="2" />
</svg>
