<svg width="24" height="24" viewBox="0 0 24 24" fill="none" xmlns="http://www.w3.org/2000/svg">
<path fill-rule="evenodd" clip-rule="evenodd" d="M3.8363 6.9642C3.6325 8.25935 3.5525 9.90527 3.5525 12C3.5525 14.0947 3.6325 15.7406 3.8363 17.0358C4.04051 18.3336 4.36051 19.2192 4.79732 19.8361C5.6217 21.0004 7.05768 21.4651 10.0212 21.4651C11.7417 21.4651 12.9577 21.3091 13.8382 20.941C14.5607 20.6388 15.0866 20.1817 15.4794 19.4584C14.4203 18.6306 13.7408 17.3491 13.7408 15.9107C13.7408 14.055 14.8718 12.4604 16.4896 11.7642C16.4837 9.78123 16.4023 8.21035 16.2062 6.9642C16.0019 5.66639 15.682 4.78082 15.2451 4.16388C14.7837 3.51223 14.1308 3.07974 13.1256 2.82522C13.1072 3.37436 12.6512 3.81395 12.0912 3.81395H7.95123C7.39131 3.81395 6.93523 3.37437 6.91682 2.82522C5.91168 3.07974 5.25871 3.51223 4.79732 4.16388C4.36051 4.78082 4.04051 5.66639 3.8363 6.9642ZM18.0402 11.3984C18.0258 9.54937 17.9412 8.00556 17.7402 6.72826C17.5182 5.31748 17.1456 4.17156 16.517 3.28368C15.2104 1.43834 13.0239 1 10.0212 1C7.01853 1 4.83203 1.43834 3.52547 3.28368C2.89682 4.17156 2.52424 5.31748 2.30225 6.72826C2.07984 8.14169 2 9.88147 2 12C2 14.1185 2.07984 15.8583 2.30225 17.2717C2.52424 18.6825 2.89682 19.8284 3.52547 20.7163C4.83203 22.5617 7.01853 23 10.0212 23C11.793 23 13.2663 22.8466 14.4429 22.3546C15.5068 21.9098 16.2907 21.2045 16.8428 20.1922C17.3042 20.347 17.7986 20.4309 18.3129 20.4309C19.3378 20.4309 20.2839 20.0975 21.0464 19.5344L22.6749 21.1444C22.978 21.4441 23.4695 21.4441 23.7726 21.1444C24.0758 20.8447 24.0758 20.3587 23.7726 20.059L22.1157 18.4209C22.6016 17.7029 22.885 16.8395 22.885 15.9107C22.885 13.4142 20.838 11.3904 18.3129 11.3904C18.2213 11.3904 18.1304 11.3931 18.0402 11.3984ZM18.3129 12.9253C16.6452 12.9253 15.2932 14.2619 15.2932 15.9107C15.2932 17.5594 16.6452 18.896 18.3129 18.896C19.9805 18.896 21.3325 17.5594 21.3325 15.9107C21.3325 14.2619 19.9805 12.9253 18.3129 12.9253Z" fill="white"/>
</svg>
