<svg width="24" height="24" viewBox="0 0 24 24" fill="none" xmlns="http://www.w3.org/2000/svg">
<path d="M20 2V17C20 21 19 22 15 22H9C5 22 4 21 4 17V5M4 2V5M20 5L23.5 4V2H0.5V4L4 5" stroke="white" stroke-linecap="round" stroke-linejoin="round"/>
<path d="M12.0002 11.1C12.4113 11.1 12.8055 10.9367 13.0962 10.646C13.3869 10.3553 13.5502 9.96108 13.5502 9.55C13.5502 9.13891 13.3869 8.74467 13.0962 8.45398C12.8055 8.1633 12.4113 8 12.0002 8C11.5891 8 11.1949 8.1633 10.9042 8.45398C10.6135 8.74467 10.4502 9.13891 10.4502 9.55C10.4502 9.96108 10.6135 10.3553 10.9042 10.646C11.1949 10.9367 11.5891 11.1 12.0002 11.1Z" stroke="#21728D" stroke-linecap="round" stroke-linejoin="round"/>
</svg>
