<svg width="25" height="24" viewBox="0 0 25 24" fill="none" xmlns="http://www.w3.org/2000/svg">
<path d="M16.4375 13.5C16.4375 14.3284 17.109 15 17.9375 15C18.7659 15 19.4375 14.3284 19.4375 13.5C19.4375 12.6716 18.7659 12 17.9375 12C17.109 12 16.4375 12.6716 16.4375 13.5Z" stroke="#88A1AC" stroke-width="1.5"/>
<path d="M2.43359 11C2.43359 7.22876 2.43359 5.34315 3.60517 4.17157C4.77674 3 6.66236 3 10.4336 3H14.4336C15.3635 3 15.8285 3 16.21 3.10222C17.2453 3.37962 18.0539 4.18827 18.3313 5.22354C18.4336 5.60504 18.4336 6.07003 18.4336 7M10.4336 7H16.4336C19.262 7 20.6762 7 21.5549 7.87868C22.4336 8.75736 22.4336 10.1716 22.4336 13V15C22.4336 17.8284 22.4336 19.2426 21.5549 20.1213C20.6762 21 19.262 21 16.4336 21H12.9321" stroke="#88A1AC" stroke-width="1.5" stroke-linecap="round"/>
<path d="M10.4336 17H6.43359M6.43359 17H2.43359M6.43359 17V21M6.43359 17V13" stroke="#21728D" stroke-width="1.5" stroke-linecap="round"/>
</svg>
