<svg width="25" height="24" viewBox="0 0 25 24" fill="none" xmlns="http://www.w3.org/2000/svg">
<path d="M9.16406 10.7495L15.664 7.75M9.16406 13.25L15.664 16.2495" stroke="#21728D" stroke-width="1.5"/>
<path d="M21.4336 6.5C21.4336 8.15685 20.0905 9.5 18.4336 9.5C16.7767 9.5 15.4336 8.15685 15.4336 6.5C15.4336 4.84315 16.7767 3.5 18.4336 3.5C20.0905 3.5 21.4336 4.84315 21.4336 6.5Z" stroke="#88A1AC" stroke-width="1.5"/>
<path d="M9.43359 12C9.43359 13.6569 8.09044 15 6.43359 15C4.77674 15 3.43359 13.6569 3.43359 12C3.43359 10.3431 4.77674 9 6.43359 9C8.09044 9 9.43359 10.3431 9.43359 12Z" stroke="#88A1AC" stroke-width="1.5"/>
<path d="M21.4336 17.5C21.4336 19.1569 20.0905 20.5 18.4336 20.5C16.7767 20.5 15.4336 19.1569 15.4336 17.5C15.4336 15.8431 16.7767 14.5 18.4336 14.5C20.0905 14.5 21.4336 15.8431 21.4336 17.5Z" stroke="#88A1AC" stroke-width="1.5"/>
</svg>
