<svg width="24" height="24" viewBox="0 0 24 24" fill="none" xmlns="http://www.w3.org/2000/svg">
<g clip-path="url(#clip0_10346_31049)">
<path d="M24 12C24 5.37258 18.6274 0 12 0C5.37258 0 0 5.37258 0 12C0 18.6274 5.37258 24 12 24C18.6274 24 24 18.6274 24 12Z" fill="black"/>
<path fill-rule="evenodd" clip-rule="evenodd" d="M17.1169 9.21959C17.143 9.22907 17.1682 9.23975 17.1926 9.25157C17.251 9.26988 17.3093 9.28961 17.3675 9.31076C19.443 10.066 20.5131 12.3605 19.7577 14.4355C19.0023 16.5106 16.7073 17.5805 14.6318 16.8252L7.86721 14.3637C7.4521 14.2126 7.23807 13.7538 7.38916 13.3387C7.54025 12.9237 7.99924 12.7098 8.41435 12.8608L12.1722 14.2284C12.003 13.672 11.9537 13.0756 12.0431 12.4793L4.32649 9.67129C3.91139 9.52024 3.69736 9.06135 3.84844 8.64634C3.99953 8.23133 4.45852 8.01735 4.87363 8.1684L12.5902 10.9765C12.9051 10.4622 13.3263 10.037 13.8136 9.71953L10.0557 8.35211C9.64064 8.20106 9.42661 7.74218 9.5777 7.32716C9.72878 6.91215 10.1878 6.69817 10.6029 6.84922L17.1169 9.21959ZM16.9563 10.8859C15.711 10.4328 14.334 11.0747 13.8808 12.3198C13.4275 13.5648 14.0696 14.9415 15.3149 15.3946C16.5603 15.8478 17.9372 15.2058 18.3905 13.9608C18.8438 12.7158 18.2017 11.3391 16.9563 10.8859Z" fill="white"/>
</g>
<defs>
<clipPath id="clip0_10346_31049">
<rect width="24" height="24" fill="white"/>
</clipPath>
</defs>
</svg>
