<svg width="20" height="20" viewBox="0 0 20 20" fill="none" xmlns="http://www.w3.org/2000/svg">
<g clip-path="url(#clip0_6254_15108)">
<path d="M10 12.5C11.3807 12.5 12.5 11.3807 12.5 10C12.5 8.61929 11.3807 7.5 10 7.5C8.61929 7.5 7.5 8.61929 7.5 10C7.5 11.3807 8.61929 12.5 10 12.5Z" stroke="#88A1AC" stroke-width="2" stroke-linecap="round" stroke-linejoin="round"/>
<path d="M16.1663 12.5007C16.0554 12.752 16.0223 13.0308 16.0713 13.3011C16.1204 13.5715 16.2492 13.8209 16.4413 14.0173L16.4913 14.0673C16.6463 14.2221 16.7692 14.4059 16.8531 14.6083C16.937 14.8106 16.9802 15.0275 16.9802 15.2465C16.9802 15.4655 16.937 15.6824 16.8531 15.8847C16.7692 16.087 16.6463 16.2709 16.4913 16.4257C16.3366 16.5806 16.1527 16.7035 15.9504 16.7874C15.7481 16.8713 15.5312 16.9145 15.3122 16.9145C15.0931 16.9145 14.8763 16.8713 14.6739 16.7874C14.4716 16.7035 14.2878 16.5806 14.133 16.4257L14.083 16.3757C13.8866 16.1835 13.6372 16.0547 13.3668 16.0056C13.0965 15.9566 12.8177 15.9897 12.5663 16.1007C12.3199 16.2063 12.1097 16.3817 11.9616 16.6053C11.8135 16.8288 11.7341 17.0908 11.733 17.359V17.5007C11.733 17.9427 11.5574 18.3666 11.2449 18.6792C10.9323 18.9917 10.5084 19.1673 10.0663 19.1673C9.62431 19.1673 9.20039 18.9917 8.88783 18.6792C8.57527 18.3666 8.39967 17.9427 8.39967 17.5007V17.4257C8.39322 17.1498 8.30394 16.8823 8.14343 16.6579C7.98293 16.4335 7.75862 16.2626 7.49967 16.1673C7.24833 16.0564 6.96951 16.0233 6.69918 16.0723C6.42886 16.1213 6.17941 16.2502 5.98301 16.4423L5.93301 16.4923C5.77822 16.6473 5.59441 16.7702 5.39208 16.8541C5.18974 16.938 4.97287 16.9811 4.75384 16.9811C4.53482 16.9811 4.31794 16.938 4.11561 16.8541C3.91328 16.7702 3.72946 16.6473 3.57467 16.4923C3.41971 16.3375 3.29678 16.1537 3.21291 15.9514C3.12903 15.7491 3.08586 15.5322 3.08586 15.3132C3.08586 15.0941 3.12903 14.8772 3.21291 14.6749C3.29678 14.4726 3.41971 14.2888 3.57467 14.134L3.62467 14.084C3.81679 13.8876 3.94566 13.6381 3.99468 13.3678C4.04369 13.0975 4.0106 12.8187 3.89967 12.5673C3.79404 12.3208 3.61864 12.1106 3.39506 11.9626C3.17149 11.8145 2.9095 11.7351 2.64134 11.734H2.49967C2.05765 11.734 1.63372 11.5584 1.32116 11.2458C1.0086 10.9333 0.833008 10.5093 0.833008 10.0673C0.833008 9.62529 1.0086 9.20137 1.32116 8.88881C1.63372 8.57625 2.05765 8.40065 2.49967 8.40065H2.57467C2.8505 8.3942 3.11801 8.30492 3.34242 8.14441C3.56684 7.9839 3.73777 7.7596 3.83301 7.50065C3.94394 7.2493 3.97703 6.97049 3.92801 6.70016C3.879 6.42983 3.75012 6.18038 3.55801 5.98398L3.50801 5.93398C3.35305 5.7792 3.23012 5.59538 3.14624 5.39305C3.06237 5.19072 3.0192 4.97384 3.0192 4.75482C3.0192 4.53579 3.06237 4.31891 3.14624 4.11658C3.23012 3.91425 3.35305 3.73044 3.50801 3.57565C3.6628 3.42069 3.84661 3.29776 4.04894 3.21388C4.25127 3.13001 4.46815 3.08684 4.68717 3.08684C4.9062 3.08684 5.12308 3.13001 5.32541 3.21388C5.52774 3.29776 5.71155 3.42069 5.86634 3.57565L5.91634 3.62565C6.11274 3.81777 6.36219 3.94664 6.63252 3.99565C6.90285 4.04467 7.18166 4.01158 7.43301 3.90065H7.49967C7.74615 3.79502 7.95636 3.61961 8.10442 3.39604C8.25248 3.17246 8.33194 2.91047 8.33301 2.64232V2.50065C8.33301 2.05862 8.5086 1.6347 8.82116 1.32214C9.13372 1.00958 9.55765 0.833984 9.99967 0.833984C10.4417 0.833984 10.8656 1.00958 11.1782 1.32214C11.4907 1.6347 11.6663 2.05862 11.6663 2.50065V2.57565C11.6674 2.84381 11.7469 3.1058 11.8949 3.32937C12.043 3.55295 12.2532 3.72835 12.4997 3.83398C12.751 3.94491 13.0298 3.978 13.3002 3.92899C13.5705 3.87997 13.8199 3.7511 14.0163 3.55898L14.0663 3.50898C14.2211 3.35402 14.4049 3.23109 14.6073 3.14722C14.8096 3.06334 15.0265 3.02017 15.2455 3.02017C15.4645 3.02017 15.6814 3.06334 15.8837 3.14722C16.0861 3.23109 16.2699 3.35402 16.4247 3.50898C16.5796 3.66377 16.7026 3.84759 16.7864 4.04992C16.8703 4.25225 16.9135 4.46913 16.9135 4.68815C16.9135 4.90718 16.8703 5.12405 16.7864 5.32639C16.7026 5.52872 16.5796 5.71253 16.4247 5.86732L16.3747 5.91732C16.1826 6.11372 16.0537 6.36316 16.0047 6.63349C15.9557 6.90382 15.9887 7.18264 16.0997 7.43398V7.50065C16.2053 7.74713 16.3807 7.95733 16.6043 8.1054C16.8279 8.25346 17.0899 8.33292 17.358 8.33398H17.4997C17.9417 8.33398 18.3656 8.50958 18.6782 8.82214C18.9907 9.1347 19.1663 9.55862 19.1663 10.0007C19.1663 10.4427 18.9907 10.8666 18.6782 11.1792C18.3656 11.4917 17.9417 11.6673 17.4997 11.6673H17.4247C17.1565 11.6684 16.8945 11.7478 16.671 11.8959C16.4474 12.044 16.272 12.2542 16.1663 12.5007V12.5007Z" stroke="#88A1AC" stroke-width="2" stroke-linecap="round" stroke-linejoin="round"/>
</g>
<defs>
<clipPath id="clip0_6254_15108">
<rect width="20" height="20" fill="white"/>
</clipPath>
</defs>
</svg>
