<svg width="21" height="24" viewBox="0 0 21 24" fill="none" xmlns="http://www.w3.org/2000/svg">
<path d="M1.25008 5.96146C4.35233 6.27858 6.72509 5.11924 8.3353 3.8379C9.20944 3.1423 9.86331 2.40856 10.2993 1.84865C10.3064 1.83952 10.3134 1.83043 10.3204 1.82138C10.3272 1.83021 10.3341 1.83909 10.341 1.848C10.776 2.40792 11.4285 3.14171 12.3008 3.83739C13.9072 5.11861 16.2748 6.27819 19.3704 5.96165C19.3714 6.3235 19.3633 6.79368 19.3331 7.34691C19.2586 8.70936 19.0502 10.5637 18.5173 12.539C17.4684 16.4278 15.1973 20.6784 10.3208 22.6922C5.43231 20.6781 3.15623 16.427 2.10504 12.5386C1.57106 10.5634 1.36218 8.70918 1.28751 7.34682C1.25718 6.79352 1.24909 6.32331 1.25008 5.96146Z" stroke="#88A1AC" stroke-width="1.5" stroke-linecap="round"/>
<path fill-rule="evenodd" clip-rule="evenodd" d="M5.5 12.8575L8.6125 15.97L14.8375 9.745L13.5925 8.5L8.6125 13.48L6.745 11.6125L5.5 12.8575Z" fill="#88A1AC"/>
</svg>
