<svg width="20" height="20" viewBox="0 0 20 20" fill="none" xmlns="http://www.w3.org/2000/svg">
<path d="M10.0002 0.832031C15.0629 0.832031 19.1668 4.93595 19.1668 9.9987C19.1668 15.0614 15.0629 19.1654 10.0002 19.1654C7.86295 19.1685 5.79235 18.4217 4.14909 17.0552L3.92542 16.8636L4.75226 15.1201C5.9329 16.3302 7.4954 17.0952 9.17528 17.2856C10.8552 17.476 12.5492 17.0801 13.9708 16.165C15.3923 15.2498 16.4539 13.8716 16.976 12.2636C17.4982 10.6556 17.4486 8.91659 16.8358 7.34092C16.2231 5.76524 15.0847 4.44969 13.6134 3.61693C12.1421 2.78417 10.4282 2.48535 8.76189 2.77105C7.09557 3.05676 5.57915 3.90943 4.46929 5.18476C3.35943 6.46009 2.72431 8.07972 2.67142 9.76953L2.66684 9.9987H4.95851L2.47801 15.2384C1.40478 13.7021 0.830606 11.8727 0.833507 9.9987C0.833507 4.93595 4.93742 0.832031 10.0002 0.832031ZM10.9168 4.4987V6.33203H13.2085V8.16536H8.16684C8.05231 8.16515 7.94184 8.20783 7.85721 8.285C7.77257 8.36216 7.71989 8.46822 7.70954 8.58228C7.69919 8.69635 7.73192 8.81016 7.80129 8.90129C7.87066 8.99243 7.97164 9.05429 8.08434 9.0747L8.16684 9.08203H11.8335C12.4413 9.08203 13.0242 9.32347 13.454 9.75324C13.8837 10.183 14.1252 10.7659 14.1252 11.3737C14.1252 11.9815 13.8837 12.5644 13.454 12.9942C13.0242 13.4239 12.4413 13.6654 11.8335 13.6654H10.9168V15.4987H9.08351V13.6654H6.79184V11.832H11.8335C11.948 11.8322 12.0585 11.7896 12.1431 11.7124C12.2278 11.6352 12.2805 11.5292 12.2908 11.4151C12.3012 11.301 12.2684 11.1872 12.1991 11.0961C12.1297 11.005 12.0287 10.9431 11.916 10.9227L11.8335 10.9154H8.16684C7.55905 10.9154 6.97616 10.6739 6.54639 10.2442C6.11662 9.81438 5.87517 9.23149 5.87517 8.6237C5.87517 8.01591 6.11662 7.43302 6.54639 7.00324C6.97616 6.57347 7.55905 6.33203 8.16684 6.33203H9.08351V4.4987H10.9168Z" fill="#88A1AC"/>
</svg>
