<svg width="24" height="24" viewBox="0 0 24 24" fill="none" xmlns="http://www.w3.org/2000/svg">
<path fill-rule="evenodd" clip-rule="evenodd" d="M1.28871 20.4503V18.9374L1.28871 19.1774V20.2103L1.28871 20.4503ZM1.28871 5.04745V3.54605L1.28871 3.78605V4.80745L1.28871 5.04745ZM10.6628 3.78605H10.7407L10.8037 3.74039C12.1117 2.79253 13.6512 2.23828 15.2992 2.23828C19.9362 2.23828 23.7602 6.58252 23.7602 11.9938C23.7602 17.4055 19.936 21.7583 15.2992 21.7583C13.6546 21.7583 12.1181 21.2027 10.8114 20.256L10.7484 20.2103H10.6706H10.0001H1.95142H1.52871V19.1774H1.95142H9.04374H9.55967L9.2273 18.7828C8.73529 18.1986 8.30612 17.5423 7.95129 16.8306L7.88503 16.6977H7.73651H7.31809H4.63605H4.21074V15.6648H4.63605H7.12577H7.45466L7.35433 15.3515C7.08965 14.5252 6.91892 13.6518 6.85847 12.7388L6.84363 12.5147H6.61899H1.66555H1.24023V11.4817H1.66555H6.61639H6.84124L6.85588 11.2573C7.00928 8.90735 7.88842 6.79278 9.23226 5.20235L9.56593 4.80745H9.04893H1.95142H1.52871V3.78605H1.95142H10.0001H10.6628ZM22.9252 11.9938C22.9252 7.19819 19.5509 3.27105 15.2992 3.27105C11.0479 3.27105 7.66283 7.19772 7.66283 11.9938C7.66283 16.7896 11.0476 20.7253 15.2992 20.7253C19.5512 20.7253 22.9252 16.7891 22.9252 11.9938Z" fill="black"/>
<path d="M4.875 7.55078V8.91164H5.37253H7.3849H7.875V7.55078H7.3849H5.37253H4.875Z" fill="#21728D"/>
<path d="M0.720703 7.55078V8.91164H1.27944H3.57366H4.1324V7.55078H3.57366H1.27944H0.720703Z" fill="#21728D"/>
<path d="M0 11.2969V12.6577H0.55874H1.98945H2.54819V11.2969H1.98945H0.55874H0Z" fill="#21728D"/>
<path d="M1.7207 15.5V16.8609H2.27944H4.57366H5.1324V15.5H4.57366H2.27944H1.7207Z" fill="#21728D"/>
<path d="M15.1816 8V15.3415" stroke="black" stroke-linecap="round" stroke-linejoin="round"/>
<path d="M17 9.33594H14.2727C13.9352 9.33594 13.6114 9.45899 13.3728 9.67803C13.1341 9.89706 13 10.1941 13 10.5039C13 10.8137 13.1341 11.1107 13.3728 11.3298C13.6114 11.5488 13.9352 11.6719 14.2727 11.6719H16.0909C16.4284 11.6719 16.7521 11.7949 16.9908 12.014C17.2295 12.233 17.3636 12.5301 17.3636 12.8398C17.3636 13.1496 17.2295 13.4467 16.9908 13.6657C16.7521 13.8847 16.4284 14.0078 16.0909 14.0078H13" stroke="black" stroke-linecap="round" stroke-linejoin="round"/>
</svg>
