<svg width="16" height="10" viewBox="0 0 16 10" fill="none" xmlns="http://www.w3.org/2000/svg">
<path d="M14.9864 4.28474H0.713636C0.524368 4.28474 0.342852 4.20955 0.209019 4.07572C0.0751864 3.94189 0 3.76037 0 3.5711C0 3.38183 0.0751864 3.20032 0.209019 3.06648C0.342852 2.93265 0.524368 2.85747 0.713636 2.85747H13.2665L11.6251 1.22324C11.4908 1.08886 11.4153 0.906599 11.4153 0.716556C11.4153 0.526514 11.4908 0.344255 11.6251 0.209875C11.7595 0.0754941 11.9418 0 12.1318 0C12.3219 0 12.5041 0.0754941 12.6385 0.209875L15.493 3.06442C15.5921 3.16477 15.6591 3.29221 15.6858 3.43065C15.7125 3.56909 15.6976 3.71232 15.6429 3.84228C15.5894 3.97261 15.4985 4.08417 15.3816 4.1629C15.2648 4.24164 15.1273 4.28403 14.9864 4.28474ZM4.07486 9.78687C4.14175 9.72053 4.19484 9.6416 4.23107 9.55464C4.2673 9.46768 4.28596 9.3744 4.28596 9.28019C4.28596 9.18598 4.2673 9.09271 4.23107 9.00574C4.19484 8.91878 4.14175 8.83985 4.07486 8.77351L2.4335 7.13928H14.9864C15.1756 7.13928 15.3571 7.0641 15.491 6.93026C15.6248 6.79643 15.7 6.61491 15.7 6.42565C15.7 6.23638 15.6248 6.05486 15.491 5.92103C15.3571 5.7872 15.1756 5.71201 14.9864 5.71201H0.713636C0.572746 5.71271 0.435217 5.75511 0.31838 5.83384C0.201544 5.91258 0.110628 6.02414 0.0570909 6.15447C0.00244107 6.28443 -0.0124901 6.42766 0.0141814 6.5661C0.040853 6.70454 0.107932 6.83197 0.206955 6.93233L3.0615 9.78687C3.12784 9.85376 3.20677 9.90685 3.29373 9.94308C3.3807 9.97931 3.47397 9.99797 3.56818 9.99797C3.66239 9.99797 3.75567 9.97931 3.84263 9.94308C3.92959 9.90685 4.00852 9.85376 4.07486 9.78687Z" fill="black"/>
</svg>
