<svg width="25" height="24" viewBox="0 0 25 24" fill="none" xmlns="http://www.w3.org/2000/svg">
<path d="M12.9336 22H11.3225C7.13222 22 5.03709 22 3.73534 20.7447C2.43359 19.4895 2.43359 17.4692 2.43359 13.4286V8H22.4336V10.5" stroke="#88A1AC" stroke-width="1.5" stroke-linecap="round" stroke-linejoin="round"/>
<path d="M18.4336 12C16.2245 12 14.4336 13.8089 14.4336 16.0403C14.4336 17.3163 14.9336 18.3083 15.9336 19.1945C16.6385 19.8191 17.4924 20.8566 18.005 21.6975C18.2509 22.1008 18.5986 22.1008 18.8622 21.6975C19.4008 20.8733 20.2287 19.8191 20.9336 19.1945C21.9336 18.3083 22.4336 17.3163 22.4336 16.0403C22.4336 13.8089 20.6427 12 18.4336 12Z" stroke="#21728D" stroke-width="1.5" stroke-linejoin="round"/>
<path d="M18.4336 16H18.4426" stroke="#21728D" stroke-width="2" stroke-linecap="round" stroke-linejoin="round"/>
<path d="M2.43359 8L3.39513 5.69231C4.14085 3.90257 4.51372 3.0077 5.26949 2.50385C6.02526 2 6.99471 2 8.93359 2H15.9336C17.8725 2 18.8419 2 19.5977 2.50385C20.3535 3.0077 20.7263 3.90257 21.4721 5.69231L22.4336 8" stroke="#88A1AC" stroke-width="1.5" stroke-linecap="round"/>
<path d="M12.4336 8V2" stroke="#88A1AC" stroke-width="1.5" stroke-linecap="round"/>
<path d="M10.4336 12H12.4336" stroke="#88A1AC" stroke-width="1.5" stroke-linecap="round"/>
</svg>
