<svg width="9" height="11" viewBox="0 0 9 11" fill="none" xmlns="http://www.w3.org/2000/svg">
<path d="M3.67185 1V1.97146C3.20932 1.97146 1.12859 2.47224 1.12859 4.07784C1.12859 5.50618 2.63009 5.89502 3.67075 6.02263L3.67185 7.63674C2.91199 7.4524 2.7739 6.95552 2.66839 6.54478H1C1.10326 8.15116 2.76333 8.89826 3.67185 9.01173V10H5.25781V9.02667C6.51322 8.96994 8 8.04859 8 6.78578C8 5.33947 6.51902 4.92894 5.25781 4.81858V3.33897C5.75407 3.36886 6.14131 3.78734 6.18323 4.21328H7.83514C7.83514 2.77852 6.29921 2.02377 5.24133 1.97146V1H3.67185ZM3.68064 3.35298V4.57945C2.56265 4.5645 2.54091 3.52315 3.68064 3.35298ZM5.2765 6.25335C6.65999 6.28324 6.81321 7.45659 5.2743 7.64421L5.2765 6.25335Z" fill="#F58B1B" stroke="#F17D15" stroke-width="0.2"/>
</svg>
