<svg width="18" height="18" viewBox="0 0 18 18" fill="none" xmlns="http://www.w3.org/2000/svg">
<path d="M9 16.5C13.1421 16.5 16.5 13.1421 16.5 9C16.5 4.85786 13.1421 1.5 9 1.5C4.85786 1.5 1.5 4.85786 1.5 9C1.5 13.1421 4.85786 16.5 9 16.5Z" stroke="#2EB2A1" stroke-width="1.5" stroke-linecap="round" stroke-linejoin="round"/>
<path fill-rule="evenodd" clip-rule="evenodd" d="M11.8144 6.59216C11.7778 6.5037 11.7236 6.42082 11.6517 6.34892C11.5797 6.27701 11.4969 6.22275 11.4084 6.18616C11.32 6.14949 11.223 6.12925 11.1213 6.12925L11.1213 6.12925L6.87868 6.12925C6.46447 6.12925 6.12868 6.46503 6.12868 6.87925C6.12868 7.29346 6.46447 7.62925 6.87868 7.62925L9.31066 7.62925L6.34835 10.5916C6.05546 10.8844 6.05546 11.3593 6.34835 11.6522C6.64124 11.9451 7.11612 11.9451 7.40901 11.6522L10.3713 8.68991V11.1219C10.3713 11.5361 10.7071 11.8719 11.1213 11.8719C11.5355 11.8719 11.8713 11.5361 11.8713 11.1219L11.8713 6.87925C11.8713 6.77755 11.8511 6.68059 11.8144 6.59216Z" fill="#2EB2A1"/>
</svg>
