<svg width="74" height="11" viewBox="0 0 74 11" fill="none" xmlns="http://www.w3.org/2000/svg">
<path d="M0.859863 8.00005V1.01005H2.41986V6.61005H5.39986V8.00005H0.859863Z" fill="#88A1AC"/>
<path d="M7.26346 8.00005H5.76346V2.62005H7.26346V8.00005ZM5.88346 1.94005C5.71679 1.76672 5.63346 1.55672 5.63346 1.31005C5.63346 1.06339 5.71679 0.85672 5.88346 0.690054C6.05679 0.51672 6.26679 0.430054 6.51346 0.430054C6.76012 0.430054 6.96679 0.51672 7.13346 0.690054C7.30679 0.85672 7.39346 1.06339 7.39346 1.31005C7.39346 1.55672 7.30679 1.76672 7.13346 1.94005C6.96679 2.10672 6.76012 2.19005 6.51346 2.19005C6.26679 2.19005 6.05679 2.10672 5.88346 1.94005Z" fill="#88A1AC"/>
<path d="M11.8234 5.20005C11.8234 4.76672 11.7034 4.42672 11.4634 4.18005C11.2234 3.93339 10.9267 3.81005 10.5734 3.81005C10.22 3.81005 9.91338 3.93339 9.65338 4.18005C9.40005 4.42672 9.27338 4.76339 9.27338 5.19005C9.27338 5.61672 9.39671 5.96339 9.64338 6.23005C9.89671 6.49005 10.2034 6.62005 10.5634 6.62005C10.9234 6.62005 11.2234 6.49005 11.4634 6.23005C11.7034 5.97005 11.8234 5.62672 11.8234 5.20005ZM12.0334 7.09005C11.56 7.61672 10.97 7.88005 10.2634 7.88005C9.56338 7.88005 8.97005 7.64339 8.48338 7.17005C8.00338 6.69005 7.76338 6.05339 7.76338 5.26005C7.76338 4.46005 8.01005 3.80672 8.50338 3.30005C9.00338 2.78672 9.57338 2.53005 10.2134 2.53005C10.8534 2.53005 11.3834 2.79339 11.8034 3.32005V2.61005H13.3034V7.30005C13.3034 7.78005 13.22 8.20672 13.0534 8.58005C12.8867 8.95339 12.6634 9.24672 12.3834 9.46005C11.83 9.90005 11.1767 10.1201 10.4234 10.1201C10.0234 10.1201 9.61338 10.0534 9.19338 9.92005C8.78005 9.79339 8.41671 9.61005 8.10338 9.37005L8.68338 8.24005C9.17671 8.61339 9.69671 8.80005 10.2434 8.80005C10.7967 8.80005 11.2334 8.66339 11.5534 8.39005C11.8734 8.11672 12.0334 7.68339 12.0334 7.09005Z" fill="#88A1AC"/>
<path d="M15.5933 5.10005V8.00005H14.0933V0.580054H15.5933V3.22005C16.0466 2.76005 16.5533 2.53005 17.1133 2.53005C17.68 2.53005 18.1566 2.73005 18.5433 3.13005C18.93 3.53005 19.1233 4.06339 19.1233 4.73005V8.00005H17.6233V5.06005C17.6233 4.23339 17.32 3.82005 16.7133 3.82005C16.4133 3.82005 16.15 3.93005 15.9233 4.15005C15.7033 4.36339 15.5933 4.68005 15.5933 5.10005Z" fill="#88A1AC"/>
<path d="M21.64 3.70005V6.11005C21.64 6.31672 21.6934 6.48005 21.8 6.60005C21.9067 6.71339 22.0334 6.77005 22.18 6.77005C22.46 6.77005 22.6967 6.64339 22.89 6.39005L23.45 7.44005C22.9834 7.86672 22.49 8.08005 21.97 8.08005C21.4567 8.08005 21.02 7.91005 20.66 7.57005C20.3067 7.23005 20.13 6.76672 20.13 6.18005V3.70005H19.5V2.62005H20.13V1.01005H21.64V2.62005H22.94V3.70005H21.64Z" fill="#88A1AC"/>
<path d="M25.1243 5.00005V8.00005H23.6243V2.62005H25.1243V3.22005C25.5777 2.76005 26.0876 2.53005 26.6543 2.53005C27.221 2.53005 27.6943 2.73005 28.0743 3.13005C28.461 3.53005 28.6543 4.06339 28.6543 4.73005V8.00005H27.1543V4.96005C27.1543 4.13339 26.851 3.72005 26.2443 3.72005C25.9443 3.72005 25.681 3.83005 25.4543 4.05005C25.2343 4.26339 25.1243 4.58005 25.1243 5.00005Z" fill="#88A1AC"/>
<path d="M30.881 8.00005H29.381V2.62005H30.881V8.00005ZM29.501 1.94005C29.3344 1.76672 29.251 1.55672 29.251 1.31005C29.251 1.06339 29.3344 0.85672 29.501 0.690054C29.6744 0.51672 29.8844 0.430054 30.131 0.430054C30.3777 0.430054 30.5844 0.51672 30.751 0.690054C30.9244 0.85672 31.011 1.06339 31.011 1.31005C31.011 1.55672 30.9244 1.76672 30.751 1.94005C30.5844 2.10672 30.3777 2.19005 30.131 2.19005C29.8844 2.19005 29.6744 2.10672 29.501 1.94005Z" fill="#88A1AC"/>
<path d="M33.171 5.00005V8.00005H31.671V2.62005H33.171V3.22005C33.6243 2.76005 34.1343 2.53005 34.701 2.53005C35.2676 2.53005 35.741 2.73005 36.121 3.13005C36.5076 3.53005 36.701 4.06339 36.701 4.73005V8.00005H35.201V4.96005C35.201 4.13339 34.8976 3.72005 34.291 3.72005C33.991 3.72005 33.7276 3.83005 33.501 4.05005C33.281 4.26339 33.171 4.58005 33.171 5.00005Z" fill="#88A1AC"/>
<path d="M41.1977 5.20005C41.1977 4.76672 41.0777 4.42672 40.8377 4.18005C40.5977 3.93339 40.301 3.81005 39.9477 3.81005C39.5943 3.81005 39.2877 3.93339 39.0277 4.18005C38.7743 4.42672 38.6477 4.76339 38.6477 5.19005C38.6477 5.61672 38.771 5.96339 39.0177 6.23005C39.271 6.49005 39.5777 6.62005 39.9377 6.62005C40.2977 6.62005 40.5977 6.49005 40.8377 6.23005C41.0777 5.97005 41.1977 5.62672 41.1977 5.20005ZM41.4077 7.09005C40.9343 7.61672 40.3443 7.88005 39.6377 7.88005C38.9377 7.88005 38.3443 7.64339 37.8577 7.17005C37.3777 6.69005 37.1377 6.05339 37.1377 5.26005C37.1377 4.46005 37.3843 3.80672 37.8777 3.30005C38.3777 2.78672 38.9477 2.53005 39.5877 2.53005C40.2277 2.53005 40.7577 2.79339 41.1777 3.32005V2.61005H42.6777V7.30005C42.6777 7.78005 42.5943 8.20672 42.4277 8.58005C42.261 8.95339 42.0377 9.24672 41.7577 9.46005C41.2043 9.90005 40.551 10.1201 39.7977 10.1201C39.3977 10.1201 38.9877 10.0534 38.5677 9.92005C38.1543 9.79339 37.791 9.61005 37.4777 9.37005L38.0577 8.24005C38.551 8.61339 39.071 8.80005 39.6177 8.80005C40.171 8.80005 40.6077 8.66339 40.9277 8.39005C41.2477 8.11672 41.4077 7.68339 41.4077 7.09005Z" fill="#88A1AC"/>
<path d="M47.8043 5.03005L49.0443 1.01005H50.6743L51.9043 5.03005L53.2943 1.01005H54.9843L52.5443 8.00005H51.3843L49.8543 3.14005L48.3343 8.00005H47.1743L44.7343 1.01005H46.4243L47.8043 5.03005Z" fill="#88A1AC"/>
<path d="M59.2581 8.00005H57.8481V7.35005C57.4614 7.83672 56.9814 8.08005 56.4081 8.08005C55.8414 8.08005 55.3647 7.91672 54.9781 7.59005C54.5914 7.25672 54.3981 6.81672 54.3981 6.27005C54.3981 5.71672 54.5981 5.30339 54.9981 5.03005C55.3981 4.75672 55.9447 4.62005 56.6381 4.62005H57.7581V4.59005C57.7581 4.01672 57.4547 3.73005 56.8481 3.73005C56.5881 3.73005 56.3114 3.78339 56.0181 3.89005C55.7314 3.99005 55.4881 4.11672 55.2881 4.27005L54.6181 3.30005C55.3247 2.78672 56.1314 2.53005 57.0381 2.53005C57.6914 2.53005 58.2247 2.69339 58.6381 3.02005C59.0514 3.34672 59.2581 3.86339 59.2581 4.57005V8.00005ZM57.7481 5.95005V5.69005H56.8081C56.2081 5.69005 55.9081 5.87672 55.9081 6.25005C55.9081 6.44339 55.9781 6.59339 56.1181 6.70005C56.2647 6.80005 56.4714 6.85005 56.7381 6.85005C57.0047 6.85005 57.2381 6.77005 57.4381 6.61005C57.6447 6.44339 57.7481 6.22339 57.7481 5.95005Z" fill="#88A1AC"/>
<path d="M61.4956 8.00005H59.9956V0.580054H61.4956V8.00005Z" fill="#88A1AC"/>
<path d="M63.7855 8.00005H62.2855V0.580054H63.7855V8.00005Z" fill="#88A1AC"/>
<path d="M69.2354 7.22005C68.6287 7.79339 67.9154 8.08005 67.0954 8.08005C66.2821 8.08005 65.6087 7.83005 65.0754 7.33005C64.5421 6.82339 64.2754 6.14672 64.2754 5.30005C64.2754 4.45339 64.5454 3.78005 65.0854 3.28005C65.6321 2.78005 66.2754 2.53005 67.0154 2.53005C67.7554 2.53005 68.3821 2.75339 68.8954 3.20005C69.4154 3.64672 69.6754 4.26005 69.6754 5.04005V5.84005H65.7554C65.8021 6.13339 65.9554 6.37339 66.2154 6.56005C66.4754 6.74672 66.7687 6.84005 67.0954 6.84005C67.6221 6.84005 68.0554 6.66339 68.3954 6.31005L69.2354 7.22005ZM68.1554 4.77005C68.1221 4.45005 68.0021 4.20339 67.7954 4.03005C67.5888 3.85672 67.3354 3.77005 67.0354 3.77005C66.7421 3.77005 66.4721 3.86005 66.2254 4.04005C65.9788 4.22005 65.8354 4.46339 65.7954 4.77005H68.1554Z" fill="#88A1AC"/>
<path d="M71.8585 3.70005V6.11005C71.8585 6.31672 71.9118 6.48005 72.0185 6.60005C72.1251 6.71339 72.2518 6.77005 72.3985 6.77005C72.6785 6.77005 72.9151 6.64339 73.1085 6.39005L73.6685 7.44005C73.2018 7.86672 72.7085 8.08005 72.1885 8.08005C71.6751 8.08005 71.2385 7.91005 70.8785 7.57005C70.5251 7.23005 70.3485 6.76672 70.3485 6.18005V3.70005H69.7185V2.62005H70.3485V1.01005H71.8585V2.62005H73.1585V3.70005H71.8585Z" fill="#88A1AC"/>
</svg>
