<svg width="38" height="38" viewBox="0 0 38 38" fill="none" xmlns="http://www.w3.org/2000/svg">
<circle cx="19" cy="19" r="19" fill="#7B1AF7"/>
<path d="M24.6618 8.02387C24.7937 8.11657 24.8903 8.25126 24.9357 8.40593C24.9812 8.5606 24.9728 8.72611 24.912 8.87542L21.6286 16.9591L26.3458 17.3718C26.4845 17.3839 26.6165 17.4363 26.7257 17.5226C26.8349 17.6088 26.9164 17.7252 26.9603 17.8573C27.0041 17.9893 27.0083 18.1314 26.9723 18.2658C26.9363 18.4002 26.8618 18.5212 26.7579 18.6137L14.3456 29.6866C14.2255 29.7938 14.0726 29.8572 13.9118 29.8664C13.7511 29.8756 13.5919 29.8301 13.4604 29.7373C13.3288 29.6445 13.2325 29.5099 13.1873 29.3553C13.142 29.2008 13.1504 29.0355 13.2111 28.8864L16.4947 20.8013L11.7775 20.3886C11.6388 20.3765 11.5068 20.3241 11.3976 20.2378C11.2884 20.1516 11.2068 20.0352 11.163 19.9031C11.1192 19.771 11.115 19.629 11.151 19.4946C11.187 19.3602 11.2615 19.2392 11.3654 19.1467L23.7777 8.07384C23.8977 7.96675 24.0503 7.90339 24.2109 7.89406C24.3714 7.88473 24.5304 7.92998 24.6619 8.02245L24.6618 8.02387Z" fill="white"/>
</svg>
