<svg width="24" height="24" viewBox="0 0 24 24" fill="none" xmlns="http://www.w3.org/2000/svg">
<path d="M16.7946 7.78125L20.7187 3.85714L19.2857 2.42411L15.3616 6.34821L16.7946 7.78125ZM22.7812 3.85714C22.7812 4.09821 22.7009 4.29911 22.5402 4.45982L5.31696 21.683C5.15625 21.8437 4.95536 21.9241 4.71429 21.9241C4.47321 21.9241 4.27232 21.8437 4.11161 21.683L1.45982 19.0312C1.29911 18.8705 1.21875 18.6696 1.21875 18.4286C1.21875 18.1875 1.29911 17.9866 1.45982 17.8259L18.683 0.602679C18.8437 0.441964 19.0446 0.361607 19.2857 0.361607C19.5268 0.361607 19.7277 0.441964 19.8884 0.602679L22.5402 3.25446C22.7009 3.41518 22.7812 3.61607 22.7812 3.85714ZM4.6875 1.3125L6 1.71429L4.6875 2.11607L4.28571 3.42857L3.88393 2.11607L2.57143 1.71429L3.88393 1.3125L4.28571 0L4.6875 1.3125ZM9.375 3.48214L12 4.28571L9.375 5.08929L8.57143 7.71429L7.76786 5.08929L5.14286 4.28571L7.76786 3.48214L8.57143 0.857143L9.375 3.48214ZM21.8304 9.88393L23.1429 10.2857L21.8304 10.6875L21.4286 12L21.0268 10.6875L19.7143 10.2857L21.0268 9.88393L21.4286 8.57143L21.8304 9.88393ZM13.2589 1.3125L14.5714 1.71429L13.2589 2.11607L12.8571 3.42857L12.4554 2.11607L11.1429 1.71429L12.4554 1.3125L12.8571 0L13.2589 1.3125Z" fill="white"/>
</svg>
