<svg width="48" height="48" viewBox="0 0 48 48" fill="none" xmlns="http://www.w3.org/2000/svg">
<rect x="4" y="4" width="40" height="40" rx="20" fill="black"/>
<rect x="2" y="2" width="44" height="44" rx="22" stroke="#88A1AC" stroke-opacity="0.1" stroke-width="4"/>
<path fill-rule="evenodd" clip-rule="evenodd" d="M15.836 17.5078V31.7372H13.375V32.8281H19.7939V24.0392L25.5011 32.8281L28.2424 32.8281L33.7656 32.8281L34.6613 32.8281V31.7372H33.0117L32.7267 31.3249L32.2003 30.4341V15.0938H28.2424V23.9845L22.584 15.0938H19.5402H15.836H14.2344L15.2781 16.5189L15.836 17.5078ZM24.8793 21.2026C24.7535 21.1121 24.5201 20.9447 24.3606 20.8307C24.2012 20.7167 23.9263 20.5172 23.7497 20.3874C23.5732 20.2576 23.3836 20.1211 23.3286 20.0841C23.2735 20.0471 23.0847 19.9103 22.9091 19.78C22.7335 19.6496 22.5127 19.4892 22.4184 19.4233C22.3242 19.3574 22.1354 19.2206 21.9989 19.1192C21.8622 19.0179 21.6204 18.8414 21.4613 18.7272C21.3021 18.613 21.0809 18.4527 20.9697 18.371C20.4062 17.9569 19.9168 17.61 19.8338 17.5656C19.7828 17.5384 19.731 17.4974 19.7189 17.4746C19.7068 17.4518 19.6755 17.4314 19.6495 17.4292C19.6234 17.427 19.5635 17.3918 19.5162 17.3509L19.4304 17.2766L19.5057 17.3872C19.547 17.448 19.6573 17.5792 19.7509 17.6785L20.0816 18.0299C20.1699 18.1237 20.2739 18.2379 20.3125 18.2836C20.381 18.3645 20.5691 18.5745 20.8883 18.9264C20.9745 19.0215 21.1051 19.1689 21.1785 19.2542C21.252 19.3393 21.3638 19.4629 21.4271 19.5286C21.4904 19.5944 21.5911 19.7103 21.651 19.7861C21.7108 19.8621 21.8155 19.9826 21.8835 20.0542C21.9516 20.1256 22.0631 20.2494 22.1314 20.329C22.2509 20.4684 22.474 20.7155 22.693 20.9511C22.8753 21.1473 22.8511 21.1867 22.4641 21.3237C22.3249 21.3731 22.1321 21.4432 22.0356 21.4795C21.9391 21.5159 21.7531 21.5821 21.6223 21.6265C21.4915 21.6711 21.2777 21.7444 21.1473 21.7896C21.0168 21.8347 20.8693 21.8839 20.8194 21.899C20.7247 21.9276 20.8232 22.1215 20.9397 22.136C20.9636 22.139 20.9928 22.1592 21.0043 22.181C21.0159 22.2028 21.0815 22.2635 21.15 22.316C21.2658 22.4047 21.4298 22.5352 21.5894 22.6657C21.7054 22.7607 21.9254 22.9335 22.0396 23.0194C22.0999 23.065 22.1627 23.1272 22.179 23.1577C22.1952 23.1882 22.2285 23.2154 22.253 23.2181C22.2775 23.2208 22.3394 23.2618 22.3906 23.3091C22.4419 23.3564 22.5421 23.4387 22.6134 23.4919C22.6848 23.5451 22.7716 23.6209 22.8065 23.6604C22.8414 23.6998 22.8907 23.736 22.9161 23.7409C22.9413 23.7458 23.0021 23.788 23.0509 23.8349C23.1755 23.9544 23.3266 24.081 23.3897 24.1185C23.4589 24.1596 23.6452 24.3186 23.7161 24.3968C23.7465 24.4303 23.792 24.4618 23.8172 24.4667C23.8424 24.4717 23.9025 24.5143 23.9509 24.5614C23.9992 24.6084 24.0967 24.6907 24.1677 24.7441C24.2387 24.7975 24.3337 24.8758 24.3788 24.9181C24.4238 24.9604 24.5188 25.0386 24.5898 25.092C24.6608 25.1454 24.7589 25.2283 24.808 25.2761C24.8569 25.3239 24.9188 25.3648 24.9456 25.3671C24.9723 25.3693 25.0092 25.3994 25.0275 25.434C25.0459 25.4686 25.1027 25.5204 25.1538 25.5491C25.5154 25.7527 25.4128 25.9405 24.9017 26.0105C24.86 26.0162 24.7992 26.035 24.7665 26.0524C24.7095 26.0828 24.4644 26.1585 24.1366 26.247C23.8239 26.3315 23.8275 26.3856 24.1646 26.6738C24.408 26.8817 24.5756 27.0382 24.6479 27.1247C24.6863 27.1706 24.7374 27.2119 24.7614 27.2164C24.7855 27.2209 24.852 27.2736 24.9093 27.3336C24.9664 27.3936 25.0765 27.497 25.1537 27.5637C25.231 27.6303 25.3299 27.7201 25.3735 27.7631C25.4725 27.9132 26.3239 28.6537 26.8813 29.1385C27.1554 29.377 27.3584 29.5535 27.3659 29.5677C27.3886 29.6105 27.4272 29.6433 27.4515 29.6406C27.4758 29.6379 27.5076 29.6582 27.5222 29.6857C27.5369 29.7131 27.6063 29.7872 27.6765 29.8504C27.7468 29.9135 27.8734 30.0301 27.9578 30.1094C28.0422 30.1888 28.2068 30.3386 28.3233 30.4423C28.44 30.5459 28.5561 30.6536 28.5815 30.6816C28.6069 30.7095 28.6532 30.6238 28.6064 30.5328C28.5595 30.4417 28.509 30.3601 28.4943 30.3514C28.4796 30.3426 28.3889 30.2282 28.2928 30.097C28.1967 29.9659 28.0264 29.7446 27.9144 29.6053C27.8024 29.4661 27.6427 29.2664 27.5596 29.1618C27.384 28.9409 26.3053 27.6767 26.3053 27.6767C26.2995 27.6698 26.2914 27.6591 26.2777 27.6409C26.2292 27.5766 26.1102 27.419 25.7729 27.0085C25.5197 26.7004 25.5253 26.5548 25.7904 26.5562C25.8149 26.5564 25.9349 26.5265 26.0571 26.49C26.1793 26.4535 26.506 26.3571 26.7832 26.2758C27.0605 26.1945 27.3005 26.121 27.3165 26.1124C27.3636 26.0874 27.312 26.0204 27.1257 25.8647C26.9018 25.6776 25.2262 24.2235 24.9105 23.9425C24.8451 23.8842 24.0369 23.1916 23.6956 22.9014C23.5277 22.7587 23.3541 22.6071 23.3095 22.5645C23.265 22.5219 23.1553 22.4249 23.0657 22.3489C22.9762 22.273 22.9037 22.1943 22.9047 22.174C22.9048 22.173 22.9048 22.1721 22.9048 22.1711C22.905 22.1668 22.9051 22.1628 22.9068 22.1589C22.92 22.1268 23.0318 22.0923 24.0552 21.7763L24.1371 21.751C24.6525 21.5919 25.0865 21.4473 25.1014 21.4298L25.1029 21.4281C25.1091 21.4207 25.1142 21.4147 25.1169 21.4087C25.1287 21.3819 25.0917 21.3553 24.8903 21.2105L24.8793 21.2026Z" fill="white"/>
</svg>
