<svg width="80" height="10" viewBox="0 0 80 10" fill="none" xmlns="http://www.w3.org/2000/svg">
<path d="M2.32821 9.39799V0.213989H4.37222L9.17422 6.51399V0.213989H11.3582V9.39799H12.7162V9.99999H9.17422L4.51222 3.86799V9.99999H0.970215V9.39799H2.32821Z" fill="#88A1AC"/>
<path d="M17.6596 9.39799V9.99999H13.0676V9.39799H14.2716V0.213989H16.4556V9.39799H17.6596Z" fill="#88A1AC"/>
<path d="M19.3653 9.39799V0.213989H21.4093L26.2113 6.51399V0.213989H28.3953V9.39799H29.7533V9.99999H26.2113L21.5493 3.86799V9.99999H18.0073V9.39799H19.3653Z" fill="#88A1AC"/>
<path d="M37.8887 9.39799V9.99999H30.1047V9.39799H31.7707C31.3134 9.19266 30.8794 8.87532 30.4687 8.44599L31.6027 6.83599C32.1907 7.47066 32.8067 7.78799 33.4507 7.78799C33.7587 7.78799 34.02 7.66666 34.2347 7.42399C34.4587 7.18132 34.5707 6.82666 34.5707 6.35999V2.08999H31.6727V0.213989H36.7687V6.31799C36.7687 7.80199 36.2647 8.82866 35.2567 9.39799H37.8887Z" fill="#88A1AC"/>
<path d="M50.242 9.39799V9.99999H46.56L45.65 7.88599H41.548L40.638 9.99999H36.956V9.39799H38.566L42.542 0.213989H44.656L48.618 9.39799H50.242ZM43.606 3.12599L42.374 5.96799H44.824L43.606 3.12599Z" fill="#88A1AC"/>
<path d="M58.7936 9.39799V9.99999H49.1616V9.39799H50.5196V0.213989H53.9776C55.4803 0.213989 56.5723 0.507989 57.2536 1.09599C57.9443 1.67466 58.2896 2.57066 58.2896 3.78399C58.2896 4.98799 57.935 5.86999 57.2256 6.42999C56.5256 6.98999 55.4523 7.26999 54.0056 7.26999H52.7036V9.39799H58.7936ZM54.1736 5.37999C54.9016 5.37999 55.3963 5.23532 55.6576 4.94599C55.919 4.64732 56.0496 4.21799 56.0496 3.65799C56.0496 3.08866 55.877 2.68732 55.5316 2.45399C55.1956 2.21132 54.6683 2.08999 53.9496 2.08999H52.7036V5.37999H54.1736Z" fill="#88A1AC"/>
<path d="M71.1482 9.39799V9.99999H67.4662L66.5562 7.88599H62.4542L61.5442 9.99999H57.8622V9.39799H59.4722L63.4482 0.213989H65.5622L69.5242 9.39799H71.1482ZM64.5122 3.12599L63.2802 5.96799H65.7302L64.5122 3.12599Z" fill="#88A1AC"/>
<path d="M78.8739 9.39799V9.99999H70.2219V9.39799H73.4559V6.13599L70.0679 0.213989H72.4339L74.5479 3.85399L76.6619 0.213989H79.0279L75.6399 6.13599V9.39799H78.8739Z" fill="#88A1AC"/>
</svg>
