<svg width="70" height="70" viewBox="0 0 70 70" fill="none" xmlns="http://www.w3.org/2000/svg">
<path fill-rule="evenodd" clip-rule="evenodd" d="M35 0C15.6653 0 0 15.6653 0 35C0 54.3347 15.6653 70 35 70C54.3347 70 70 54.3347 70 35C70 15.6653 54.3347 0 35 0ZM35 63.2258C19.4335 63.2258 6.77419 50.5665 6.77419 35C6.77419 19.4335 19.4335 6.77419 35 6.77419C50.5665 6.77419 63.2258 19.4335 63.2258 35C63.2258 50.5665 50.5665 63.2258 35 63.2258ZM28.2258 28.2258C28.2258 30.7238 26.2077 32.7419 23.7097 32.7419C21.2117 32.7419 19.1935 30.7238 19.1935 28.2258C19.1935 25.7278 21.2117 23.7097 23.7097 23.7097C26.2077 23.7097 28.2258 25.7278 28.2258 28.2258ZM46.2903 23.7097C43.7923 23.7097 41.7742 25.7278 41.7742 28.2258C41.7742 30.7238 43.7923 32.7419 46.2903 32.7419C48.7883 32.7419 50.8064 30.7238 50.8064 28.2258C50.8064 25.7278 48.7883 23.7097 46.2903 23.7097ZM20.3508 48.6331C23.9919 44.2722 29.3266 41.7742 35 41.7742C40.6734 41.7742 46.0081 44.2722 49.6492 48.6331C50.8347 50.0726 50.6512 52.2036 49.2117 53.4032C47.7016 54.6452 45.5847 54.3347 44.4415 52.9657C42.0988 50.1431 38.6552 48.5343 35 48.5343C31.3448 48.5343 27.9012 50.1573 25.5585 52.9657C24.3589 54.4052 22.2278 54.5887 20.7883 53.4032C19.3488 52.2036 19.1512 50.0726 20.3508 48.6331Z" fill="#88A1AC"/>
</svg>
