<svg width="26" height="26" viewBox="0 0 26 26" fill="none" xmlns="http://www.w3.org/2000/svg">
<g clip-path="url(#clip0_16104_34312)">
<path d="M10.8335 14.083C11.2987 14.7049 11.8923 15.2196 12.5739 15.592C13.2556 15.9644 14.0093 16.1858 14.784 16.2413C15.5588 16.2968 16.3364 16.185 17.0641 15.9136C17.7919 15.6421 18.4527 15.2173 19.0018 14.668L22.2518 11.418C23.2385 10.3964 23.7845 9.02811 23.7721 7.60788C23.7598 6.18765 23.1901 4.82908 22.1858 3.82479C21.1816 2.82049 19.823 2.25083 18.4028 2.23849C16.9825 2.22614 15.6143 2.77211 14.5927 3.7588L12.7293 5.6113" stroke="#88A1AC" stroke-width="3.7" stroke-linecap="round" stroke-linejoin="round"/>
<path d="M15.1669 11.9183C14.7016 11.2963 14.1081 10.7817 13.4265 10.4093C12.7448 10.0369 11.9911 9.81542 11.2163 9.75993C10.4416 9.70445 9.664 9.81623 8.93626 10.0877C8.20852 10.3592 7.54768 10.784 6.99855 11.3333L3.74855 14.5833C2.76186 15.6049 2.21589 16.9732 2.22823 18.3934C2.24057 19.8136 2.81024 21.1722 3.81453 22.1765C4.81883 23.1808 6.17739 23.7504 7.59763 23.7628C9.01786 23.7751 10.3861 23.2292 11.4077 22.2425L13.2602 20.39" stroke="#88A1AC" stroke-width="3.7" stroke-linecap="round" stroke-linejoin="round"/>
</g>
<defs>
<clipPath id="clip0_16104_34312">
<rect width="26" height="26" fill="white"/>
</clipPath>
</defs>
</svg>
