<svg width="24" height="24" viewBox="0 0 24 24" fill="none" xmlns="http://www.w3.org/2000/svg">
<path d="M4.48636 11.9485L4.48636 11.9482C4.52929 7.7342 7.9398 4.3965 12.0324 4.40638H12.0337C16.2293 4.40638 19.6038 7.81688 19.5809 12.1122C19.5545 16.343 16.1029 19.7022 11.9611 19.6627L11.9607 19.6626C7.86992 19.6264 4.44013 16.2414 4.48636 11.9485Z" fill="white" stroke="#CFD8DC"/>
<path d="M21 18.5C21 19.881 19.881 21 18.5 21H5.5C4.1195 21 3 19.881 3 18.5V5.5C3 4.119 4.1195 3 5.5 3H18.5C19.881 3 21 4.119 21 5.5V18.5Z" fill="#CFD8DC"/>
<path d="M15.3891 10.679C15.6387 10.4364 15.8777 10.3415 16.166 10.4083C16.3207 10.4435 16.4613 10.4962 16.5492 10.6298C16.6055 10.7106 16.6371 10.6896 16.6934 10.6333C16.9359 10.3802 17.2242 10.3204 17.5406 10.461C17.8605 10.6017 17.9871 10.8618 17.9836 11.2099C17.9766 11.8849 17.9801 12.5564 17.9801 13.2314C17.9801 13.5302 17.843 13.6673 17.5406 13.6743C17.1645 13.6849 17.1645 13.6849 17.1645 13.3192C17.1645 12.7146 17.1645 12.1134 17.1645 11.5087C17.1645 11.238 17.1117 11.1606 16.9359 11.1571C16.7602 11.1536 16.6934 11.2485 16.6934 11.5228C16.6934 12.0747 16.6934 12.6231 16.6934 13.1751C16.6934 13.5407 16.5598 13.6743 16.2012 13.6778C15.8672 13.6778 15.8672 13.6778 15.8672 13.3474C15.8672 12.7216 15.8672 12.0958 15.8672 11.4665C15.8672 11.2521 15.7969 11.1571 15.6422 11.1571C15.4805 11.1571 15.3961 11.2591 15.3961 11.47C15.3961 12.0501 15.3961 12.6302 15.3961 13.2103C15.3961 13.5302 15.2555 13.6708 14.9355 13.6743C14.5699 13.6814 14.5699 13.6814 14.5699 13.3087C14.5699 12.4192 14.5734 11.5298 14.5664 10.6403C14.5664 10.4786 14.6121 10.4399 14.7633 10.4505C14.9145 10.4646 15.0691 10.461 15.2203 10.4505C15.3504 10.4399 15.4313 10.4646 15.3891 10.679Z" fill="#00ADEE"/>
<path d="M10.1772 12C10.1772 12.3445 10.1808 12.6891 10.1772 13.0371C10.1702 13.4449 9.95576 13.6594 9.54443 13.6699C9.34404 13.6734 9.14717 13.677 8.94678 13.6699C8.51436 13.6523 8.24365 13.3746 8.23311 12.9422C8.22959 12.7031 8.22959 12.4605 8.23311 12.2215C8.24014 11.8277 8.51436 11.5395 8.90811 11.5043C9.01709 11.4937 9.12959 11.4973 9.24209 11.4973C9.34404 11.4973 9.42842 11.4797 9.42842 11.3461C9.42842 11.216 9.35811 11.1879 9.24561 11.1949C9.14717 11.1984 9.04521 11.1949 8.94678 11.1949C8.68662 11.1914 8.54248 11.0578 8.5249 10.8047C8.50029 10.4531 8.50029 10.4531 8.84834 10.4531C9.12959 10.4531 9.41084 10.4531 9.69209 10.4531C9.99092 10.4531 10.1702 10.6289 10.1737 10.9312C10.1808 11.2828 10.1772 11.6414 10.1772 12ZM9.43193 12.559C9.43193 12.4641 9.43193 12.3727 9.43193 12.2777C9.43193 12.232 9.43545 12.1934 9.36514 12.1793C9.09795 12.1301 8.97842 12.225 8.97842 12.4957C8.97842 12.559 8.9749 12.6258 8.97842 12.6891C8.98897 12.8684 9.07334 12.9176 9.31592 12.9211C9.51631 12.9246 9.41084 12.7805 9.43193 12.6996C9.44248 12.6539 9.43193 12.6047 9.43193 12.559Z" fill="#0D47A1"/>
<path d="M12.3779 11.8233C12.3603 12.1749 12.4165 12.6108 12.3533 13.0397C12.3005 13.4053 12.0966 13.6022 11.731 13.6479C11.4287 13.6866 11.1228 13.6584 10.8169 13.6655C10.7853 13.6655 10.7326 13.6725 10.7326 13.6268C10.7396 13.4334 10.6658 13.226 10.8099 13.0502C10.8873 12.9518 10.9927 12.9096 11.1193 12.9131C11.2353 12.9131 11.3548 12.9131 11.4708 12.9131C11.5728 12.9131 11.6185 12.8639 11.6185 12.7584C11.6185 12.653 11.5658 12.6143 11.4638 12.6143C11.3654 12.6178 11.2634 12.6178 11.165 12.6143C10.7326 12.5932 10.4373 12.3084 10.4267 11.8795C10.4162 11.4401 10.4267 11.0006 10.4232 10.5612C10.4232 10.4663 10.4548 10.4381 10.5462 10.4452C10.7537 10.4592 11.0173 10.3608 11.1544 10.4874C11.2669 10.5893 11.179 10.853 11.1826 11.0463C11.1861 11.2467 11.1826 11.4436 11.1826 11.644C11.1826 11.7952 11.2599 11.869 11.4111 11.8655C11.5587 11.862 11.6185 11.7776 11.6185 11.6405C11.6185 11.2889 11.622 10.9374 11.615 10.5858C11.6115 10.4803 11.6396 10.4381 11.7521 10.4452C11.9173 10.4557 12.079 10.4557 12.2443 10.4452C12.3533 10.4381 12.3814 10.4803 12.3814 10.5858C12.3744 10.969 12.3779 11.3557 12.3779 11.8233Z" fill="#0D47A1"/>
<path d="M6.10508 12.275C6.10508 11.8812 6.10508 11.491 6.10508 11.0973C6.10859 10.6719 6.33008 10.4504 6.75547 10.4469C6.96641 10.4469 7.17734 10.4434 7.38828 10.4469C7.76445 10.4539 8.04922 10.7211 8.05625 11.0973C8.06679 11.484 8.06679 11.8707 8.05625 12.2574C8.04922 12.616 7.78554 12.8762 7.42344 12.9113C7.39531 12.9148 7.36367 12.9148 7.33555 12.9148C7.18789 12.9148 7.01211 12.8656 6.90312 12.9324C6.77656 13.0062 6.875 13.1996 6.85039 13.3367C6.81875 13.5266 6.68164 13.6496 6.47422 13.6672C6.10156 13.6953 6.10156 13.6953 6.10156 13.3297C6.10508 12.9781 6.10508 12.6266 6.10508 12.275ZM6.85039 11.6633C6.85039 11.7934 6.85039 11.9199 6.85039 12.05C6.85039 12.0887 6.83633 12.1484 6.88203 12.159C6.99101 12.1801 7.10351 12.1871 7.20898 12.1414C7.30039 12.1027 7.31445 12.0254 7.31445 11.9375C7.31094 11.7793 7.31445 11.6211 7.31445 11.4629C7.31445 11.2309 7.26875 11.2027 7.01914 11.1852C6.78711 11.1676 6.86445 11.3223 6.85391 11.4348C6.84687 11.5121 6.85039 11.5895 6.85039 11.6633Z" fill="#0D47A1"/>
<path d="M13.0781 12.2988C13.0781 11.9824 13.0746 11.6659 13.0816 11.3495C13.0852 11.23 13.057 11.1878 12.9305 11.1878C12.6316 11.1949 12.6281 11.1878 12.6316 10.8855C12.6316 10.7519 12.5895 10.5937 12.6492 10.4882C12.7055 10.3863 12.8813 10.4355 13.0008 10.3968C13.1836 10.3406 13.3172 10.2245 13.4332 10.0839C13.5211 9.97845 13.616 9.88353 13.7531 9.8554C13.8445 9.83431 13.9184 9.83782 13.9008 9.9679C13.8973 9.99603 13.9008 10.0277 13.9008 10.0558C13.9043 10.1788 13.8656 10.3265 13.9219 10.4144C13.9816 10.5023 14.1399 10.439 14.2524 10.446C14.3297 10.4495 14.3543 10.4777 14.3508 10.5515C14.3473 10.7273 14.3438 10.9031 14.3508 11.0788C14.3543 11.1738 14.3156 11.1949 14.2277 11.1949C13.8973 11.2054 13.8973 11.2089 13.8973 11.5359C13.8973 12.1898 13.8938 12.8472 13.9008 13.5011C13.9008 13.6312 13.8691 13.6839 13.7356 13.6663C13.6477 13.6558 13.5598 13.6699 13.4719 13.6593C13.2152 13.6277 13.0781 13.4695 13.0746 13.2128C13.0781 12.907 13.0781 12.6046 13.0781 12.2988Z" fill="#00ADEE"/>
</svg>
