<svg width="14" height="22" viewBox="0 0 14 22" fill="none" xmlns="http://www.w3.org/2000/svg">
<path d="M11.6875 0H2.0625C0.923828 0 0 0.923828 0 2.0625V19.9375C0 21.0762 0.923828 22 2.0625 22H11.6875C12.8262 22 13.75 21.0762 13.75 19.9375V2.0625C13.75 0.923828 12.8262 0 11.6875 0ZM6.875 20.625C6.11445 20.625 5.5 20.0105 5.5 19.25C5.5 18.4895 6.11445 17.875 6.875 17.875C7.63555 17.875 8.25 18.4895 8.25 19.25C8.25 20.0105 7.63555 20.625 6.875 20.625ZM11.6875 15.9844C11.6875 16.268 11.4555 16.5 11.1719 16.5H2.57812C2.29453 16.5 2.0625 16.268 2.0625 15.9844V2.57812C2.0625 2.29453 2.29453 2.0625 2.57812 2.0625H11.1719C11.4555 2.0625 11.6875 2.29453 11.6875 2.57812V15.9844Z" fill="url(#paint0_angular_297_1060)"/>
<defs>
<radialGradient id="paint0_angular_297_1060" cx="0" cy="0" r="1" gradientUnits="userSpaceOnUse" gradientTransform="translate(6.875 11) scale(6.875 11)">
<stop offset="0.5" stop-color="#F17D15"/>
<stop offset="0.5" stop-color="#FCAC27"/>
</radialGradient>
</defs>
</svg>
