<svg width="24" height="24" viewBox="0 0 24 24" fill="none" xmlns="http://www.w3.org/2000/svg">
<path d="M21 18.5C21 19.881 19.881 21 18.5 21H5.5C4.1195 21 3 19.881 3 18.5V5.5C3 4.119 4.1195 3 5.5 3H18.5C19.881 3 21 4.119 21 5.5V18.5Z" fill="#4527A0"/>
<path d="M16.1347 10.0854C16.1347 9.74486 15.8427 9.45336 15.5027 9.45336H14.3357L11.6607 6.32836C11.4177 6.03636 11.0287 5.93936 10.6392 6.03636L9.71519 6.32836C9.56919 6.37686 9.52069 6.57136 9.61769 6.66886L12.5357 9.50186H8.11019C7.96419 9.50186 7.86719 9.59936 7.86719 9.74486V10.2314C7.86719 10.5719 8.15919 10.9844 8.49919 10.9844H9.48519V13.1369C9.48519 14.8879 10.2907 15.9089 11.8467 15.9089C12.3332 15.9089 12.5357 15.8604 13.0217 15.6659V17.2219C13.0217 17.6594 13.3622 17.9999 13.7997 17.9999H14.1927C14.3387 17.9999 14.4847 17.8539 14.4847 17.7079V10.9844H15.8907C16.0367 10.9844 16.1337 10.8869 16.1337 10.7414V10.0854H16.1347ZM13.0227 14.2064C12.7307 14.3524 12.3417 14.4009 12.0502 14.4009C11.2722 14.4009 11.0017 14.0119 11.0017 13.1364V10.9839H13.0232V14.2064H13.0227Z" fill="#CFD8DC"/>
</svg>
