<svg width="142" height="12" viewBox="0 0 142 12" fill="none" xmlns="http://www.w3.org/2000/svg">
<path d="M2.4 2.796C3.46 2.796 4.23333 2.99933 4.72 3.406C5.20667 3.81267 5.45 4.43933 5.45 5.286C5.45 6.13267 5.2 6.75267 4.7 7.146C4.20667 7.53933 3.44667 7.736 2.42 7.736H1.18V9.786H0V2.796H2.4ZM2.55 6.666C3.20333 6.666 3.64667 6.54267 3.88 6.296C4.12 6.04267 4.24 5.676 4.24 5.196C4.24 4.70933 4.09 4.366 3.79 4.166C3.49 3.966 3.02 3.866 2.38 3.866H1.18V6.666H2.55Z" fill="#88A1AC"/>
<path d="M7.85734 8.386C8.17734 8.706 8.58068 8.866 9.06734 8.866C9.55401 8.866 9.95401 8.706 10.2673 8.386C10.5873 8.05933 10.7473 7.63933 10.7473 7.126C10.7473 6.61267 10.5873 6.196 10.2673 5.876C9.95401 5.54933 9.55401 5.386 9.06734 5.386C8.58068 5.386 8.17734 5.54933 7.85734 5.876C7.54401 6.196 7.38734 6.61267 7.38734 7.126C7.38734 7.63933 7.54401 8.05933 7.85734 8.386ZM11.0673 9.076C10.534 9.60267 9.86734 9.866 9.06734 9.866C8.26734 9.866 7.60068 9.60267 7.06734 9.076C6.53401 8.54267 6.26734 7.89267 6.26734 7.126C6.26734 6.35933 6.53401 5.71267 7.06734 5.186C7.60068 4.65267 8.26734 4.386 9.06734 4.386C9.86734 4.386 10.534 4.65267 11.0673 5.186C11.6007 5.71267 11.8673 6.35933 11.8673 7.126C11.8673 7.89267 11.6007 8.54267 11.0673 9.076Z" fill="#88A1AC"/>
<path d="M15.5624 9.786H14.2824L12.4424 4.466H13.6024L14.9224 8.486L16.2424 4.466H17.4024L18.7224 8.486L20.0424 4.466H21.2024L19.3624 9.786H18.0824L16.8224 6.146L15.5624 9.786Z" fill="#88A1AC"/>
<path d="M27.1435 7.616H22.9735C23.0002 8.00267 23.1768 8.316 23.5035 8.556C23.8302 8.78933 24.2035 8.906 24.6235 8.906C25.2902 8.906 25.7969 8.696 26.1435 8.276L26.7835 8.976C26.2102 9.56933 25.4635 9.866 24.5435 9.866C23.7969 9.866 23.1602 9.61933 22.6335 9.126C22.1135 8.626 21.8535 7.95933 21.8535 7.126C21.8535 6.286 22.1202 5.61933 22.6535 5.126C23.1868 4.63267 23.8135 4.386 24.5335 4.386C25.2602 4.386 25.8769 4.606 26.3835 5.046C26.8902 5.47933 27.1435 6.07933 27.1435 6.846V7.616ZM22.9735 6.736H26.0235C26.0235 6.28933 25.8835 5.946 25.6035 5.706C25.3235 5.466 24.9769 5.346 24.5635 5.346C24.1568 5.346 23.7902 5.47267 23.4635 5.726C23.1369 5.97267 22.9735 6.30933 22.9735 6.736Z" fill="#88A1AC"/>
<path d="M31.1652 5.516C30.6118 5.516 30.1952 5.696 29.9152 6.056C29.6352 6.416 29.4952 6.89933 29.4952 7.506V9.786H28.3752V4.466H29.4952V5.536C29.6752 5.20267 29.9185 4.92933 30.2252 4.716C30.5385 4.50267 30.8685 4.39267 31.2152 4.386L31.2252 5.516C31.2052 5.516 31.1852 5.516 31.1652 5.516Z" fill="#88A1AC"/>
<path d="M37.2998 7.616H33.1298C33.1564 8.00267 33.3331 8.316 33.6598 8.556C33.9864 8.78933 34.3598 8.906 34.7798 8.906C35.4464 8.906 35.9531 8.696 36.2998 8.276L36.9398 8.976C36.3664 9.56933 35.6198 9.866 34.6998 9.866C33.9531 9.866 33.3164 9.61933 32.7898 9.126C32.2698 8.626 32.0098 7.95933 32.0098 7.126C32.0098 6.286 32.2764 5.61933 32.8098 5.126C33.3431 4.63267 33.9698 4.386 34.6898 4.386C35.4164 4.386 36.0331 4.606 36.5398 5.046C37.0464 5.47933 37.2998 6.07933 37.2998 6.846V7.616ZM33.1298 6.736H36.1798C36.1798 6.28933 36.0398 5.946 35.7598 5.706C35.4798 5.466 35.1331 5.346 34.7198 5.346C34.3131 5.346 33.9464 5.47267 33.6198 5.726C33.2931 5.97267 33.1298 6.30933 33.1298 6.736Z" fill="#88A1AC"/>
<path d="M40.7014 9.866C40.0281 9.866 39.4414 9.61267 38.9414 9.106C38.4414 8.59933 38.1914 7.93267 38.1914 7.106C38.1914 6.27933 38.4481 5.61933 38.9614 5.126C39.4747 4.63267 40.0847 4.386 40.7914 4.386C41.5047 4.386 42.0781 4.686 42.5114 5.286V2.366H43.6314V9.786H42.5114V8.986C42.0981 9.57267 41.4947 9.866 40.7014 9.866ZM39.3114 7.156C39.3114 7.66267 39.4747 8.076 39.8014 8.396C40.1281 8.716 40.5114 8.876 40.9514 8.876C41.3914 8.876 41.7647 8.716 42.0714 8.396C42.3781 8.06933 42.5314 7.65267 42.5314 7.146C42.5314 6.63933 42.3781 6.216 42.0714 5.876C41.7647 5.536 41.3881 5.366 40.9414 5.366C40.4947 5.366 40.1114 5.536 39.7914 5.876C39.4714 6.216 39.3114 6.64267 39.3114 7.156Z" fill="#88A1AC"/>
<path d="M50.8443 4.386C51.5576 4.386 52.1676 4.63267 52.6743 5.126C53.181 5.61933 53.4343 6.276 53.4343 7.096C53.4343 7.916 53.181 8.58267 52.6743 9.096C52.1743 9.60933 51.5876 9.866 50.9143 9.866C50.2476 9.866 49.6476 9.57267 49.1143 8.986V9.786H47.9943V2.366H49.1143V5.396C49.5543 4.72267 50.131 4.386 50.8443 4.386ZM49.0943 7.136C49.0943 7.64267 49.2476 8.05933 49.5543 8.386C49.861 8.706 50.2343 8.866 50.6743 8.866C51.1143 8.866 51.4976 8.706 51.8243 8.386C52.151 8.066 52.3143 7.65267 52.3143 7.146C52.3143 6.63267 52.1543 6.20933 51.8343 5.876C51.5143 5.536 51.131 5.366 50.6843 5.366C50.2376 5.366 49.861 5.536 49.5543 5.876C49.2476 6.20933 49.0943 6.62933 49.0943 7.136Z" fill="#88A1AC"/>
<path d="M55.383 11.906C54.8964 11.906 54.4564 11.7293 54.063 11.376L54.573 10.466C54.8064 10.686 55.0464 10.796 55.293 10.796C55.5464 10.796 55.7497 10.706 55.903 10.526C56.063 10.346 56.143 10.1493 56.143 9.936C56.143 9.84267 55.4264 8.01933 53.993 4.466H55.193L56.783 8.386L58.373 4.466H59.573L56.993 10.786C56.8397 11.1327 56.6197 11.406 56.333 11.606C56.0464 11.806 55.7297 11.906 55.383 11.906Z" fill="#88A1AC"/>
<path d="M68.232 9.184V0H70.276L75.078 6.3V0H77.262V9.184H78.62V9.786H75.078L70.416 3.654V9.786H66.874V9.184H68.232Z" fill="#282F3F"/>
<path d="M83.0634 9.184V9.786H78.4714V9.184H79.6754V0H81.8594V9.184H83.0634Z" fill="#282F3F"/>
<path d="M84.2692 9.184V0H86.3132L91.1152 6.3V0H93.2992V9.184H94.6572V9.786H91.1152L86.4532 3.654V9.786H82.9112V9.184H84.2692Z" fill="#282F3F"/>
<path d="M102.293 9.184V9.786H94.5085V9.184H96.1745C95.7172 8.97867 95.2832 8.66133 94.8725 8.232L96.0065 6.622C96.5945 7.25667 97.2105 7.574 97.8545 7.574C98.1625 7.574 98.4239 7.45267 98.6385 7.21C98.8625 6.96733 98.9745 6.61267 98.9745 6.146V1.876H96.0765V0H101.173V6.104C101.173 7.588 100.669 8.61467 99.6605 9.184H102.293Z" fill="#282F3F"/>
<path d="M114.146 9.184V9.786H110.464L109.554 7.672H105.452L104.542 9.786H100.86V9.184H102.47L106.446 0H108.56L112.522 9.184H114.146ZM107.51 2.912L106.278 5.754H108.728L107.51 2.912Z" fill="#282F3F"/>
<path d="M122.197 9.184V9.786H112.565V9.184H113.923V0H117.381C118.884 0 119.976 0.294 120.657 0.882C121.348 1.46067 121.693 2.35667 121.693 3.57C121.693 4.774 121.339 5.656 120.629 6.216C119.929 6.776 118.856 7.056 117.409 7.056H116.107V9.184H122.197ZM117.577 5.166C118.305 5.166 118.8 5.02133 119.061 4.732C119.323 4.43333 119.453 4.004 119.453 3.444C119.453 2.87467 119.281 2.47333 118.935 2.24C118.599 1.99733 118.072 1.876 117.353 1.876H116.107V5.166H117.577Z" fill="#282F3F"/>
<path d="M134.052 9.184V9.786H130.37L129.46 7.672H125.358L124.448 9.786H120.766V9.184H122.376L126.352 0H128.466L132.428 9.184H134.052ZM127.416 2.912L126.184 5.754H128.634L127.416 2.912Z" fill="#282F3F"/>
<path d="M141.278 9.184V9.786H132.626V9.184H135.86V5.922L132.472 0H134.838L136.952 3.64L139.066 0H141.432L138.044 5.922V9.184H141.278Z" fill="#282F3F"/>
</svg>
