<svg width="210" height="215" viewBox="0 0 210 215" fill="none" xmlns="http://www.w3.org/2000/svg">
<path fill-rule="evenodd" clip-rule="evenodd" d="M306.258 187.715C303.639 193.644 301.247 199.063 300.203 202.022L334.151 214.004C334.606 212.713 336.215 208.992 339.187 202.264C339.532 201.485 339.889 200.676 340.259 199.84C342.874 193.927 346.097 186.638 349.582 178.524C357.517 160.054 367.005 136.872 374.228 114.718C381.159 93.4569 387.078 70.0916 385.52 52.5745C384.738 43.7771 381.655 31.9422 370.916 24.7707C360.095 17.5442 347.42 18.9844 337.023 22.424C318.412 28.5811 295.52 41.0938 273.464 53.641C268.674 56.3659 263.897 59.1084 259.154 61.8314C241.292 72.0858 223.912 82.0638 208.139 89.7829C198.219 94.638 189.582 98.2683 182.44 100.414C176.553 102.182 172.897 102.56 170.937 102.51C170.52 100.118 170.36 94.9969 172.299 85.6807C180.547 46.053 207.776 12.7822 230.232 -14.6555C232.7 -17.6716 235.111 -20.6172 237.433 -23.493C243.002 -30.3913 248.392 -37.3487 252.279 -43.7946C255.681 -49.4367 260.401 -58.5153 259.169 -68.5988C257.558 -81.7917 247.525 -88.598 238.703 -91.551C230.435 -94.3186 219.892 -95.116 207.98 -94.9858C180.412 -94.6845 153.562 -82.8231 130.469 -69.7425C118.724 -63.0893 107.402 -55.7916 96.9593 -48.9259C94.717 -47.4517 92.5273 -46.0056 90.3854 -44.5911C82.3725 -39.2996 75.0292 -34.4502 68.1086 -30.2242C59.2626 -24.8225 52.251 -21.1654 46.7753 -19.2731C43.7114 -18.2144 41.9594 -17.9983 41.1306 -17.9686C40.7239 -18.623 40.0907 -19.9164 39.413 -22.2813C37.6798 -28.3298 36.5664 -38.553 37.1647 -54.8255L1.18898 -56.1482C0.537242 -38.4207 1.53327 -23.7846 4.80589 -12.3643C8.12281 -0.789384 14.6125 10.0498 26.6304 15.2095C37.9154 20.0544 49.5747 17.8484 58.5335 14.7525C67.798 11.551 77.4974 6.22377 86.8701 0.50046C94.3915 -4.09239 102.438 -9.40738 110.524 -14.7476C112.595 -16.1156 114.668 -17.4852 116.736 -18.8447C127.065 -25.6353 137.56 -32.3844 148.213 -38.4187C169.917 -50.7131 190.192 -58.7892 208.374 -58.9879C212.745 -59.0357 216.261 -58.9204 219.058 -58.7144C216.653 -55.2405 213.451 -51.0975 209.421 -46.1057C207.264 -43.4343 204.91 -40.5767 202.408 -37.5405C180.477 -10.9262 147.239 29.4119 137.054 78.3455C134.27 91.725 133.505 104.42 137.072 115.08C141.225 127.494 150.615 135.23 162.436 137.654C172.567 139.731 183.373 137.723 192.797 134.892C202.631 131.938 213.26 127.357 223.964 122.118C240.919 113.821 259.69 103.041 277.673 92.7137C282.269 90.0739 286.815 87.4637 291.265 84.9321C313.896 72.0575 333.691 61.4452 348.33 56.6022C348.83 56.437 349.284 56.2982 349.696 56.1817C350.391 65.6212 346.904 82.3851 340.001 103.559C333.286 124.155 324.305 146.16 316.506 164.314C313.1 172.241 309.956 179.352 307.339 185.27C306.968 186.11 306.607 186.925 306.258 187.715ZM349.11 52.8042C349.108 52.8072 349.125 52.8527 349.166 52.9319C349.133 52.8408 349.113 52.8012 349.11 52.8042ZM352.928 55.5848C353.008 55.5965 353.051 55.5972 353.053 55.5946C353.055 55.592 353.015 55.5861 352.928 55.5848ZM41.5889 -17.3844C41.5921 -17.3921 41.5457 -17.4478 41.44 -17.5288C41.5329 -17.4172 41.5857 -17.3767 41.5889 -17.3844Z" fill="#21728D" stroke="white"/>
</svg>
