<svg width="21" height="24" viewBox="0 0 21 24" fill="none" xmlns="http://www.w3.org/2000/svg">
<path d="M16.8546 12.5988C18.2212 12.2517 19.2057 11.3799 19.3159 9.66144C19.478 7.31175 17.4637 6.15952 14.6529 5.44179L15.1055 2.8748L12.8898 2.4841L12.4528 4.96237C11.8773 4.86089 11.2852 4.76955 10.6931 4.67816L11.1345 2.1746L8.91874 1.7839L8.46612 4.35085C7.6477 4.22888 6.70079 4.05106 4.0204 3.56695L3.65392 5.64534C5.40813 5.9265 6.34341 5.98931 6.37958 7.01449L4.8377 15.7589C4.56585 16.5194 3.87357 16.2808 2.29219 15.9765L1.4373 18.217C5.47727 18.9294 5.88078 19.0136 5.88078 19.0136L5.44588 21.4801L7.6617 21.8708L8.08991 19.4423C8.69181 19.5616 9.28184 19.6656 9.84294 19.7646L9.41698 22.1803L11.6327 22.571L12.0676 20.1045C15.811 20.5816 18.4377 20.1954 19.3117 17.1742C20.0062 14.7487 18.8769 13.4126 16.8546 12.5988ZM10.334 6.967C11.5858 7.18771 15.5597 7.53565 15.1552 9.82945C14.7686 12.0219 10.8998 11.0783 9.648 10.8576L10.334 6.967V6.967ZM8.54857 17.0928L9.30387 12.8093C10.8003 13.0731 15.4472 13.5136 15.0047 16.0229C14.5779 18.4434 10.0449 17.3566 8.54857 17.0928Z" stroke="#899BAB" stroke-width="1.7" stroke-miterlimit="10" stroke-linecap="round" stroke-linejoin="round"/>
</svg>
