<svg width="20" height="20" viewBox="0 0 20 20" fill="none" xmlns="http://www.w3.org/2000/svg">
<path d="M10.207 1.66797C9.02108 1.66767 7.84927 1.92542 6.77289 2.42331C5.69652 2.9212 4.74136 3.64733 3.9737 4.55131L2.84036 3.54297C2.72018 3.43757 2.57222 3.36895 2.41412 3.34531C2.25602 3.32167 2.09446 3.344 1.9487 3.40964C1.80249 3.47536 1.67834 3.58186 1.59113 3.71636C1.50393 3.85087 1.45737 4.00767 1.45703 4.16797V7.50131C1.45703 7.72232 1.54483 7.93428 1.70111 8.09056C1.85739 8.24684 2.06935 8.33464 2.29036 8.33464H6.04036C6.20823 8.33414 6.37204 8.28296 6.51032 8.1878C6.64861 8.09263 6.75493 7.95792 6.81537 7.80131C6.8768 7.64259 6.88817 7.46888 6.84795 7.30351C6.80772 7.13815 6.71783 6.98907 6.59036 6.87631L5.21536 5.65131C5.83045 4.9251 6.59639 4.34166 7.45988 3.94157C8.32338 3.54148 9.26369 3.33437 10.2154 3.33464C11.4375 3.33444 12.6362 3.67019 13.6804 4.30521C14.7246 4.94022 15.5742 5.85005 16.1362 6.93526C16.6983 8.02048 16.9512 9.23932 16.8674 10.4586C16.7836 11.6778 16.3662 12.8506 15.6609 13.8487C14.9556 14.8467 13.9895 15.6317 12.8682 16.1179C11.7469 16.604 10.5136 16.7725 9.303 16.6051C8.09239 16.4376 6.9511 15.9406 6.00387 15.1684C5.05664 14.3961 4.33992 13.3784 3.93203 12.2263C3.8591 12.0174 3.70618 11.8461 3.50692 11.75C3.30767 11.6539 3.07839 11.6409 2.86953 11.7138C2.66067 11.7867 2.48934 11.9397 2.39323 12.1389C2.29712 12.3382 2.2841 12.5674 2.35703 12.7763C2.86593 14.2173 3.76128 15.4906 4.94517 16.457C6.12905 17.4234 7.55588 18.0456 9.0696 18.2556C10.5833 18.4656 12.1256 18.2553 13.5279 17.6477C14.9301 17.0401 16.1383 16.0586 17.0203 14.8106C17.9022 13.5626 18.424 12.096 18.5286 10.5714C18.6331 9.04675 18.3164 7.52272 17.613 6.16597C16.9097 4.80923 15.8468 3.67201 14.5406 2.87871C13.2344 2.0854 11.7353 1.66656 10.207 1.66797Z" fill="#88A1AC"/>
<path d="M13.3346 13.332C13.1543 13.332 12.9789 13.2735 12.8346 13.1654L9.5013 10.6654C9.39781 10.5877 9.3138 10.4871 9.25595 10.3714C9.19809 10.2557 9.16797 10.1281 9.16797 9.9987V6.66536C9.16797 6.44435 9.25577 6.23239 9.41205 6.07611C9.56833 5.91983 9.78029 5.83203 10.0013 5.83203C10.2223 5.83203 10.4343 5.91983 10.5906 6.07611C10.7468 6.23239 10.8346 6.44435 10.8346 6.66536V9.58203L13.8346 11.832C13.9222 11.8977 13.9959 11.98 14.0517 12.0741C14.1075 12.1683 14.1441 12.2725 14.1596 12.3808C14.1751 12.4892 14.1691 12.5995 14.1419 12.7055C14.1147 12.8115 14.067 12.9111 14.0013 12.9987C13.9237 13.1022 13.823 13.1862 13.7073 13.2441C13.5916 13.3019 13.464 13.332 13.3346 13.332Z" fill="#88A1AC"/>
</svg>
