<svg width="47" height="10" viewBox="0 0 47 10" fill="none" xmlns="http://www.w3.org/2000/svg">
<path d="M2.70977 6.20005C2.96977 6.52005 3.31977 6.68005 3.75977 6.68005C4.19977 6.68005 4.54643 6.52005 4.79977 6.20005C5.05977 5.87339 5.18977 5.43005 5.18977 4.87005V1.01005H6.74977V4.92005C6.74977 5.93339 6.46977 6.71339 5.90977 7.26005C5.34977 7.80005 4.6331 8.07005 3.75977 8.07005C2.88643 8.07005 2.16643 7.79672 1.59977 7.25005C1.03977 6.70339 0.759766 5.92672 0.759766 4.92005V1.01005H2.31977V4.87005C2.31977 5.43005 2.44977 5.87339 2.70977 6.20005Z" fill="#88A1AC"/>
<path d="M10.7195 2.53005C11.3462 2.53005 11.9029 2.79339 12.3895 3.32005C12.8829 3.84005 13.1295 4.49672 13.1295 5.29005C13.1295 6.08339 12.8829 6.74672 12.3895 7.28005C11.9029 7.81339 11.3295 8.08005 10.6695 8.08005C10.0162 8.08005 9.48953 7.81672 9.08953 7.29005V9.94005H7.58953V2.62005H9.08953V3.22005C9.54953 2.76005 10.0929 2.53005 10.7195 2.53005ZM9.06953 5.32005C9.06953 5.75339 9.18953 6.11005 9.42953 6.39005C9.6762 6.66339 9.97287 6.80005 10.3195 6.80005C10.6662 6.80005 10.9695 6.66339 11.2295 6.39005C11.4895 6.11005 11.6195 5.75339 11.6195 5.32005C11.6195 4.88672 11.4929 4.52339 11.2395 4.23005C10.9862 3.93672 10.6829 3.79005 10.3295 3.79005C9.9762 3.79005 9.6762 3.93672 9.42953 4.23005C9.18953 4.51672 9.06953 4.88005 9.06953 5.32005Z" fill="#88A1AC"/>
<path d="M15.1197 8.00005H13.6197V2.62005H15.1197V8.00005ZM13.7397 1.94005C13.573 1.76672 13.4897 1.55672 13.4897 1.31005C13.4897 1.06339 13.573 0.85672 13.7397 0.690054C13.913 0.51672 14.123 0.430054 14.3697 0.430054C14.6164 0.430054 14.823 0.51672 14.9897 0.690054C15.163 0.85672 15.2497 1.06339 15.2497 1.31005C15.2497 1.55672 15.163 1.76672 14.9897 1.94005C14.823 2.10672 14.6164 2.19005 14.3697 2.19005C14.123 2.19005 13.913 2.10672 13.7397 1.94005Z" fill="#88A1AC"/>
<path d="M20.2463 5.03005L21.4863 1.01005H23.1163L24.3463 5.03005L25.7363 1.01005H27.4263L24.9863 8.00005H23.8263L22.2963 3.14005L20.7763 8.00005H19.6163L17.1763 1.01005H18.8663L20.2463 5.03005Z" fill="#88A1AC"/>
<path d="M31.7001 8.00005H30.2901V7.35005C29.9034 7.83672 29.4234 8.08005 28.8501 8.08005C28.2834 8.08005 27.8067 7.91672 27.4201 7.59005C27.0334 7.25672 26.8401 6.81672 26.8401 6.27005C26.8401 5.71672 27.0401 5.30339 27.4401 5.03005C27.8401 4.75672 28.3867 4.62005 29.0801 4.62005H30.2001V4.59005C30.2001 4.01672 29.8967 3.73005 29.2901 3.73005C29.0301 3.73005 28.7534 3.78339 28.4601 3.89005C28.1734 3.99005 27.9301 4.11672 27.7301 4.27005L27.0601 3.30005C27.7667 2.78672 28.5734 2.53005 29.4801 2.53005C30.1334 2.53005 30.6667 2.69339 31.0801 3.02005C31.4934 3.34672 31.7001 3.86339 31.7001 4.57005V8.00005ZM30.1901 5.95005V5.69005H29.2501C28.6501 5.69005 28.3501 5.87672 28.3501 6.25005C28.3501 6.44339 28.4201 6.59339 28.5601 6.70005C28.7067 6.80005 28.9134 6.85005 29.1801 6.85005C29.4467 6.85005 29.6801 6.77005 29.8801 6.61005C30.0867 6.44339 30.1901 6.22339 30.1901 5.95005Z" fill="#88A1AC"/>
<path d="M33.9376 8.00005H32.4376V0.580054H33.9376V8.00005Z" fill="#88A1AC"/>
<path d="M36.2275 8.00005H34.7275V0.580054H36.2275V8.00005Z" fill="#88A1AC"/>
<path d="M41.6774 7.22005C41.0708 7.79339 40.3574 8.08005 39.5374 8.08005C38.7241 8.08005 38.0508 7.83005 37.5174 7.33005C36.9841 6.82339 36.7174 6.14672 36.7174 5.30005C36.7174 4.45339 36.9874 3.78005 37.5274 3.28005C38.0741 2.78005 38.7174 2.53005 39.4574 2.53005C40.1974 2.53005 40.8241 2.75339 41.3374 3.20005C41.8574 3.64672 42.1174 4.26005 42.1174 5.04005V5.84005H38.1974C38.2441 6.13339 38.3974 6.37339 38.6574 6.56005C38.9174 6.74672 39.2108 6.84005 39.5374 6.84005C40.0641 6.84005 40.4974 6.66339 40.8374 6.31005L41.6774 7.22005ZM40.5974 4.77005C40.5641 4.45005 40.4441 4.20339 40.2374 4.03005C40.0308 3.85672 39.7774 3.77005 39.4774 3.77005C39.1841 3.77005 38.9141 3.86005 38.6674 4.04005C38.4208 4.22005 38.2774 4.46339 38.2374 4.77005H40.5974Z" fill="#88A1AC"/>
<path d="M44.3005 3.70005V6.11005C44.3005 6.31672 44.3538 6.48005 44.4605 6.60005C44.5671 6.71339 44.6938 6.77005 44.8405 6.77005C45.1205 6.77005 45.3571 6.64339 45.5505 6.39005L46.1105 7.44005C45.6438 7.86672 45.1505 8.08005 44.6305 8.08005C44.1171 8.08005 43.6805 7.91005 43.3205 7.57005C42.9671 7.23005 42.7905 6.76672 42.7905 6.18005V3.70005H42.1605V2.62005H42.7905V1.01005H44.3005V2.62005H45.6005V3.70005H44.3005Z" fill="#88A1AC"/>
</svg>
