<svg width="23" height="17" viewBox="0 0 23 17" fill="none" xmlns="http://www.w3.org/2000/svg">
    <path
        d="M21.0833 0H1.91667C0.860067 0 0 0.847141 0 1.88889V15.1111C0 16.1529 0.860067 17 1.91667 17H21.0833C22.1399 17 23 16.1529 23 15.1111V1.88889C23 0.847141 22.1399 0 21.0833 0Z"
        fill="#2F343A" fill-opacity="0.1566" />
    <path
        d="M22.0418 15.111C22.0418 15.6316 21.6123 16.0554 21.0835 16.0554H1.91683C1.38806 16.0554 0.958496 15.6316 0.958496 15.111V1.88878C0.958496 1.36814 1.38806 0.944336 1.91683 0.944336H21.0835C21.6123 0.944336 22.0418 1.36814 22.0418 1.88878V15.111Z"
        fill="#2EB2A1" />
    <path
        d="M11.4756 6.99756L11.2139 8.03204C11.5107 8.10496 12.4258 8.40241 12.574 7.81703C12.7283 7.20652 11.7724 7.07048 11.4756 6.99756Z"
        fill="white" />
    <path
        d="M12.6587 3.91936C10.0919 3.28874 7.49179 4.82836 6.85206 7.35819C6.21163 9.8878 7.77401 12.4499 10.3405 13.0807C12.908 13.7114 15.5082 12.172 16.1483 9.64241C16.7883 7.11251 15.2261 4.55011 12.6587 3.91936Z"
        fill="white" />
    <path fill-rule="evenodd" clip-rule="evenodd"
        d="M9.93114 6.5H10.9936H12.0562H13.119V7.3696H12.0562V7.90928C12.8007 7.95801 13.6503 8.11713 13.6503 8.50037C13.6503 8.88361 12.8007 9.04273 12.0562 9.09146V10.5H10.9936V9.09143C10.2492 9.04267 9.3999 8.88353 9.3999 8.50037C9.3999 8.1172 10.2492 7.95807 10.9936 7.9093V7.3696H9.93114V6.5ZM12.0562 8.74534V8.74478C11.9829 8.74931 11.9071 8.75261 11.8301 8.75522C11.8104 8.75592 11.7906 8.75644 11.7705 8.75696C11.69 8.75922 11.6085 8.76078 11.5249 8.76078C11.4413 8.76078 11.3599 8.75922 11.2793 8.75713C11.2593 8.75661 11.2394 8.75609 11.2198 8.75539C11.1427 8.75278 11.0669 8.74948 10.9936 8.74496V8.74532C10.2752 8.701 9.75411 8.56921 9.75411 8.41341C9.75411 8.25761 10.2752 8.12582 10.9936 8.0815V8.39607C11.1542 8.40668 11.331 8.41312 11.5249 8.41312C11.7188 8.41312 11.8956 8.40668 12.0562 8.39607V8.08147C12.7749 8.12577 13.2961 8.25758 13.2961 8.41341C13.2961 8.56924 12.7749 8.70105 12.0562 8.74534Z"
        fill="#2EB2A1" />
    <path
        d="M9.93114 6.5V6.4H9.83114V6.5H9.93114ZM13.119 6.5H13.219V6.4H13.119V6.5ZM13.119 7.3696V7.4696H13.219V7.3696H13.119ZM12.0562 7.3696V7.2696H11.9562V7.3696H12.0562ZM12.0562 7.90928H11.9562V8.00295L12.0497 8.00906L12.0562 7.90928ZM12.0562 9.09146L12.0497 8.99167L11.9562 8.99779V9.09146H12.0562ZM12.0562 10.5V10.6H12.1562V10.5H12.0562ZM10.9936 10.5H10.8936V10.6H10.9936V10.5ZM10.9936 9.09143H11.0936V8.99777L11.0001 8.99165L10.9936 9.09143ZM10.9936 7.9093L11.0001 8.00909L11.0936 8.00297V7.9093H10.9936ZM10.9936 7.3696H11.0936V7.2696H10.9936V7.3696ZM9.93114 7.3696H9.83114V7.4696H9.93114V7.3696ZM12.0562 8.74534H11.9562V8.8517L12.0624 8.84516L12.0562 8.74534ZM12.0562 8.74478H12.1562V8.63843L12.0501 8.64497L12.0562 8.74478ZM11.8301 8.75522L11.8267 8.65528L11.8265 8.65528L11.8301 8.75522ZM11.7705 8.75696L11.7679 8.65699L11.7677 8.657L11.7705 8.75696ZM11.2793 8.75713L11.2767 8.8571L11.2767 8.8571L11.2793 8.75713ZM11.2198 8.75539L11.2233 8.65546L11.2231 8.65545L11.2198 8.75539ZM10.9936 8.74496L10.9998 8.64515L10.8936 8.6386V8.74496H10.9936ZM10.9936 8.74532L10.9874 8.84513L11.0936 8.85168V8.74532H10.9936ZM10.9936 8.0815H11.0936V7.97514L10.9874 7.98169L10.9936 8.0815ZM10.9936 8.39607H10.8936V8.48969L10.987 8.49586L10.9936 8.39607ZM12.0562 8.39607L12.0628 8.49586L12.1562 8.48969V8.39607H12.0562ZM12.0562 8.08147L12.0624 7.98166L11.9562 7.97512V8.08147H12.0562ZM10.9936 6.4H9.93114V6.6H10.9936V6.4ZM12.0562 6.4H10.9936V6.6H12.0562V6.4ZM13.119 6.4H12.0562V6.6H13.119V6.4ZM13.219 7.3696V6.5H13.019V7.3696H13.219ZM12.0562 7.4696H13.119V7.2696H12.0562V7.4696ZM12.1562 7.90928V7.3696H11.9562V7.90928H12.1562ZM13.7503 8.50037C13.7503 8.36232 13.6723 8.25426 13.5666 8.17365C13.4617 8.09377 13.3195 8.03219 13.1618 7.98379C12.8454 7.88664 12.4378 7.83404 12.0627 7.80949L12.0497 8.00906C12.4191 8.03324 12.8086 8.08457 13.1031 8.17498C13.2509 8.22035 13.3676 8.27346 13.4453 8.33272C13.5221 8.39126 13.5503 8.4468 13.5503 8.50037H13.7503ZM12.0627 9.19125C12.4378 9.1667 12.8454 9.1141 13.1618 9.01695C13.3195 8.96855 13.4617 8.90697 13.5666 8.82709C13.6723 8.74648 13.7503 8.63842 13.7503 8.50037H13.5503C13.5503 8.55394 13.5221 8.60948 13.4453 8.66802C13.3676 8.72728 13.2509 8.78038 13.1031 8.82576C12.8086 8.91617 12.4191 8.9675 12.0497 8.99167L12.0627 9.19125ZM12.1562 10.5V9.09146H11.9562V10.5H12.1562ZM10.9936 10.6H12.0562V10.4H10.9936V10.6ZM10.8936 9.09143V10.5H11.0936V9.09143H10.8936ZM9.2999 8.50037C9.2999 8.63839 9.37788 8.74644 9.48362 8.82704C9.5884 8.90692 9.73064 8.96849 9.88826 9.0169C10.2046 9.11404 10.612 9.16665 10.9871 9.19122L11.0001 8.99165C10.6308 8.96745 10.2414 8.91611 9.94697 8.82571C9.79921 8.78033 9.68259 8.72724 9.60487 8.66798C9.52809 8.60946 9.4999 8.55393 9.4999 8.50037H9.2999ZM10.9871 7.80952C10.612 7.83409 10.2046 7.8867 9.88826 7.98384C9.73064 8.03224 9.5884 8.09382 9.48362 8.1737C9.37788 8.2543 9.2999 8.36235 9.2999 8.50037H9.4999C9.4999 8.44681 9.52809 8.39128 9.60487 8.33275C9.68259 8.2735 9.79921 8.2204 9.94697 8.17503C10.2414 8.08462 10.6308 8.03328 11.0001 8.00909L10.9871 7.80952ZM10.8936 7.3696V7.9093H11.0936V7.3696H10.8936ZM9.93114 7.4696H10.9936V7.2696H9.93114V7.4696ZM9.83114 6.5V7.3696H10.0311V6.5H9.83114ZM12.1562 8.74534V8.74478H11.9562V8.74534H12.1562ZM12.0501 8.64497C11.9779 8.64942 11.9031 8.65269 11.8267 8.65528L11.8334 8.85516C11.9111 8.85253 11.9878 8.84919 12.0624 8.84459L12.0501 8.64497ZM11.8265 8.65528C11.8074 8.65596 11.788 8.65647 11.7679 8.65699L11.7732 8.85692C11.7931 8.8564 11.8134 8.85587 11.8336 8.85516L11.8265 8.65528ZM11.7677 8.657C11.6877 8.65924 11.6073 8.66078 11.5249 8.66078V8.86078C11.6097 8.86078 11.6922 8.8592 11.7734 8.85692L11.7677 8.657ZM11.5249 8.66078C11.4425 8.66078 11.362 8.65924 11.2819 8.65717L11.2767 8.8571C11.3577 8.8592 11.4401 8.86078 11.5249 8.86078V8.66078ZM11.2819 8.65717C11.2618 8.65664 11.2424 8.65613 11.2233 8.65546L11.2162 8.85533C11.2364 8.85605 11.2567 8.85658 11.2767 8.8571L11.2819 8.65717ZM11.2231 8.65545C11.1467 8.65286 11.0719 8.6496 10.9998 8.64515L10.9874 8.84477C11.062 8.84936 11.1387 8.85271 11.2164 8.85534L11.2231 8.65545ZM10.8936 8.74496V8.74532H11.0936V8.74496H10.8936ZM10.9998 8.64551C10.6441 8.62357 10.3413 8.58014 10.1299 8.52447C10.0234 8.49642 9.9458 8.4667 9.89704 8.43833C9.84062 8.4055 9.85411 8.39379 9.85411 8.41341H9.65411C9.65411 8.51093 9.73273 8.57411 9.79646 8.6112C9.86785 8.65274 9.96539 8.68795 10.079 8.71787C10.3077 8.77812 10.6247 8.82275 10.9874 8.84513L10.9998 8.64551ZM9.85411 8.41341C9.85411 8.43303 9.84062 8.42132 9.89704 8.38849C9.9458 8.36012 10.0234 8.3304 10.1299 8.30235C10.3413 8.24667 10.6441 8.20325 10.9998 8.18131L10.9874 7.98169C10.6247 8.00407 10.3077 8.0487 10.079 8.10895C9.96539 8.13886 9.86785 8.17408 9.79646 8.21562C9.73273 8.2527 9.65411 8.31589 9.65411 8.41341H9.85411ZM10.8936 8.0815V8.39607H11.0936V8.0815H10.8936ZM10.987 8.49586C11.1498 8.50661 11.3288 8.51312 11.5249 8.51312V8.31312C11.3332 8.31312 11.1587 8.30676 11.0002 8.29629L10.987 8.49586ZM11.5249 8.51312C11.7211 8.51312 11.9 8.50661 12.0628 8.49586L12.0496 8.29629C11.8912 8.30676 11.7166 8.31312 11.5249 8.31312V8.51312ZM12.1562 8.39607V8.08147H11.9562V8.39607H12.1562ZM12.0501 8.18128C12.4058 8.20321 12.7087 8.24663 12.9202 8.30232C13.0267 8.33037 13.1044 8.36009 13.1532 8.38847C13.2096 8.42131 13.1961 8.43303 13.1961 8.41341H13.3961C13.3961 8.31587 13.3175 8.25268 13.2537 8.2156C13.1823 8.17405 13.0848 8.13883 12.9711 8.10891C12.7423 8.04866 12.4252 8.00403 12.0624 7.98166L12.0501 8.18128ZM13.1961 8.41341C13.1961 8.39378 13.2096 8.4055 13.1532 8.43835C13.1044 8.46672 13.0267 8.49645 12.9202 8.5245C12.7087 8.58018 12.4058 8.62361 12.0501 8.64553L12.0624 8.84516C12.4252 8.82279 12.7423 8.77816 12.9711 8.71791C13.0848 8.68799 13.1823 8.65277 13.2537 8.61122C13.3175 8.57414 13.3961 8.51095 13.3961 8.41341H13.1961Z"
        fill="#2AA091" />
    <path opacity="0.1"
        d="M21.0835 0.944336H20.6043V13.6943C20.6043 14.215 20.1743 14.6388 19.646 14.6388H0.958496V15.111C0.958496 15.6316 1.38853 16.0554 1.91683 16.0554H21.0835C21.6118 16.0554 22.0418 15.6316 22.0418 15.111V1.88878C22.0418 1.36814 21.6118 0.944336 21.0835 0.944336Z"
        fill="#010101" />
</svg>
