<svg width="38" height="38" viewBox="0 0 38 38" fill="none" xmlns="http://www.w3.org/2000/svg">
<circle cx="19" cy="19" r="19" fill="#278E71"/>
<path d="M21.0771 22.5625L19.9107 30.8619L15.0938 30.1849L16.2618 21.8742C11.1473 20.8512 7.45854 19.1097 7.66021 17.6747C7.86184 16.24 11.8877 15.5829 17.0861 16.0087L17.413 13.6832L10.8554 12.7616L11.5323 7.9448L29.4651 10.4651L28.7881 15.2818L22.2299 14.3601L21.9049 16.6746C27.1182 17.6923 30.9004 19.4599 30.6963 20.9122C30.492 22.3647 26.3692 23.0216 21.0771 22.5625Z" fill="white"/>
<path d="M21.9316 17.5566L21.5356 20.374C20.7897 20.3071 20.012 20.2186 19.2144 20.1065C18.3477 19.9847 17.5123 19.8431 16.7205 19.6864L17.0367 17.437L17.0362 17.437L17.1133 16.8882C12.6565 16.4791 9.27191 16.784 9.14376 17.6958C8.99239 18.7729 13.4399 20.2877 19.0777 21.08C24.7152 21.8723 29.4083 21.6422 29.5597 20.5651C29.6896 19.6398 26.4265 18.3922 21.9316 17.5566Z" fill="#278E71"/>
</svg>
