<svg width="13" height="13" viewBox="0 0 13 13" fill="none" xmlns="http://www.w3.org/2000/svg">
<g clip-path="url(#clip0_16476_37078)">
<path d="M4.33333 1.625H2.70833C2.42102 1.625 2.14547 1.73914 1.9423 1.9423C1.73914 2.14547 1.625 2.42102 1.625 2.70833V4.33333M11.375 4.33333V2.70833C11.375 2.42102 11.2609 2.14547 11.0577 1.9423C10.8545 1.73914 10.579 1.625 10.2917 1.625H8.66667M8.66667 11.375H10.2917C10.579 11.375 10.8545 11.2609 11.0577 11.0577C11.2609 10.8545 11.375 10.579 11.375 10.2917V8.66667M1.625 8.66667V10.2917C1.625 10.579 1.73914 10.8545 1.9423 11.0577C2.14547 11.2609 2.42102 11.375 2.70833 11.375H4.33333" stroke="#88A1AC" stroke-width="2" stroke-linecap="round" stroke-linejoin="round"/>
</g>
<defs>
<clipPath id="clip0_16476_37078">
<rect width="13" height="13" fill="white"/>
</clipPath>
</defs>
</svg>
