<svg width="90" height="82" viewBox="0 0 90 82" fill="none" xmlns="http://www.w3.org/2000/svg">
<g opacity="0.2">
<circle cx="40" cy="50" r="50" fill="#7B1AF7"/>
<path d="M54.8992 21.1159C55.2463 21.3598 55.5004 21.7143 55.62 22.1213C55.7396 22.5283 55.7176 22.9639 55.5577 23.3568L46.917 44.6296L59.3308 45.7157C59.6957 45.7475 60.0432 45.8854 60.3305 46.1124C60.6179 46.3394 60.8325 46.6456 60.9478 46.9932C61.0631 47.3408 61.0741 47.7145 60.9794 48.0683C60.8848 48.4221 60.6886 48.7404 60.4151 48.9839L27.7512 78.1229C27.4351 78.4051 27.0328 78.572 26.6098 78.5962C26.1867 78.6205 25.768 78.5007 25.4217 78.2565C25.0754 78.0123 24.8221 77.6579 24.703 77.2513C24.5839 76.8447 24.6061 76.4097 24.7659 76.0172L33.4069 54.7406L20.993 53.6546C20.6282 53.6228 20.2807 53.4849 19.9933 53.2579C19.706 53.0308 19.4914 52.7246 19.3761 52.3771C19.2608 52.0295 19.2498 51.6557 19.3444 51.302C19.4391 50.9482 19.6353 50.6299 19.9087 50.3864L52.5727 21.2473C52.8884 20.9655 53.2901 20.7988 53.7126 20.7743C54.135 20.7497 54.5534 20.8688 54.8996 21.1121L54.8992 21.1159Z" fill="white"/>
</g>
</svg>
