<svg width="145" height="19" viewBox="0 0 145 19" fill="none" xmlns="http://www.w3.org/2000/svg">
<path d="M2.619 17.712V0H6.561L15.822 12.15V0H20.034V17.712H22.653V18.873H15.822L6.831 7.047V18.873H0V17.712H2.619Z" fill="#282F3F"/>
<path d="M31.7223 17.712V18.873H22.8663V17.712H25.1883V0H29.4003V17.712H31.7223Z" fill="#282F3F"/>
<path d="M34.5477 17.712V0H38.4897L47.7507 12.15V0H51.9627V17.712H54.5817V18.873H47.7507L38.7597 7.047V18.873H31.9287V17.712H34.5477Z" fill="#282F3F"/>
<path d="M69.807 17.712V18.873H54.795V17.712H58.008C57.126 17.316 56.289 16.704 55.497 15.876L57.684 12.771C58.818 13.995 60.006 14.607 61.248 14.607C61.842 14.607 62.346 14.373 62.76 13.905C63.192 13.437 63.408 12.753 63.408 11.853V3.618H57.819V0H67.647V11.772C67.647 14.634 66.675 16.614 64.731 17.712H69.807Z" fill="#282F3F"/>
<path d="M92.9033 17.712V18.873H85.8023L84.0473 14.796H76.1363L74.3813 18.873H67.2803V17.712H70.3853L78.0533 0H82.1303L89.7713 17.712H92.9033ZM80.1053 5.616L77.7293 11.097H82.4543L80.1053 5.616Z" fill="#282F3F"/>
<path d="M108.931 17.712V18.873H90.3555V17.712H92.9745V0H99.6435C102.541 0 104.647 0.567 105.961 1.701C107.293 2.817 107.959 4.545 107.959 6.885C107.959 9.207 107.275 10.908 105.907 11.988C104.557 13.068 102.487 13.608 99.6975 13.608H97.1865V17.712H108.931ZM100.021 9.963C101.425 9.963 102.379 9.684 102.883 9.126C103.387 8.55 103.639 7.722 103.639 6.642C103.639 5.544 103.306 4.77 102.64 4.32C101.992 3.852 100.975 3.618 99.5895 3.618H97.1865V9.963H100.021Z" fill="#282F3F"/>
<path d="M131.187 17.712V18.873H124.086L122.331 14.796H114.42L112.665 18.873H105.564V17.712H108.669L116.337 0H120.414L128.055 17.712H131.187ZM118.389 5.616L116.013 11.097H120.738L118.389 5.616Z" fill="#282F3F"/>
<path d="M144.303 17.712V18.873H127.617V17.712H133.854V11.421L127.32 0H131.883L135.96 7.02L140.037 0H144.6L138.066 11.421V17.712H144.303Z" fill="#282F3F"/>
</svg>
