<svg width="16" height="16" viewBox="0 0 16 16" fill="none" xmlns="http://www.w3.org/2000/svg">
<path d="M13.998 8.52667C13.8931 9.66147 13.4672 10.7429 12.7701 11.6445C12.0731 12.5461 11.1336 13.2305 10.0618 13.6177C8.98992 14.0049 7.82997 14.0787 6.71765 13.8307C5.60533 13.5827 4.58664 13.023 3.7808 12.2172C2.97495 11.4113 2.41527 10.3927 2.16725 9.28033C1.91923 8.16801 1.99313 7.00806 2.38029 5.9362C2.76745 4.86434 3.45187 3.92491 4.35346 3.22784C5.25504 2.53076 6.33651 2.10487 7.47131 2C6.80692 2.89884 6.48721 4.0063 6.57034 5.12094C6.65346 6.23559 7.13389 7.28337 7.92425 8.07373C8.71461 8.86409 9.7624 9.34452 10.877 9.42764C11.9917 9.51077 13.0991 9.19106 13.998 8.52667Z" stroke="#88A1AC" stroke-width="2" stroke-linecap="round" stroke-linejoin="round"/>
</svg>
