<svg width="24" height="24" viewBox="0 0 24 24" fill="none" xmlns="http://www.w3.org/2000/svg">
    <path d="M14 5.5H10M20 7V17C20 21 19 22 15 22H9C5 22 4 21 4 17V7C4 3 5 2 9 2H15C19 2 20 3 20 7Z"
        stroke="black" stroke-linecap="round" stroke-linejoin="round" />
    <path
        d="M11.9992 19.1C12.4103 19.1 12.8046 18.9367 13.0952 18.646C13.3859 18.3553 13.5492 17.9611 13.5492 17.55C13.5492 17.1389 13.3859 16.7447 13.0952 16.454C12.8046 16.1633 12.4103 16 11.9992 16C11.5881 16 11.1939 16.1633 10.9032 16.454C10.6125 16.7447 10.4492 17.1389 10.4492 17.55C10.4492 17.9611 10.6125 18.3553 10.9032 18.646C11.1939 18.9367 11.5881 19.1 11.9992 19.1Z"
        stroke="#21728D" stroke-linecap="round" stroke-linejoin="round" />
</svg>
