<svg width="24" height="24" viewBox="0 0 24 24" fill="none" xmlns="http://www.w3.org/2000/svg">
<path d="M12.1588 10.8707C12.0588 10.8607 11.9388 10.8607 11.8288 10.8707C10.681 10.8318 9.59339 10.3476 8.79638 9.52068C7.99937 8.6938 7.55549 7.58917 7.55875 6.44072C7.55875 3.99072 9.53875 2.00072 11.9988 2.00072C12.5812 1.99022 13.1599 2.09453 13.702 2.3077C14.2441 2.52087 14.7389 2.83874 15.1582 3.24313C15.5775 3.64753 15.913 4.13055 16.1455 4.66461C16.3781 5.19867 16.5032 5.77331 16.5138 6.35572C16.5243 6.93813 16.4199 7.51691 16.2068 8.05901C15.9936 8.60111 15.6757 9.09592 15.2713 9.51517C14.8669 9.93443 14.3839 10.2699 13.8499 10.5025C13.3158 10.7351 12.7412 10.8602 12.1588 10.8707ZM7.15875 14.5607C4.73875 16.1807 4.73875 18.8207 7.15875 20.4307C9.90875 22.2707 14.4188 22.2707 17.1688 20.4307C19.5888 18.8107 19.5888 16.1707 17.1688 14.5607C14.4288 12.7307 9.91875 12.7307 7.15875 14.5607Z" stroke="white" stroke-linecap="round" stroke-linejoin="round"/>
<circle cx="17" cy="20" r="2" fill="#21728D"/>
</svg>
