<svg width="82" height="6" viewBox="0 0 82 6" fill="none" xmlns="http://www.w3.org/2000/svg">
<path d="M1.41105 0.643877C2.03427 0.643877 2.48894 0.763425 2.77507 1.00252C3.0612 1.24161 3.20427 1.61006 3.20427 2.10784C3.20427 2.60563 3.05728 2.97016 2.76331 3.20141C2.47326 3.43267 2.02643 3.54829 1.42281 3.54829H0.693768V4.75357H0V0.643877H1.41105ZM1.49924 2.9192C1.88336 2.9192 2.14402 2.84669 2.2812 2.70166C2.42231 2.55272 2.49286 2.33714 2.49286 2.05493C2.49286 1.7688 2.40467 1.56694 2.22829 1.44935C2.05191 1.33177 1.77558 1.27297 1.39929 1.27297H0.693768V2.9192H1.49924Z" fill="white"/>
<path d="M4.61964 3.93046C4.80778 4.1186 5.04491 4.21267 5.33104 4.21267C5.61717 4.21267 5.85235 4.1186 6.03657 3.93046C6.22471 3.7384 6.31878 3.49146 6.31878 3.18965C6.31878 2.88784 6.22471 2.64287 6.03657 2.45473C5.85235 2.26267 5.61717 2.16664 5.33104 2.16664C5.04491 2.16664 4.80778 2.26267 4.61964 2.45473C4.43542 2.64287 4.34331 2.88784 4.34331 3.18965C4.34331 3.49146 4.43542 3.7384 4.61964 3.93046ZM6.50692 4.33613C6.19335 4.64578 5.80139 4.8006 5.33104 4.8006C4.86069 4.8006 4.46873 4.64578 4.15517 4.33613C3.8416 4.02257 3.68481 3.64041 3.68481 3.18965C3.68481 2.7389 3.8416 2.3587 4.15517 2.04905C4.46873 1.73548 4.86069 1.5787 5.33104 1.5787C5.80139 1.5787 6.19335 1.73548 6.50692 2.04905C6.82049 2.3587 6.97727 2.7389 6.97727 3.18965C6.97727 3.64041 6.82049 4.02257 6.50692 4.33613Z" fill="white"/>
<path d="M9.14975 4.75357H8.39719L7.31538 1.62574H7.99739L8.77347 3.98925L9.54955 1.62574H10.2316L11.0076 3.98925L11.7837 1.62574H12.4657L11.3839 4.75357H10.6314L9.89055 2.61347L9.14975 4.75357Z" fill="white"/>
<path d="M15.9587 3.47774H13.507C13.5227 3.70508 13.6266 3.8893 13.8186 4.0304C14.0107 4.16759 14.2302 4.23618 14.4771 4.23618C14.8691 4.23618 15.167 4.11272 15.3708 3.86578L15.7471 4.27734C15.41 4.62618 14.971 4.8006 14.4301 4.8006C13.9911 4.8006 13.6168 4.65558 13.3071 4.36553C13.0014 4.07156 12.8485 3.6796 12.8485 3.18965C12.8485 2.69578 13.0053 2.30382 13.3189 2.01377C13.6324 1.72372 14.0009 1.5787 14.4242 1.5787C14.8514 1.5787 15.214 1.70805 15.5119 1.96674C15.8098 2.22151 15.9587 2.57428 15.9587 3.02503V3.47774ZM13.507 2.96036H15.3002C15.3002 2.69774 15.2179 2.49588 15.0533 2.35478C14.8887 2.21367 14.6849 2.14312 14.4418 2.14312C14.2027 2.14312 13.9872 2.21759 13.7951 2.36654C13.6031 2.51156 13.507 2.7095 13.507 2.96036Z" fill="white"/>
<path d="M18.3232 2.24307C17.9979 2.24307 17.7529 2.3489 17.5883 2.56056C17.4237 2.77222 17.3413 3.05639 17.3413 3.41307V4.75357H16.6829V1.62574H17.3413V2.25483C17.4472 2.05885 17.5902 1.89815 17.7705 1.77272C17.9548 1.64729 18.1488 1.58262 18.3526 1.5787L18.3585 2.24307C18.3467 2.24307 18.335 2.24307 18.3232 2.24307Z" fill="white"/>
<path d="M21.93 3.47774H19.4783C19.494 3.70508 19.5978 3.8893 19.7899 4.0304C19.9819 4.16759 20.2014 4.23618 20.4484 4.23618C20.8403 4.23618 21.1382 4.11272 21.342 3.86578L21.7183 4.27734C21.3812 4.62618 20.9422 4.8006 20.4013 4.8006C19.9623 4.8006 19.588 4.65558 19.2784 4.36553C18.9726 4.07156 18.8198 3.6796 18.8198 3.18965C18.8198 2.69578 18.9766 2.30382 19.2901 2.01377C19.6037 1.72372 19.9721 1.5787 20.3955 1.5787C20.8227 1.5787 21.1853 1.70805 21.4831 1.96674C21.781 2.22151 21.93 2.57428 21.93 3.02503V3.47774ZM19.4783 2.96036H21.2715C21.2715 2.69774 21.1892 2.49588 21.0246 2.35478C20.8599 2.21367 20.6561 2.14312 20.4131 2.14312C20.174 2.14312 19.9584 2.21759 19.7664 2.36654C19.5743 2.51156 19.4783 2.7095 19.4783 2.96036Z" fill="white"/>
<path d="M23.9299 4.8006C23.5341 4.8006 23.1891 4.65166 22.8952 4.35377C22.6012 4.05588 22.4542 3.66392 22.4542 3.17789C22.4542 2.69186 22.6051 2.30382 22.9069 2.01377C23.2087 1.72372 23.5674 1.5787 23.9828 1.5787C24.4022 1.5787 24.7393 1.75508 24.9941 2.10784V0.391063H25.6526V4.75357H24.9941V4.28322C24.7511 4.62814 24.3964 4.8006 23.9299 4.8006ZM23.1127 3.20729C23.1127 3.50518 23.2087 3.74819 23.4008 3.93633C23.5929 4.12448 23.8182 4.21854 24.0769 4.21854C24.3356 4.21854 24.5551 4.12448 24.7354 3.93633C24.9157 3.74427 25.0059 3.4993 25.0059 3.20141C25.0059 2.90352 24.9157 2.65463 24.7354 2.45473C24.5551 2.25483 24.3337 2.15488 24.071 2.15488C23.8084 2.15488 23.5831 2.25483 23.3949 2.45473C23.2068 2.65463 23.1127 2.90548 23.1127 3.20729Z" fill="white"/>
<path d="M29.8933 1.5787C30.3127 1.5787 30.6714 1.72372 30.9693 2.01377C31.2672 2.30382 31.4161 2.6899 31.4161 3.17201C31.4161 3.65412 31.2672 4.04608 30.9693 4.34789C30.6753 4.6497 30.3304 4.8006 29.9345 4.8006C29.5425 4.8006 29.1898 4.62814 28.8762 4.28322V4.75357H28.2177V0.391063H28.8762V2.17252C29.1349 1.77664 29.4739 1.5787 29.8933 1.5787ZM28.8644 3.19553C28.8644 3.49342 28.9546 3.7384 29.1349 3.93046C29.3152 4.1186 29.5347 4.21267 29.7934 4.21267C30.0521 4.21267 30.2775 4.1186 30.4695 3.93046C30.6616 3.74231 30.7576 3.4993 30.7576 3.20141C30.7576 2.8996 30.6635 2.65071 30.4754 2.45473C30.2873 2.25483 30.0619 2.15488 29.7993 2.15488C29.5366 2.15488 29.3152 2.25483 29.1349 2.45473C28.9546 2.65071 28.8644 2.89764 28.8644 3.19553Z" fill="white"/>
<path d="M32.5618 6C32.2757 6 32.017 5.89613 31.7858 5.68839L32.0856 5.15337C32.2228 5.28271 32.3639 5.34739 32.5089 5.34739C32.6579 5.34739 32.7774 5.29447 32.8676 5.18864C32.9616 5.08282 33.0087 4.96719 33.0087 4.84176C33.0087 4.78689 32.5873 3.71488 31.7446 1.62574H32.4501L33.385 3.93046L34.3198 1.62574H35.0253L33.5084 5.34151C33.4183 5.54533 33.2889 5.70603 33.1204 5.82362C32.9518 5.94121 32.7657 6 32.5618 6Z" fill="white"/>
<path d="M38.1163 5.39963V0H39.318L42.1413 3.70401V0H43.4254V5.39963H44.2238V5.75357H42.1413L39.4003 2.14833V5.75357H37.3178V5.39963H38.1163Z" fill="white"/>
<path d="M46.8362 5.39963V5.75357H44.1364V5.39963H44.8443V0H46.1283V5.39963H46.8362Z" fill="white"/>
<path d="M47.5451 5.39963V0H48.7469L51.5701 3.70401V0H52.8542V5.39963H53.6526V5.75357H51.5701L48.8292 2.14833V5.75357H46.7467V5.39963H47.5451Z" fill="white"/>
<path d="M58.1417 5.39963V5.75357H53.5652V5.39963H54.5447C54.2758 5.27891 54.0207 5.09233 53.7792 4.83991L54.446 3.89333C54.7917 4.26648 55.1538 4.45305 55.5325 4.45305C55.7135 4.45305 55.8672 4.38171 55.9934 4.23904C56.1251 4.09637 56.191 3.88784 56.191 3.61347V1.10297H54.4871V0H57.4832V3.58878C57.4832 4.46128 57.1869 5.0649 56.5943 5.39963H58.1417Z" fill="white"/>
<path d="M65.1107 5.39963V5.75357H62.946L62.4109 4.51067H59.9992L59.4642 5.75357H57.2994V5.39963H58.246L60.5836 0H61.8265L64.1559 5.39963H65.1107ZM61.2092 1.71208L60.4848 3.383H61.9253L61.2092 1.71208Z" fill="white"/>
<path d="M69.8446 5.39963V5.75357H64.1816V5.39963H64.98V0H67.0131C67.8966 0 68.5386 0.172854 68.9392 0.518562C69.3453 0.858783 69.5483 1.38558 69.5483 2.09894C69.5483 2.80682 69.3398 3.32538 68.9227 3.65463C68.5112 3.98387 67.8801 4.1485 67.0296 4.1485H66.2641V5.39963H69.8446ZM67.1283 3.03729C67.5564 3.03729 67.8472 2.95224 68.0008 2.78213C68.1545 2.60653 68.2313 2.35411 68.2313 2.02486C68.2313 1.69013 68.1298 1.45417 67.9268 1.31698C67.7292 1.17431 67.4192 1.10297 66.9967 1.10297H66.2641V3.03729H67.1283Z" fill="white"/>
<path d="M76.8144 5.39963V5.75357H74.6496L74.1146 4.51067H71.7029L71.1678 5.75357H69.0031V5.39963H69.9496L72.2873 0H73.5302L75.8596 5.39963H76.8144ZM72.9128 1.71208L72.1885 3.383H73.629L72.9128 1.71208Z" fill="white"/>
<path d="M81.0626 5.39963V5.75357H75.9758V5.39963H77.8772V3.48177L75.8853 0H77.2763L78.5192 2.1401L79.7621 0H81.1532L79.1612 3.48177V5.39963H81.0626Z" fill="white"/>
</svg>
