<svg width="16" height="16" viewBox="0 0 16 16" fill="none" xmlns="http://www.w3.org/2000/svg">
<path d="M3.33333 14.6654C2.96667 14.6654 2.65267 14.5347 2.39133 14.2734C2.13 14.012 1.99956 13.6983 2 13.332V3.9987H3.33333V13.332H10.6667V14.6654H3.33333ZM6 11.9987C5.63333 11.9987 5.31933 11.868 5.058 11.6067C4.79667 11.3454 4.66622 11.0316 4.66667 10.6654V2.66537C4.66667 2.2987 4.79733 1.9847 5.05867 1.72337C5.32 1.46203 5.63378 1.33159 6 1.33203H12C12.3667 1.33203 12.6807 1.4627 12.942 1.72403C13.2033 1.98537 13.3338 2.29914 13.3333 2.66537V10.6654C13.3333 11.032 13.2027 11.346 12.9413 11.6074C12.68 11.8687 12.3662 11.9991 12 11.9987H6ZM6 10.6654H12V2.66537H6V10.6654Z" fill="#88A1AC"/>
</svg>
