<svg width="18" height="18" viewBox="0 0 18 18" fill="none" xmlns="http://www.w3.org/2000/svg">
<g clip-path="url(#clip0_22338_4983)">
<path d="M10.4602 12.566C10.3554 13.4017 10.0182 14.1913 9.48687 14.8448C8.95555 15.4983 8.25149 15.9896 7.45477 16.2628C6.65805 16.536 5.80065 16.5801 4.9801 16.3901C4.15956 16.2001 3.4088 15.7836 2.81324 15.188C2.21768 14.5925 1.80121 13.8417 1.61121 13.0212C1.42121 12.2006 1.46531 11.3432 1.73849 10.5465C2.01167 9.74979 2.50297 9.04572 3.15649 8.5144C3.81002 7.98309 4.59954 7.64584 5.43524 7.54103C5.31873 7.05263 5.2566 6.55284 5.24999 6.05078C4.1355 6.19017 3.08251 6.6396 2.21083 7.34791C1.33915 8.05622 0.683794 8.99498 0.31932 10.0574C-0.0451534 11.1198 -0.104106 12.2631 0.149171 13.3574C0.402447 14.4516 0.957782 15.4528 1.75199 16.247C2.5462 17.0412 3.54738 17.5966 4.64163 17.8499C5.73588 18.1031 6.87925 18.0442 7.94164 17.6797C9.00404 17.3152 9.9428 16.6599 10.6511 15.7882C11.3594 14.9165 11.8089 13.8635 11.9482 12.749C11.447 12.7434 10.9479 12.682 10.4602 12.566Z" fill="#88A1AC"/>
<path d="M12 12C13.1867 12 14.3467 11.6481 15.3334 10.9888C16.3201 10.3295 17.0892 9.39246 17.5433 8.2961C17.9974 7.19975 18.1162 5.99335 17.8847 4.82946C17.6532 3.66558 17.0818 2.59648 16.2426 1.75736C15.4035 0.918247 14.3344 0.346802 13.1705 0.115291C12.0067 -0.11622 10.8003 0.00259969 9.7039 0.456725C8.60754 0.910851 7.67047 1.67989 7.01118 2.66658C6.35189 3.65328 6 4.81331 6 6C6.00179 7.59075 6.6345 9.11584 7.75933 10.2407C8.88416 11.3655 10.4092 11.9982 12 12ZM12 1.5C12.89 1.5 13.76 1.76392 14.5001 2.25839C15.2401 2.75286 15.8169 3.45566 16.1575 4.27793C16.4981 5.10019 16.5872 6.00499 16.4135 6.87791C16.2399 7.75082 15.8113 8.55265 15.182 9.18198C14.5526 9.81132 13.7508 10.2399 12.8779 10.4135C12.005 10.5872 11.1002 10.4981 10.2779 10.1575C9.45566 9.81687 8.75285 9.24009 8.25839 8.50007C7.76392 7.76005 7.5 6.89002 7.5 6C7.50139 4.80696 7.97594 3.66317 8.81955 2.81956C9.66317 1.97594 10.807 1.50139 12 1.5Z" fill="#88A1AC"/>
<path d="M3 5.25L6 2.25H3.75V1.5H6.75V0H3C2.80109 0 2.61032 0.0790176 2.46967 0.21967C2.32902 0.360322 2.25 0.551088 2.25 0.75V2.25H0L3 5.25ZM15 12.75L12 15.75H14.25V16.5H11.25V18H15C15.1989 18 15.3897 17.921 15.5303 17.7803C15.671 17.6397 15.75 17.4489 15.75 17.25V15.75H18L15 12.75ZM6.75 15.75V14.9625C7.17351 14.8761 7.55415 14.6459 7.82749 14.3111C8.10083 13.9762 8.25009 13.5572 8.25 13.125C8.24868 12.7179 8.11348 12.3226 7.86525 12C7.97474 11.8545 8.06288 11.6942 8.127 11.5238C6.97908 10.7168 6.11069 9.57267 5.64225 8.25H5.25V9H3.75V15H5.25V15.75H6.75ZM5.25 10.5H6.375C6.47446 10.5 6.56984 10.5395 6.64017 10.6098C6.71049 10.6802 6.75 10.7755 6.75 10.875C6.75 10.9745 6.71049 11.0698 6.64017 11.1402C6.56984 11.2105 6.47446 11.25 6.375 11.25H5.25V10.5ZM5.25 12.75H6.375C6.47446 12.75 6.56984 12.7895 6.64017 12.8598C6.71049 12.9302 6.75 13.0255 6.75 13.125C6.75 13.2245 6.71049 13.3198 6.64017 13.3902C6.56984 13.4605 6.47446 13.5 6.375 13.5H5.25V12.75Z" fill="#88A1AC"/>
<path d="M13.528 4.017C13.616 4.1105 13.6957 4.226 13.7672 4.3635H14.584V5.16375H13.9652V5.19675C13.9652 5.60925 13.858 5.964 13.6435 6.261C13.429 6.558 13.1265 6.7835 12.736 6.9375L14.0807 9H12.3317L11.152 7.16025H9.58446V5.898H11.185C11.526 5.898 11.7872 5.832 11.9687 5.7C12.1557 5.568 12.2657 5.38925 12.2987 5.16375H9.41121V4.3635H12.109C11.911 4.1325 11.5947 4.017 11.1602 4.017H9.41121V3.21675H14.584V4.017H13.528Z" fill="#88A1AC"/>
</g>
<defs>
<clipPath id="clip0_22338_4983">
<rect width="18" height="18" fill="white"/>
</clipPath>
</defs>
</svg>
