<svg width="59" height="60" viewBox="0 0 59 60" fill="none" xmlns="http://www.w3.org/2000/svg">
<path d="M0 15C0 6.71573 6.71573 0 15 0H44C52.2843 0 59 6.71573 59 15V45C59 53.2843 52.2843 60 44 60H15C6.71573 60 0 53.2843 0 45V15Z" fill="#88A1AC" fill-opacity="0.1"/>
<path d="M30.1398 25.6211H24.8698C23.0098 25.6211 22.5898 26.5511 22.3598 27.7011L21.5098 31.7511H33.5098L32.6598 27.7011C32.4098 26.5511 31.9998 25.6211 30.1398 25.6211Z" stroke="#21728D" stroke-width="1.5" stroke-linecap="round" stroke-linejoin="round"/>
<path d="M34.9901 38.3622C35.0701 39.2422 34.3701 40.0022 33.4701 40.0022H32.0601C31.2501 40.0022 31.1401 39.6522 30.9901 39.2322L30.8401 38.7822C30.6301 38.1722 30.4901 37.7522 29.4101 37.7522H25.5701C24.4901 37.7522 24.3301 38.2222 24.1401 38.7822L23.9901 39.2322C23.8501 39.6622 23.7401 40.0022 22.9201 40.0022H21.5101C20.6101 40.0022 19.9001 39.2422 19.9901 38.3622L20.4101 33.7922C20.5201 32.6622 20.7301 31.7422 22.7001 31.7422H32.2701C34.2401 31.7422 34.4501 32.6622 34.5601 33.7922L34.9901 38.3622Z" stroke="#21728D" stroke-width="1.5" stroke-linecap="round" stroke-linejoin="round"/>
<path d="M21.5 29.5H20.75" stroke="#21728D" stroke-width="1.5" stroke-linecap="round" stroke-linejoin="round"/>
<path d="M34.25 29.5H33.5" stroke="#21728D" stroke-width="1.5" stroke-linecap="round" stroke-linejoin="round"/>
<path d="M23 34.75H25.25" stroke="#88A1AC" stroke-width="1.5" stroke-linecap="round" stroke-linejoin="round"/>
<path d="M29.75 34.75H32" stroke="#88A1AC" stroke-width="1.5" stroke-linecap="round" stroke-linejoin="round"/>
<path d="M36.7101 26.7402C36.9901 26.0902 36.8901 25.2102 36.3701 24.4402C35.8601 23.6702 35.0801 23.2402 34.3701 23.2502" stroke="#88A1AC" stroke-width="1.5" stroke-linecap="round" stroke-linejoin="round"/>
<path d="M39.8197 27.73C40.2397 26.22 39.9396 24.37 38.8696 22.77C37.7996 21.17 36.1996 20.19 34.6396 20" stroke="#88A1AC" stroke-width="1.5" stroke-linecap="round" stroke-linejoin="round"/>
</svg>
