<svg width="59" height="60" viewBox="0 0 59 60" fill="none" xmlns="http://www.w3.org/2000/svg">
<path d="M0 15C0 6.71573 6.71573 0 15 0H44C52.2843 0 59 6.71573 59 15V45C59 53.2843 52.2843 60 44 60H15C6.71573 60 0 53.2843 0 45V15Z" fill="#88A1AC" fill-opacity="0.1"/>
<g opacity="0.75">
<path d="M26.5802 40.5503C26.3602 40.5503 26.1302 40.5103 25.9202 40.4203C25.4502 40.2203 25.0902 39.8303 24.9302 39.3403L24.4902 38.0203C24.2902 37.4203 24.4702 36.6703 24.9102 36.2203L27.1802 33.9403C27.2102 33.9103 27.2502 33.8003 27.2502 33.7503V31.2803L22.6902 33.2503C22.0802 33.5103 21.4602 33.4803 20.9902 33.1703C20.5202 32.8603 20.2402 32.3003 20.2402 31.6503V30.3603C20.2402 29.3803 20.9402 28.3303 21.8302 27.9803L27.2402 25.6403V22.8003C27.2402 21.5903 28.0902 20.2003 29.1702 19.6403C29.6902 19.3803 30.2902 19.3803 30.8002 19.6403C31.8902 20.2003 32.7402 21.5803 32.7402 22.7903V25.6303L38.1802 27.9703C39.0702 28.3503 39.7502 29.3703 39.7502 30.3603V31.6503C39.7502 32.3103 39.4802 32.8603 39.0002 33.1703C38.5202 33.4803 37.9102 33.5103 37.3002 33.2603L32.7402 31.2903V33.7603C32.7402 33.8003 32.7802 33.9003 32.8102 33.9303L35.0902 36.2203C35.5302 36.6603 35.7102 37.4303 35.5102 38.0203L35.0702 39.3403C34.9002 39.8303 34.5402 40.2203 34.0602 40.4103C33.5902 40.6003 33.0702 40.5803 32.6202 40.3603C32.5702 40.3303 32.5202 40.3003 32.4702 40.2603L30.1402 38.3003C30.0602 38.2303 29.9002 38.2403 29.8302 38.3003L27.5002 40.2603C27.4602 40.3003 27.4102 40.3303 27.3602 40.3503C27.1202 40.4903 26.8502 40.5503 26.5802 40.5503ZM27.5602 29.6403C27.7902 29.6403 28.0102 29.7003 28.2002 29.8303C28.5502 30.0603 28.7502 30.4503 28.7502 30.9103V33.7603C28.7502 34.1903 28.5402 34.7003 28.2402 35.0003L25.9702 37.2803C25.9302 37.3303 25.8902 37.4803 25.9102 37.5403L26.3502 38.8703C26.3802 38.9703 26.4502 39.0103 26.4902 39.0303C26.5202 39.0403 26.5702 39.0603 26.6302 39.0403L28.8702 37.1503C29.5002 36.6103 30.4902 36.6103 31.1202 37.1503L33.3502 39.0303C33.4202 39.0403 33.4702 39.0303 33.5002 39.0203C33.5402 39.0003 33.6202 38.9603 33.6502 38.8603L34.0902 37.5403C34.1102 37.4703 34.0702 37.3203 34.0302 37.2803L31.7602 35.0003C31.4602 34.7203 31.2402 34.2003 31.2402 33.7603V30.9103C31.2402 30.4603 31.4302 30.0703 31.7702 29.8403C32.1102 29.6103 32.5502 29.5803 32.9702 29.7603L37.8902 31.8803C38.0402 31.9403 38.1402 31.9403 38.1702 31.9203C38.2002 31.9003 38.2402 31.8103 38.2402 31.6503V30.3603C38.2402 29.9803 37.9202 29.4903 37.5802 29.3503L32.0002 26.9403C31.5602 26.7503 31.2502 26.2703 31.2502 25.7903V22.7903C31.2502 22.1303 30.7302 21.2803 30.1302 20.9803C30.0502 20.9403 29.9502 20.9403 29.8602 20.9803C29.2802 21.2803 28.7502 22.1503 28.7502 22.8003V25.8003C28.7502 26.2703 28.4402 26.7603 28.0002 26.9503L22.4202 29.3603C22.0702 29.5003 21.7502 29.9903 21.7502 30.3603V31.6503C21.7502 31.8103 21.7902 31.9003 21.8202 31.9203C21.8502 31.9403 21.9502 31.9403 22.1002 31.8803L27.0102 29.7603C27.1902 29.6803 27.3802 29.6403 27.5602 29.6403Z" fill="#21728D"/>
</g>
</svg>
