<svg width="20" height="20" viewBox="0 0 20 20" fill="none" xmlns="http://www.w3.org/2000/svg">
<g clip-path="url(#clip0_22322_10072)">
<path d="M12.6579 9.00001H17.6995C17.8149 9.00001 17.9292 9.02273 18.0357 9.06689C18.1423 9.11104 18.2392 9.17576 18.3208 9.25734C18.4024 9.33893 18.4671 9.43579 18.5112 9.54238C18.5554 9.64898 18.5781 9.76323 18.5781 9.87861V17.26C18.5781 17.3757 18.5554 17.4902 18.5111 17.597C18.4668 17.7039 18.402 17.8009 18.3202 17.8827C18.2384 17.9645 18.1414 18.0294 18.0345 18.0736C17.9277 18.1179 17.8132 18.1406 17.6975 18.1406M6.91682 9H1.87723C1.76203 9 1.64795 9.02269 1.54152 9.06677C1.43509 9.11086 1.33839 9.17548 1.25693 9.25693C1.17547 9.33839 1.11085 9.4351 1.06677 9.54153C1.02269 9.64796 0.999998 9.76203 1 9.87723V17.2614" stroke="#88A1AC" stroke-width="1.4"/>
<path d="M9.61171 11.6376H15.2004C15.4126 11.6376 15.616 11.7128 15.7661 11.8466C15.9161 11.9804 16.0004 12.1619 16.0004 12.3512V18.0594C16.0004 18.2486 15.9161 18.4301 15.7661 18.5639C15.616 18.6978 15.4126 18.7729 15.2004 18.7729H2.40006C2.18788 18.7729 1.98439 18.6978 1.83436 18.5639C1.68433 18.4301 1.60004 18.2486 1.60004 18.0594V12.3512C1.60004 12.1619 1.68433 11.9804 1.83436 11.8466C1.98439 11.7128 2.18788 11.6376 2.40006 11.6376H8.73692C8.11615 11.5542 7.53709 11.2958 7.08783 10.8951C6.86124 10.693 6.67524 10.4615 6.53452 10.2106H2.40006C1.76352 10.2106 1.15306 10.4361 0.702961 10.8375C0.252863 11.239 0 11.7834 0 12.3512V18.0594C0 18.6271 0.252863 19.1716 0.702961 19.573C1.15306 19.9745 1.76352 20.2 2.40006 20.2H15.2004C15.8369 20.2 16.4474 19.9745 16.8975 19.573C17.3476 19.1716 17.6004 18.6271 17.6004 18.0594V12.3512C17.6004 11.7834 17.3476 11.239 16.8975 10.8375C16.4474 10.4361 15.8369 10.2106 15.2004 10.2106H11.8117C11.8094 10.2152 11.8071 10.2199 11.8049 10.2246C11.7976 10.2397 11.7904 10.2548 11.7818 10.2693L11.778 10.2741L11.7744 10.2786C11.5219 10.6979 11.1468 11.0484 10.6889 11.2929C10.3573 11.47 9.99116 11.5866 9.61171 11.6376Z" fill="#88A1AC"/>
<path d="M10.6603 10.2106C10.4963 10.376 10.298 10.5138 10.0743 10.6155C9.66841 10.8001 9.20376 10.8547 8.75816 10.7701C8.3411 10.691 7.96443 10.4944 7.68301 10.2106H10.6603Z" fill="#88A1AC"/>
<path d="M3.55563 14.612C3.6872 14.5336 3.84187 14.4917 4.0001 14.4917C4.21228 14.4917 4.41577 14.5669 4.5658 14.7007C4.71583 14.8346 4.80012 15.016 4.80012 15.2053C4.80012 15.3464 4.7532 15.4844 4.66529 15.6017C4.57738 15.719 4.45244 15.8105 4.30625 15.8645C4.16007 15.9185 3.99921 15.9326 3.84402 15.9051C3.68883 15.8776 3.54629 15.8096 3.4344 15.7098C3.32252 15.61 3.24632 15.4829 3.21545 15.3445C3.18458 15.2061 3.20043 15.0626 3.26098 14.9322C3.32153 14.8018 3.42407 14.6904 3.55563 14.612Z" fill="#88A1AC"/>
<path d="M13.1559 14.612C13.2874 14.5336 13.4421 14.4917 13.6003 14.4917C13.8125 14.4917 14.016 14.5669 14.166 14.7007C14.3161 14.8346 14.4004 15.016 14.4004 15.2053C14.4004 15.3464 14.3534 15.4844 14.2655 15.6017C14.1776 15.719 14.0527 15.8105 13.9065 15.8645C13.7603 15.9185 13.5995 15.9326 13.4443 15.9051C13.2891 15.8776 13.1465 15.8096 13.0346 15.7098C12.9228 15.61 12.8466 15.4829 12.8157 15.3445C12.7848 15.2061 12.8007 15.0626 12.8612 14.9322C12.9218 14.8018 13.0243 14.6904 13.1559 14.612Z" fill="#88A1AC"/>
<path fill-rule="evenodd" clip-rule="evenodd" d="M7.46682 13.4254C7.86151 13.1902 8.32553 13.0647 8.80022 13.0647C9.43675 13.0647 10.0472 13.2902 10.4973 13.6917C10.9474 14.0931 11.2003 14.6376 11.2003 15.2053C11.2003 15.6286 11.0595 16.0425 10.7958 16.3945C10.5321 16.7465 10.1572 17.0209 9.71868 17.1829C9.28013 17.3449 8.79756 17.3873 8.33199 17.3047C7.86642 17.2221 7.43877 17.0183 7.10312 16.7189C6.76747 16.4195 6.53888 16.0381 6.44628 15.6229C6.35367 15.2077 6.4012 14.7773 6.58285 14.3861C6.76451 13.995 7.07213 13.6607 7.46682 13.4254ZM8.35575 15.7986C8.48731 15.877 8.64199 15.9188 8.80022 15.9188C9.0124 15.9188 9.21589 15.8436 9.36592 15.7098C9.51595 15.576 9.60024 15.3945 9.60024 15.2053C9.60024 15.0642 9.55332 14.9262 9.46541 14.8089C9.3775 14.6915 9.25256 14.6001 9.10637 14.5461C8.96019 14.4921 8.79933 14.4779 8.64414 14.5055C8.48895 14.533 8.34641 14.6009 8.23452 14.7007C8.12263 14.8005 8.04644 14.9277 8.01557 15.0661C7.9847 15.2045 8.00055 15.348 8.0611 15.4783C8.12165 15.6087 8.22419 15.7202 8.35575 15.7986Z" fill="#88A1AC"/>
<path d="M9.13323 11.0037C9.60919 11.0033 10.0762 10.874 10.4845 10.6295C10.8929 10.3851 11.2274 10.0345 11.4526 9.61521C11.4545 9.61183 11.4574 9.60939 11.4593 9.60592C11.473 9.5799 11.4829 9.55204 11.4958 9.5256C11.5237 9.46893 11.5503 9.41181 11.5742 9.35297C11.5879 9.31868 11.5999 9.284 11.6123 9.24924C11.634 9.18804 11.6535 9.12589 11.6708 9.06281C11.6795 9.03052 11.6883 8.9984 11.6957 8.96583C11.7119 8.89602 11.7245 8.82502 11.7352 8.75319C11.7392 8.72581 11.7445 8.6988 11.7476 8.67125C11.7594 8.57168 11.7656 8.47153 11.766 8.37126V5.02787C11.9859 4.94184 12.1744 4.79113 12.3068 4.59565C12.4392 4.40017 12.5091 4.16913 12.5074 3.93306C12.5056 3.697 12.4323 3.46701 12.2971 3.2735C12.1619 3.07999 11.9711 2.93206 11.75 2.84927C11.758 2.82356 11.7633 2.79713 11.766 2.77036V0.429082C11.766 0.315282 11.7208 0.206144 11.6404 0.125675C11.5599 0.0452067 11.4508 0 11.337 0C11.2232 0 11.114 0.0452067 11.0335 0.125675C10.9531 0.206144 10.9079 0.315282 10.9079 0.429082V2.77036C10.9106 2.79712 10.9159 2.82354 10.9239 2.84924C10.7027 2.93196 10.5119 3.07987 10.3766 3.2734C10.2413 3.46694 10.1679 3.69698 10.1662 3.93311C10.1644 4.16924 10.2344 4.40033 10.3668 4.59583C10.4993 4.79133 10.6879 4.94202 10.9079 5.02799V8.37128C10.9068 8.47803 10.896 8.58447 10.8757 8.68928C10.8717 8.71109 10.8684 8.73291 10.8637 8.75453C10.8421 8.85261 10.8122 8.94868 10.7743 9.04166C10.7673 9.0591 10.7585 9.07577 10.7509 9.09291C10.5859 9.46423 10.2983 9.76758 9.93631 9.95215C9.57432 10.1367 9.1599 10.1913 8.76247 10.1067C8.36504 10.0222 8.00873 9.80363 7.75323 9.48769C7.49773 9.17175 7.35854 8.77761 7.359 8.37128V7.93036C7.359 7.81656 7.31379 7.70742 7.23332 7.62696C7.15285 7.54649 7.04371 7.50128 6.92991 7.50128C6.81611 7.50128 6.70697 7.54649 6.62651 7.62696C6.54604 7.70742 6.50083 7.81656 6.50083 7.93036V8.37126C6.50163 9.06917 6.77923 9.73827 7.27272 10.2318C7.76622 10.7253 8.43532 11.0029 9.13323 11.0037Z" fill="#88A1AC"/>
</g>
<defs>
<clipPath id="clip0_22322_10072">
<rect width="20" height="20" fill="white"/>
</clipPath>
</defs>
</svg>
