<svg width="59" height="60" viewBox="0 0 59 60" fill="none" xmlns="http://www.w3.org/2000/svg">
<path d="M0 15C0 6.71573 6.71573 0 15 0H44C52.2843 0 59 6.71573 59 15V45C59 53.2843 52.2843 60 44 60H15C6.71573 60 0 53.2843 0 45V15Z" fill="#88A1AC" fill-opacity="0.1"/>
<path d="M37.2598 36.9V25.1C37.2598 23.6 36.6198 23 35.0298 23H33.9898C32.3998 23 31.7598 23.6 31.7598 25.1V36.9" stroke="#21728D" stroke-width="1.5" stroke-linecap="round" stroke-linejoin="round"/>
<path d="M23.2598 36.9V30.1C23.2598 28.6 23.8998 28 25.4898 28H26.5298C28.1198 28 28.7598 28.6 28.7598 30.1V36.9" stroke="#21728D" stroke-width="1.5" stroke-linecap="round" stroke-linejoin="round"/>
<path d="M20 37H40" stroke="#88A1AC" stroke-width="1.5" stroke-linecap="round" stroke-linejoin="round"/>
</svg>
