<svg width="59" height="60" viewBox="0 0 59 60" fill="none" xmlns="http://www.w3.org/2000/svg">
<path d="M0 15C0 6.71573 6.71573 0 15 0H44C52.2843 0 59 6.71573 59 15V45C59 53.2843 52.2843 60 44 60H15C6.71573 60 0 53.2843 0 45V15Z" fill="#88A1AC" fill-opacity="0.1"/>
<path fill-rule="evenodd" clip-rule="evenodd" d="M20.8743 21.847C23.2906 19.3785 27.2118 19.3792 29.6272 21.8491L29.6391 21.8616L30.0023 22.2596L30.3822 21.8489C32.7983 19.3784 36.7211 19.3785 39.1372 21.8491C39.1465 21.8585 39.1554 21.8684 39.1639 21.8786L39.2011 21.9232C41.6072 24.3886 41.6027 28.3685 39.1873 30.8282C39.187 30.8285 39.1867 30.8288 39.1864 30.8291L38.4581 31.5774L38.457 31.5785L30.357 39.8485C30.2629 39.9445 30.1342 39.9987 29.9998 39.9987C29.8654 39.9987 29.7366 39.9445 29.6426 39.8485L21.5426 31.5785L21.5415 31.5774L20.8123 30.8283C20.8122 30.8282 20.8124 30.8283 20.8123 30.8283C18.4025 28.3639 18.4023 24.3733 20.8123 21.9091L20.8162 21.9051L20.8743 21.847ZM28.9064 22.5422C26.882 20.4788 23.6091 20.4808 21.5872 22.5483L21.5833 22.5522L21.5253 22.6102C19.4973 24.686 19.4979 28.054 21.5272 30.1291L21.5281 30.1299L22.257 30.8788L22.2581 30.8799L29.9998 38.7841L37.7415 30.8799L37.7426 30.8788L38.4715 30.1299L38.4731 30.1283C40.512 28.0528 40.512 24.6845 38.4731 22.6091C38.4635 22.5993 38.4544 22.5892 38.4457 22.5788L38.4087 22.5344C36.3853 20.4804 33.1217 20.4834 31.102 22.5434L30.3668 23.3382C30.2718 23.4409 30.138 23.4991 29.9981 23.4987C29.8581 23.4982 29.7248 23.4391 29.6304 23.3357L28.9064 22.5422Z" fill="#21728D"/>
</svg>
