<svg width="59" height="60" viewBox="0 0 59 60" fill="none" xmlns="http://www.w3.org/2000/svg">
<path d="M0 15C0 6.71573 6.71573 0 15 0H44C52.2843 0 59 6.71573 59 15V45C59 53.2843 52.2843 60 44 60H15C6.71573 60 0 53.2843 0 45V15Z" fill="#88A1AC" fill-opacity="0.1"/>
<path d="M26.5703 33.2704L33.1103 26.7305" stroke="#88A1AC" stroke-width="1.5" stroke-linecap="round" stroke-linejoin="round"/>
<path d="M26.98 28.3701C27.6593 28.3701 28.21 27.8195 28.21 27.1402C28.21 26.4609 27.6593 25.9102 26.98 25.9102C26.3007 25.9102 25.75 26.4609 25.75 27.1402C25.75 27.8195 26.3007 28.3701 26.98 28.3701Z" stroke="#88A1AC" stroke-width="1.5" stroke-linecap="round" stroke-linejoin="round"/>
<path d="M33.52 34.0889C34.1993 34.0889 34.75 33.5382 34.75 32.8589C34.75 32.1796 34.1993 31.6289 33.52 31.6289C32.8407 31.6289 32.29 32.1796 32.29 32.8589C32.29 33.5382 32.8407 34.0889 33.52 34.0889Z" stroke="#88A1AC" stroke-width="1.5" stroke-linecap="round" stroke-linejoin="round"/>
<path d="M30 40C35.5228 40 40 35.5228 40 30C40 24.4772 35.5228 20 30 20C24.4772 20 20 24.4772 20 30C20 35.5228 24.4772 40 30 40Z" stroke="#21728D" stroke-width="1.5" stroke-linecap="round" stroke-linejoin="round"/>
</svg>
