<svg width="20" height="20" viewBox="0 0 20 20" fill="none" xmlns="http://www.w3.org/2000/svg">
<path d="M8.05263 3.84211C6.48298 3.84211 5.21053 5.11456 5.21053 6.68421C5.21053 8.25391 6.48298 9.52632 8.05263 9.52632C9.62233 9.52632 10.8947 8.25391 10.8947 6.68421C10.8947 5.11456 9.62233 3.84211 8.05263 3.84211ZM6.63158 6.68421C6.63158 5.89938 7.2678 5.26316 8.05263 5.26316C8.83743 5.26316 9.47368 5.89938 9.47368 6.68421C9.47368 7.46901 8.83743 8.10526 8.05263 8.10526C7.2678 8.10526 6.63158 7.46901 6.63158 6.68421ZM0 3.13158C0 1.95434 0.954341 1 2.13158 1H13.9737C15.1509 1 16.1053 1.95434 16.1053 3.13158V7.63158H14.6842V5.26316H13.9737C12.7965 5.26316 11.8421 4.30882 11.8421 3.13158V2.42105H4.26316V3.13158C4.26316 4.30882 3.30882 5.26316 2.13158 5.26316H1.42105V8.10526H2.13158C3.30882 8.10526 4.26316 9.05964 4.26316 10.2368V10.9474H11.3684V12.3684H2.13158C0.954341 12.3684 0 11.414 0 10.2368V3.13158ZM2.13158 2.42105C1.73917 2.42105 1.42105 2.73917 1.42105 3.13158V3.84211H2.13158C2.52399 3.84211 2.84211 3.52399 2.84211 3.13158V2.42105H2.13158ZM14.6842 3.84211V3.13158C14.6842 2.73917 14.3661 2.42105 13.9737 2.42105H13.2632V3.13158C13.2632 3.52399 13.5813 3.84211 13.9737 3.84211H14.6842ZM1.42105 10.2368C1.42105 10.6292 1.73917 10.9474 2.13158 10.9474H2.84211V10.2368C2.84211 9.84444 2.52399 9.52632 2.13158 9.52632H1.42105V10.2368ZM2.27498 13.7895H11.3684V15.2105H4.73686C3.68488 15.2105 2.76639 14.639 2.27498 13.7895ZM18.9474 7.63158V5.73686C18.9474 4.68488 18.3758 3.76639 17.5263 3.27498V7.63158H18.9474ZM13.7368 8.57895C12.952 8.57895 12.3158 9.2152 12.3158 10V17.5789C12.3158 18.3637 12.952 19 13.7368 19H18.4735C19.2583 19 19.8945 18.3637 19.8945 17.5789V10C19.8945 9.2152 19.2583 8.57895 18.4735 8.57895H13.7368ZM14.2105 12.8421H15.1577C15.4193 12.8421 15.6314 13.0542 15.6314 13.3158C15.6314 13.5774 15.4193 13.7895 15.1577 13.7895H14.2105C13.949 13.7895 13.7368 13.5774 13.7368 13.3158C13.7368 13.0542 13.949 12.8421 14.2105 12.8421ZM17.0526 12.8421H18C18.2616 12.8421 18.4737 13.0542 18.4737 13.3158C18.4737 13.5774 18.2616 13.7895 18 13.7895H17.0526C16.7911 13.7895 16.5789 13.5774 16.5789 13.3158C16.5789 13.0542 16.7911 12.8421 17.0526 12.8421ZM14.2105 14.7368H15.1577C15.4193 14.7368 15.6314 14.949 15.6314 15.2105C15.6314 15.4721 15.4193 15.6842 15.1577 15.6842H14.2105C13.949 15.6842 13.7368 15.4721 13.7368 15.2105C13.7368 14.949 13.949 14.7368 14.2105 14.7368ZM17.0526 14.7368H18C18.2616 14.7368 18.4737 14.949 18.4737 15.2105C18.4737 15.4721 18.2616 15.6842 18 15.6842H17.0526C16.7911 15.6842 16.5789 15.4721 16.5789 15.2105C16.5789 14.949 16.7911 14.7368 17.0526 14.7368ZM14.2105 16.6316H15.1577C15.4193 16.6316 15.6314 16.8437 15.6314 17.1053C15.6314 17.3668 15.4193 17.5789 15.1577 17.5789H14.2105C13.949 17.5789 13.7368 17.3668 13.7368 17.1053C13.7368 16.8437 13.949 16.6316 14.2105 16.6316ZM17.0526 16.6316H18C18.2616 16.6316 18.4737 16.8437 18.4737 17.1053C18.4737 17.3668 18.2616 17.5789 18 17.5789H17.0526C16.7911 17.5789 16.5789 17.3668 16.5789 17.1053C16.5789 16.8437 16.7911 16.6316 17.0526 16.6316ZM13.7367 10.4736C13.7367 10.212 13.9489 9.99991 14.2104 9.99991H17.9999C18.2615 9.99991 18.4736 10.212 18.4736 10.4736V11.421C18.4736 11.6825 18.2615 11.8946 17.9999 11.8946H14.2104C13.9489 11.8946 13.7367 11.6825 13.7367 11.421V10.4736Z" fill="#88A1AC"/>
</svg>
