<svg width="59" height="60" viewBox="0 0 59 60" fill="none" xmlns="http://www.w3.org/2000/svg">
<path d="M0 15C0 6.71573 6.71573 0 15 0H44C52.2843 0 59 6.71573 59 15V45C59 53.2843 52.2843 60 44 60H15C6.71573 60 0 53.2843 0 45V15Z" fill="#88A1AC" fill-opacity="0.1"/>
<path d="M33 40.75H27C21.57 40.75 19.25 38.43 19.25 33V27C19.25 21.57 21.57 19.25 27 19.25H33C38.43 19.25 40.75 21.57 40.75 27V33C40.75 38.43 38.43 40.75 33 40.75ZM27 20.75C22.39 20.75 20.75 22.39 20.75 27V33C20.75 37.61 22.39 39.25 27 39.25H33C37.61 39.25 39.25 37.61 39.25 33V27C39.25 22.39 37.61 20.75 33 20.75H27Z" fill="#21728D"/>
<path d="M39.48 25.8594H20.52C20.11 25.8594 19.77 25.5194 19.77 25.1094C19.77 24.6994 20.1 24.3594 20.52 24.3594H39.48C39.89 24.3594 40.23 24.6994 40.23 25.1094C40.23 25.5194 39.9 25.8594 39.48 25.8594Z" fill="#21728D"/>
<path d="M26.52 25.7194C26.11 25.7194 25.77 25.3794 25.77 24.9694V20.1094C25.77 19.6994 26.11 19.3594 26.52 19.3594C26.93 19.3594 27.27 19.6994 27.27 20.1094V24.9694C27.27 25.3794 26.93 25.7194 26.52 25.7194Z" fill="#88A1AC"/>
<path d="M33.48 25.2694C33.07 25.2694 32.73 24.9294 32.73 24.5194V20.1094C32.73 19.6994 33.07 19.3594 33.48 19.3594C33.89 19.3594 34.23 19.6994 34.23 20.1094V24.5194C34.23 24.9394 33.9 25.2694 33.48 25.2694Z" fill="#88A1AC"/>
<path d="M29.09 36.1212C28.73 36.1212 28.39 36.0312 28.08 35.8612C27.4 35.4612 27 34.6612 27 33.6512V31.2512C27 30.2412 27.4 29.4312 28.09 29.0312C28.78 28.6312 29.68 28.6912 30.55 29.2012L32.63 30.4012C33.5 30.9012 34.01 31.6512 34.01 32.4512C34.01 33.2512 33.5 34.0012 32.62 34.5012L30.54 35.7012C30.06 35.9812 29.56 36.1212 29.09 36.1212ZM29.1 30.2712C29 30.2712 28.91 30.2912 28.84 30.3312C28.63 30.4512 28.5 30.7912 28.5 31.2512V33.6512C28.5 34.1012 28.63 34.4412 28.84 34.5712C29.05 34.6912 29.41 34.6312 29.8 34.4012L31.88 33.2012C32.27 32.9712 32.51 32.6912 32.51 32.4512C32.51 32.2112 32.28 31.9312 31.88 31.7012L29.8 30.5012C29.54 30.3512 29.29 30.2712 29.1 30.2712Z" fill="#88A1AC"/>
</svg>
