<svg width="18" height="18" viewBox="0 0 18 18" fill="none" xmlns="http://www.w3.org/2000/svg">
<g clip-path="url(#clip0_16632_37820)">
<path fill-rule="evenodd" clip-rule="evenodd" d="M12.4 3.9H15.8C16.7389 3.9 17.5 4.66112 17.5 5.6V12.4C17.5 13.3389 16.7389 14.1 15.8 14.1H12.4V15.75C12.4 16.706 11.6501 17.5 10.7 17.5H2.2C1.24991 17.5 0.5 16.706 0.5 15.75V2.25C0.5 1.29402 1.24991 0.5 2.2 0.5H10.7C11.6501 0.5 12.4 1.29402 12.4 2.25V3.9ZM15.8 8.15H12.4V12.4H15.8V8.15ZM10.7 15.75V2.25C10.7 2.21187 10.6888 2.2 10.7 2.2H2.2C2.21121 2.2 2.2 2.21187 2.2 2.25V15.75C2.2 15.7881 2.21121 15.8 2.2 15.8H10.7C10.6888 15.8 10.7 15.7881 10.7 15.75ZM3.05 14.95V13.25H4.75V14.95H3.05ZM5.6 14.95V13.25H7.3V14.95H5.6ZM8.15 14.95V13.25H9.85V14.95H8.15ZM3.05 12.4V10.7H4.75V12.4H3.05ZM5.6 12.4V10.7H7.3V12.4H5.6ZM8.15 12.4V10.7H9.85V12.4H8.15ZM15.8 6.45V5.6H12.4V6.45H15.8Z" fill="#88A1AC"/>
</g>
<defs>
<clipPath id="clip0_16632_37820">
<rect width="18" height="18" fill="white"/>
</clipPath>
</defs>
</svg>
