<svg width="18" height="18" viewBox="0 0 18 18" fill="none" xmlns="http://www.w3.org/2000/svg">
<g clip-path="url(#clip0_22338_5007)">
<path fill-rule="evenodd" clip-rule="evenodd" d="M1.5 0.75H0.75V6.75H2.25V2.25H6.75V0.75H1.5ZM1.5 17.25H0.75V11.25H2.25V15.75H6.75V17.25H1.5ZM17.25 0.75V6.75H15.75V2.25H11.25V0.75H17.25ZM17.25 16.5V17.25H11.25V15.75H15.75V11.25H17.25V16.5Z" fill="#88A1AC"/>
<path fill-rule="evenodd" clip-rule="evenodd" d="M3.75 8.25V3.75H8.25V8.25H3.75ZM5.25 6.75H6.75V5.25H5.25V6.75ZM9.75 8.25V3.75H14.25V8.25H9.75ZM11.25 6.75H12.75V5.25H11.25V6.75ZM3.75 13.5V14.25H8.25V9.75H3.75V13.5ZM6.75 12.75H5.25V11.25H6.75V12.75ZM9.75 9.75V14.25H14.4375V12.75H11.25V9.75H9.75ZM12.75 9.75V11.25H14.25V9.75H12.75Z" fill="#88A1AC"/>
</g>
<defs>
<clipPath id="clip0_22338_5007">
<rect width="18" height="18" fill="white"/>
</clipPath>
</defs>
</svg>
