<svg width="24" height="24" viewBox="0 0 24 24" fill="none" xmlns="http://www.w3.org/2000/svg">
<g clip-path="url(#clip0_16632_37261)">
<path d="M2 9V6.5C2 4.01 4.01 2 6.5 2H9M15 2H17.5C19.99 2 22 4.01 22 6.5V9M22 16V17.5C22 19.99 19.99 22 17.5 22H16M9 22H6.5C4.01 22 2 19.99 2 17.5V15M10.5 7V9C10.5 10 10 10.5 9 10.5H7C6 10.5 5.5 10 5.5 9V7C5.5 6 6 5.5 7 5.5H9C10 5.5 10.5 6 10.5 7ZM18.5 7V9C18.5 10 18 10.5 17 10.5H15C14 10.5 13.5 10 13.5 9V7C13.5 6 14 5.5 15 5.5H17C18 5.5 18.5 6 18.5 7ZM10.5 15V17C10.5 18 10 18.5 9 18.5H7C6 18.5 5.5 18 5.5 17V15C5.5 14 6 13.5 7 13.5H9C10 13.5 10.5 14 10.5 15ZM18.5 15V17C18.5 18 18 18.5 17 18.5H15C14 18.5 13.5 18 13.5 17V15C13.5 14 14 13.5 15 13.5H17C18 13.5 18.5 14 18.5 15Z" stroke="white" stroke-linecap="round" stroke-linejoin="round"/>
<g filter="url(#filter0_d_16632_37261)">
<rect x="12.4" y="12.4" width="7.2" height="7.2" rx="2.6" stroke="#21728D" stroke-width="1.2" shape-rendering="crispEdges"/>
</g>
</g>
<defs>
<filter id="filter0_d_16632_37261" x="7.7998" y="11.8008" width="16.4004" height="16.3984" filterUnits="userSpaceOnUse" color-interpolation-filters="sRGB">
<feFlood flood-opacity="0" result="BackgroundImageFix"/>
<feColorMatrix in="SourceAlpha" type="matrix" values="0 0 0 0 0 0 0 0 0 0 0 0 0 0 0 0 0 0 127 0" result="hardAlpha"/>
<feOffset dy="4"/>
<feGaussianBlur stdDeviation="2"/>
<feComposite in2="hardAlpha" operator="out"/>
<feColorMatrix type="matrix" values="0 0 0 0 0 0 0 0 0 0 0 0 0 0 0 0 0 0 0.25 0"/>
<feBlend mode="normal" in2="BackgroundImageFix" result="effect1_dropShadow_16632_37261"/>
<feBlend mode="normal" in="SourceGraphic" in2="effect1_dropShadow_16632_37261" result="shape"/>
</filter>
<clipPath id="clip0_16632_37261">
<rect width="24" height="24" fill="white"/>
</clipPath>
</defs>
</svg>
