<svg width="59" height="60" viewBox="0 0 59 60" fill="none" xmlns="http://www.w3.org/2000/svg">
<path d="M0 15C0 6.71573 6.71573 0 15 0H44C52.2843 0 59 6.71573 59 15V45C59 53.2843 52.2843 60 44 60H15C6.71573 60 0 53.2843 0 45V15Z" fill="#88A1AC" fill-opacity="0.1"/>
<path d="M34.9 40.75H25.1C22.98 40.75 21.25 39.02 21.25 36.9V23.1C21.25 20.98 22.98 19.25 25.1 19.25H34.9C37.02 19.25 38.75 20.98 38.75 23.1V36.9C38.75 39.02 37.02 40.75 34.9 40.75ZM25.1 20.75C23.81 20.75 22.75 21.8 22.75 23.1V36.9C22.75 38.19 23.8 39.25 25.1 39.25H34.9C36.19 39.25 37.25 38.2 37.25 36.9V23.1C37.25 21.81 36.2 20.75 34.9 20.75H25.1Z" fill="#21728D"/>
<path d="M36.5 31.75H23.5C22.26 31.75 21.25 30.74 21.25 29.5V27.5C21.25 26.26 22.26 25.25 23.5 25.25H36.5C37.74 25.25 38.75 26.26 38.75 27.5V29.5C38.75 30.74 37.74 31.75 36.5 31.75ZM23.5 26.75C23.09 26.75 22.75 27.09 22.75 27.5V29.5C22.75 29.91 23.09 30.25 23.5 30.25H36.5C36.91 30.25 37.25 29.91 37.25 29.5V27.5C37.25 27.09 36.91 26.75 36.5 26.75H23.5Z" fill="#21728D"/>
<path d="M26 36.7481C25.67 36.7481 25.35 36.6181 25.12 36.3781C25.06 36.3281 25.01 36.2581 24.96 36.1881C24.92 36.1281 24.88 36.0481 24.85 35.9781C24.81 35.8981 24.79 35.8181 24.77 35.7381C24.76 35.6581 24.75 35.5781 24.75 35.4981C24.75 35.4181 24.76 35.3381 24.77 35.2581C24.79 35.1781 24.81 35.0981 24.85 35.0181C24.88 34.9481 24.92 34.8681 24.96 34.8081C25.01 34.7381 25.06 34.6681 25.12 34.6181C25.58 34.1481 26.41 34.1481 26.88 34.6181C26.94 34.6681 26.99 34.7381 27.04 34.8081C27.08 34.8681 27.12 34.9481 27.15 35.0181C27.19 35.0981 27.21 35.1781 27.23 35.2581C27.24 35.3381 27.25 35.4181 27.25 35.4981C27.25 35.5781 27.24 35.6581 27.23 35.7381C27.21 35.8181 27.19 35.8981 27.15 35.9781C27.12 36.0481 27.08 36.1281 27.04 36.1881C26.99 36.2581 26.94 36.3281 26.88 36.3781C26.65 36.6181 26.33 36.7481 26 36.7481Z" fill="#21728D"/>
<path d="M34 36.7481C33.67 36.7481 33.35 36.6181 33.12 36.3781C32.88 36.1481 32.75 35.8281 32.75 35.4981C32.75 35.1681 32.88 34.8481 33.12 34.6181C33.58 34.1481 34.42 34.1481 34.88 34.6181C35.12 34.8481 35.25 35.1681 35.25 35.4981C35.25 35.8281 35.12 36.1481 34.88 36.3781C34.65 36.6181 34.33 36.7481 34 36.7481Z" fill="#21728D"/>
<path d="M32.5 23.75H27.5C27.09 23.75 26.75 23.41 26.75 23C26.75 22.59 27.09 22.25 27.5 22.25H32.5C32.91 22.25 33.25 22.59 33.25 23C33.25 23.41 32.91 23.75 32.5 23.75Z" fill="#21728D"/>
</svg>
