<svg width="18" height="18" viewBox="0 0 18 18" fill="none" xmlns="http://www.w3.org/2000/svg">
<g clip-path="url(#clip0_18119_40340)">
<g clip-path="url(#clip1_18119_40340)">
<path fill-rule="evenodd" clip-rule="evenodd" d="M8.32271 9.47004C7.89233 9.07182 7.41445 8.51351 7.20724 8.01942C7.17539 7.95572 7.11172 7.79614 7.20724 7.66874C7.39853 7.41361 7.43038 7.39768 7.63734 7.15848C7.78089 6.98298 7.89233 6.82372 7.84459 6.68007L7.12761 4.81479C7.06366 4.6871 6.87262 4.67118 6.64945 4.65525C6.45813 4.65525 6.2512 4.65525 6.10763 4.6871C5.78897 4.79886 5.1357 5.65984 5.05607 6.28158C4.88067 7.63657 6.10763 9.43815 7.33458 10.5542C8.56178 11.6863 10.458 12.7546 11.7963 12.4514C12.4178 12.308 13.2148 11.5907 13.2785 11.2556C13.3104 11.1123 13.2944 10.9052 13.2626 10.7135C13.2467 10.4905 13.1989 10.3312 13.071 10.2675L11.4461 9.51778C11.3022 9.43812 11.159 9.50185 11.0157 9.6776C10.8406 9.91652 10.7604 10.0121 10.5534 10.2675C10.442 10.4109 10.3624 10.5064 10.235 10.5224C10.0912 10.5542 9.90018 10.4746 9.86836 10.4746C9.35835 10.2994 8.76874 9.86882 8.32271 9.47004ZM2.96863 15.1939L3.89282 12.8502C2.87283 11.6704 2.25141 10.1237 2.25141 8.43384C2.25141 4.70327 5.27896 1.68979 9.00809 1.68979C12.7367 1.68979 15.7483 4.70327 15.7483 8.43384C15.7483 12.1647 12.7367 15.1938 9.00809 15.1938C7.50997 15.1938 6.13944 14.7154 5.02425 13.8866L2.96863 15.1939ZM1.8372 12.8979L0.5625 18L5.11973 15.9271C6.28302 16.5329 7.60549 16.8839 9.00809 16.8839C13.6606 16.8839 17.4375 13.105 17.4375 8.43388C17.4375 3.77863 13.6606 0 9.00809 0C4.33888 0 0.5625 3.77863 0.5625 8.43384C0.5625 10.0759 1.04038 11.6067 1.8372 12.8979Z" fill="#2A9A84"/>
</g>
</g>
<defs>
<clipPath id="clip0_18119_40340">
<rect width="18" height="18" fill="white"/>
</clipPath>
<clipPath id="clip1_18119_40340">
<rect width="18" height="18" fill="white"/>
</clipPath>
</defs>
</svg>
