<svg width="18" height="18" viewBox="0 0 18 18" fill="none" xmlns="http://www.w3.org/2000/svg">
<path d="M5.10508 0.789062H2.76758V17.2047H5.10508V0.789062Z" fill="#88A1AC"/>
<path d="M14.5079 0.789062H5.13135V17.2047H14.5079V0.789062Z" fill="#6A79A8"/>
<path d="M12.7551 2.54297H6.88477V5.46484H12.7551V2.54297Z" fill="#8DD1D3"/>
<path d="M14.5079 0.5H5.13135H2.76728C2.60791 0.5 2.4751 0.632812 2.4751 0.792188V17.2078C2.4751 17.3672 2.60791 17.5 2.76728 17.5H5.10479H14.4813C14.6407 17.5 14.7735 17.3672 14.7735 17.2078V0.792188C14.8001 0.632812 14.6673 0.5 14.5079 0.5ZM3.05947 1.08438H4.8126V16.9156H3.05947V1.08438ZM14.2157 16.9156H5.42354V1.08438H14.2157V16.9156Z" fill="#330D00"/>
<path d="M6.88447 5.78359H12.7548C12.9142 5.78359 13.047 5.65078 13.047 5.49141V2.56953C13.047 2.41016 12.9142 2.27734 12.7548 2.27734H6.88447C6.7251 2.27734 6.59229 2.41016 6.59229 2.56953V5.49141C6.59229 5.65078 6.7251 5.78359 6.88447 5.78359ZM7.17666 2.83516H12.4626V5.17266H7.17666V2.83516Z" fill="#330D00"/>
<path d="M6.59199 9.29531H13.0467C13.2061 9.29531 13.3389 9.1625 13.3389 9.00313C13.3389 8.84375 13.2061 8.71094 13.0467 8.71094H6.59199C6.43262 8.71094 6.2998 8.84375 6.2998 9.00313C6.2998 9.1625 6.43262 9.29531 6.59199 9.29531Z" fill="#330D00"/>
<path d="M6.59199 11.0453H13.0467C13.2061 11.0453 13.3389 10.9125 13.3389 10.7531C13.3389 10.5937 13.2061 10.4609 13.0467 10.4609H6.59199C6.43262 10.4609 6.2998 10.5937 6.2998 10.7531C6.2998 10.9125 6.43262 11.0453 6.59199 11.0453Z" fill="#330D00"/>
<path d="M6.59199 12.7953H13.0467C13.2061 12.7953 13.3389 12.6625 13.3389 12.5031C13.3389 12.3438 13.2061 12.2109 13.0467 12.2109H6.59199C6.43262 12.2109 6.2998 12.3438 6.2998 12.5031C6.2998 12.6625 6.43262 12.7953 6.59199 12.7953Z" fill="#330D00"/>
</svg>
