<svg width="20" height="20" viewBox="0 0 20 20" fill="none" xmlns="http://www.w3.org/2000/svg">
<path d="M10.0001 10.8333C10.4603 10.8333 10.8334 10.4602 10.8334 9.99996C10.8334 9.53972 10.4603 9.16663 10.0001 9.16663C9.53984 9.16663 9.16675 9.53972 9.16675 9.99996C9.16675 10.4602 9.53984 10.8333 10.0001 10.8333Z" stroke="#88A1AC" stroke-width="2" stroke-linecap="round" stroke-linejoin="round"/>
<path d="M10.0001 5.00004C10.4603 5.00004 10.8334 4.62694 10.8334 4.16671C10.8334 3.70647 10.4603 3.33337 10.0001 3.33337C9.53984 3.33337 9.16675 3.70647 9.16675 4.16671C9.16675 4.62694 9.53984 5.00004 10.0001 5.00004Z" stroke="#88A1AC" stroke-width="2" stroke-linecap="round" stroke-linejoin="round"/>
<path d="M10.0001 16.6667C10.4603 16.6667 10.8334 16.2936 10.8334 15.8333C10.8334 15.3731 10.4603 15 10.0001 15C9.53984 15 9.16675 15.3731 9.16675 15.8333C9.16675 16.2936 9.53984 16.6667 10.0001 16.6667Z" stroke="#88A1AC" stroke-width="2" stroke-linecap="round" stroke-linejoin="round"/>
</svg>
